<svg xmlns="http://www.w3.org/2000/svg" xmlns:xlink="http://www.w3.org/1999/xlink" width="60" height="60" viewBox="0 0 60 60">
    <defs>
        <path id="a" d="M.099.095H47.12v46.406H.099z"/>
    </defs>
    <g fill="none" fill-rule="evenodd">
        <path fill="#F23F28" d="M15.468 44.443a1.028 1.028 0 0 0-1.462 0l-7.877 7.925c-.4.403-.4 1.064 0 1.467.202.203.467.303.731.303.264 0 .529-.1.731-.303l7.877-7.92a1.043 1.043 0 0 0 0-1.472M47.165 12.526c-.185 1.188-.694 3.077-2.08 4.48-1.03 1.036-2.404 1.657-4.098 1.852.37-1.966 1.66-5.774 6.178-6.332m-8.422 7.418c-.008.287.101.562.294.77.198.206.471.32.757.32 2.832 0 5.118-.858 6.791-2.553 2.786-2.823 2.79-6.915 2.786-7.088a1.052 1.052 0 0 0-1.05-1.048c-7.325 0-9.468 6.277-9.578 9.599M33.516 12.999c.716.96 1.707 2.647 1.711 4.615 0 1.456-.549 2.866-1.63 4.196-1.153-1.636-2.963-5.215-.08-8.811m.784 11.177c2.045-2.001 3.079-4.216 3.07-6.587-.013-3.948-2.95-6.822-3.074-6.944a1.094 1.094 0 0 0-1.51.004c-5.287 5.174-2.328 11.094-.026 13.502.202.21.472.277.78.332.288 0 .558-.11.76-.307M41.804 27.94H41.8c-1.447 0-2.845-.527-4.167-1.565 1.623-1.108 5.185-2.85 8.756-.078-.956.688-2.632 1.644-4.585 1.644m6.92-2.344c-5.139-5.07-11.024-2.237-13.423-.025-.204.19-.325.457-.33.733-.004.28.11.548.31.746C37.26 29.007 39.45 30 41.8 30h.028c3.921-.016 6.779-2.834 6.9-2.953.4-.404.4-1.05-.004-1.45M16.957 38.72c-1.4-1.923-3.98-6.615-.081-11.265.879 1.125 2.24 3.286 2.248 5.863.009 1.884-.72 3.697-2.167 5.401m.695-13.593a1.084 1.084 0 0 0-1.501.008c-7.743 7.613-.103 15.83-.026 15.91.2.21.504.361.777.332.285 0 .554-.11.755-.307 2.401-2.358 3.613-4.973 3.6-7.76-.017-4.646-3.46-8.04-3.605-8.183M32.013 43.18c-1.119.884-3.263 2.248-5.83 2.261h-.025c-1.865 0-3.655-.734-5.345-2.18 1.911-1.41 6.58-4.002 11.2-.08m-5.855 4.405h.034c4.623-.021 7.995-3.48 8.137-3.63.4-.42.4-1.093-.005-1.51-7.569-7.778-15.735-.102-15.823-.025a1.1 1.1 0 0 0-.025 1.544c2.337 2.403 4.924 3.621 7.682 3.621M25.456 20.256c.782 1.061 1.933 3.014 1.937 5.306.004 1.684-.623 3.31-1.854 4.842-1.251-1.804-3.39-5.988-.083-10.148m.765 12.538c2.177-2.207 3.273-4.648 3.265-7.258-.017-4.346-3.14-7.516-3.269-7.648a1.044 1.044 0 0 0-1.473.004c-5.62 5.7-2.473 12.22-.025 14.876a.952.952 0 0 0 .762.335c.28 0 .544-.114.74-.31M33.897 36.516h-.008c-1.67 0-3.287-.628-4.805-1.87 1.797-1.254 5.953-3.405 10.087-.08-1.055.788-2.995 1.95-5.274 1.95m7.624-2.665c-5.666-5.65-12.146-2.488-14.787-.025-.207.193-.33.467-.334.749-.004.286.11.56.308.762 2.186 2.18 4.599 3.284 7.18 3.284h.035c4.32-.017 7.472-3.158 7.602-3.288a1.052 1.052 0 0 0-.004-1.482"/>
        <path fill="#C8C6C6" d="M8.277 43.983a25.842 25.842 0 0 1-4.075-13.737c-.012-1.15.08-2.282.215-3.407.08-.617.155-1.238.273-1.843.038-.194.096-.384.138-.579.139-.625.282-1.25.462-1.86.084-.274.19-.54.282-.815.172-.511.336-1.023.542-1.522.164-.401.357-.79.542-1.183.163-.35.315-.706.495-1.048.27-.516.576-1.015.882-1.513.126-.208.24-.419.374-.622.366-.562.769-1.099 1.18-1.636.102-.13.19-.266.295-.397.13-.165.285-.313.42-.473l6.612 6.572c.407.406.94.609 1.474.609.542 0 1.084-.207 1.496-.626a2.124 2.124 0 0 0-.017-2.988l-6.595-6.56c.088-.08.168-.165.256-.236.18-.148.374-.28.559-.423.491-.389.983-.774 1.5-1.12.15-.102.31-.19.466-.288.55-.355 1.104-.701 1.676-1.01.218-.118.445-.215.667-.325a22.918 22.918 0 0 1 1.563-.744c.328-.14.664-.245.996-.368.437-.165.873-.338 1.319-.477.445-.136.907-.241 1.365-.355.34-.085.68-.186 1.03-.258.524-.11 1.062-.178 1.595-.254.294-.038.584-.097.882-.127.526-.059 1.063-.071 1.597-.093.31-.012.613-.046.924-.046 4.96.089 9.628 1.314 13.749 3.905a2.084 2.084 0 0 0 2.894-.672 2.125 2.125 0 0 0-.668-2.912c-.139-.089-.29-.144-.433-.228-.046-.034-.075-.085-.126-.118a30.097 30.097 0 0 0-3.13-1.62c-.083-.033-.163-.058-.243-.092a28.344 28.344 0 0 0-3.486-1.256c-.223-.063-.45-.122-.673-.181a30.23 30.23 0 0 0-3.33-.69c-.22-.033-.43-.071-.643-.1-.273-.035-.538-.098-.811-.123a30.456 30.456 0 0 0-3.096-.14c-.034 0-.067-.004-.1-.004-.366.004-.723.05-1.089.063-.6.026-1.201.047-1.798.11-.378.038-.743.11-1.113.165-.617.089-1.23.173-1.835.3-.332.068-.66.165-.988.245-.63.157-1.256.309-1.873.503-.29.093-.567.207-.857.309a28.71 28.71 0 0 0-1.899.723c-.243.105-.479.228-.722.342-.643.296-1.277.6-1.899.943-.214.118-.412.253-.622.376-.63.367-1.251.74-1.856 1.158-.168.114-.328.25-.496.368-.542.388-1.088.773-1.609 1.2-.084.068-.155.148-.24.215-.033.03-.067.064-.1.093-5.209 4.434-8.7 10.394-10.006 17.063-.097.5-.151 1.015-.223 1.522-.067.457-.155.905-.201 1.365 0 .009.004.017 0 .026a29.82 29.82 0 0 0-.143 3.195 30.074 30.074 0 0 0 4.747 15.99 2.09 2.09 0 0 0 2.903.63 2.119 2.119 0 0 0 .625-2.921z"/>
        <g transform="translate(12.686 13.448)">
            <mask id="b" fill="#fff">
                <use xlink:href="#a"/>
            </mask>
            <path fill="#C8C6C6" d="M41.543 33.97c.19-.265.4-.521.576-.79.375-.555.707-1.135 1.035-1.711.156-.27.328-.53.475-.803.286-.534.53-1.089.783-1.635.155-.34.328-.677.47-1.026.194-.467.35-.946.518-1.42.155-.45.332-.896.47-1.35.114-.387.199-.782.295-1.177.143-.555.295-1.114.408-1.682.063-.328.097-.664.147-.996.101-.635.207-1.265.265-1.904.034-.35.038-.706.055-1.055.038-.622.08-1.24.076-1.867 0-.059.008-.117.008-.176-.004-.177-.038-.35-.042-.522-.017-.68-.03-1.357-.092-2.038-.026-.26-.085-.513-.118-.77-.059-.466-.13-.933-.21-1.4a29.501 29.501 0 0 0-.497-2.35c-.1-.407-.202-.81-.324-1.21a27.928 27.928 0 0 0-.866-2.459c-.135-.345-.256-.685-.404-1.021a30.112 30.112 0 0 0-1.303-2.573c-.118-.206-.202-.429-.324-.635-.013-.017-.03-.025-.042-.046-.05-.084-.089-.168-.14-.252a2.1 2.1 0 0 0-2.888-.698 2.106 2.106 0 0 0-.699 2.892c.16.26.282.538.43.803.407.719.786 1.446 1.118 2.198.13.295.236.597.358.896.269.69.525 1.387.736 2.097a27.48 27.48 0 0 1 .707 3.081c.062.387.13.774.176 1.165.1.824.168 1.652.189 2.484.004.177.021.353.021.53.004.584-.034 1.164-.067 1.74-.017.257-.017.513-.042.77a26.743 26.743 0 0 1-.24 1.757c-.042.248-.067.496-.114.74-.1.52-.24 1.034-.374 1.546-.076.303-.139.61-.227.908-.13.42-.286.829-.433 1.24-.139.383-.26.77-.417 1.148-.13.315-.286.622-.429.93-.21.457-.412.915-.647 1.357-.135.244-.286.48-.425.719-.278.487-.56.975-.875 1.446-.155.23-.332.454-.496.68-.324.455-.648.904-1.001 1.342-.1.117-.21.227-.311.349l-6.506-6.503a2.103 2.103 0 0 0-2.973 2.972l6.51 6.507c-.08.071-.16.147-.24.218-.438.362-.896.69-1.35 1.018-.223.164-.438.34-.669.491-.425.29-.87.547-1.312.808-.282.168-.56.348-.845.504-.379.202-.774.374-1.161.559-.375.177-.745.37-1.123.53-.32.13-.652.235-.976.357-.463.168-.925.349-1.4.492-.282.088-.577.147-.863.223-.525.143-1.047.285-1.585.39-.303.064-.614.097-.921.143-.517.085-1.035.173-1.56.227-.165.017-.329.017-.493.03-.942.076-1.88.076-2.813.05a26.819 26.819 0 0 1-1.746-.109 24.049 24.049 0 0 1-2.06-.286 23.8 23.8 0 0 1-1.792-.378 25.13 25.13 0 0 1-1.893-.576c-.584-.198-1.169-.4-1.74-.639a26.002 26.002 0 0 1-1.919-.933c-.685-.357-1.387-.69-2.04-1.11a2.103 2.103 0 0 0-2.284 3.531c.3.19.623.324.926.505.076.058.126.138.21.189.484.281.993.487 1.481.74.53.269 1.047.554 1.586.79.794.349 1.606.626 2.418.904.467.16.92.348 1.396.479 1.018.294 2.057.5 3.1.677.303.05.593.138.896.18a30.1 30.1 0 0 0 4.134.299h.046c.088 0 .177-.004.265-.004.378-.005.749-.047 1.123-.063.48-.021.963-.021 1.442-.068.055-.008.106-.02.16-.025.656-.063 1.3-.172 1.94-.282.319-.05.643-.084.954-.147.652-.13 1.287-.302 1.922-.475.311-.08.626-.147.933-.24.56-.167 1.107-.382 1.653-.584.375-.138.753-.256 1.119-.412.442-.18.866-.403 1.3-.61.454-.214.916-.415 1.358-.655.332-.176.648-.387.976-.58.517-.303 1.039-.605 1.54-.942.264-.18.508-.378.765-.567.534-.387 1.068-.77 1.577-1.19.265-.218.509-.462.77-.69.466-.42.941-.831 1.387-1.281.042-.046.089-.08.126-.122.312-.315.585-.656.88-.984.277-.31.571-.597.84-.92.034-.042.064-.089.097-.13.417-.505.787-1.035 1.165-1.56z" mask="url(#b)"/>
        </g>
    </g>
</svg>
