<svg xmlns="http://www.w3.org/2000/svg" xmlns:xlink="http://www.w3.org/1999/xlink" width="34" height="34" viewBox="0 0 34 34">
    <defs>
        <path id="a" d="M0 .825h25.924v26.104H0z"/>
    </defs>
    <g fill="none" fill-rule="evenodd">
        <path fill="#343434" d="M7.817 24.523l-4.453 4.453a.582.582 0 0 0 .412.997c.15 0 .299-.057.413-.171l4.453-4.453a.583.583 0 1 0-.825-.826M26.24 6.957c-.104.655-.385 1.7-1.157 2.472-.573.575-1.337.917-2.277 1.024.204-1.085.923-3.188 3.433-3.496m-4.68 4.097a.582.582 0 0 0 .584.604c1.575 0 2.845-.475 3.774-1.412 1.548-1.558 1.55-3.82 1.55-3.916a.585.585 0 0 0-.585-.58c-4.07 0-5.262 3.47-5.323 5.304M18.712 7.271c.39.536.93 1.474.932 2.567 0 .811-.298 1.593-.887 2.333-.624-.912-1.602-2.908-.045-4.9zm.015 6.392a.583.583 0 0 0 .412-.171c1.115-1.113 1.677-2.347 1.672-3.668-.01-2.196-1.607-3.796-1.675-3.863a.583.583 0 0 0-.822.003c-2.878 2.877-1.27 6.173-.014 7.514a.584.584 0 0 0 .416.185h.01zM23.197 15.414h-.003c-.81 0-1.592-.299-2.332-.887.908-.627 2.9-1.614 4.902-.045-.536.391-1.473.931-2.567.932m3.874-1.33c-2.876-2.876-6.172-1.268-7.514-.014a.585.585 0 0 0-.014.84c1.109 1.108 2.337 1.672 3.65 1.672h.018c2.196-.01 3.796-1.607 3.863-1.674a.585.585 0 0 0-.003-.824M9.419 15.198c.48.625 1.225 1.826 1.23 3.26.004 1.05-.394 2.059-1.187 3.006-.766-1.069-2.178-3.68-.043-6.266m.003 7.744h.01a.579.579 0 0 0 .413-.17c1.314-1.313 1.978-2.766 1.972-4.317-.01-2.59-1.894-4.475-1.975-4.554a.583.583 0 0 0-.822.004c-4.238 4.237-.056 8.807-.014 8.854a.58.58 0 0 0 .416.183M17.922 23.85c-.626.48-1.827 1.226-3.262 1.23h-.015c-1.042 0-2.046-.4-2.99-1.187 1.068-.765 3.681-2.177 6.267-.042m-3.277 2.397h.02c2.587-.01 4.474-1.895 4.554-1.975a.583.583 0 0 0-.004-.822c-4.236-4.235-8.808-.057-8.855-.014a.583.583 0 0 0-.013.839c1.308 1.308 2.754 1.972 4.298 1.972M14.073 11.226c.437.585 1.08 1.658 1.08 2.919.002.93-.347 1.824-1.037 2.668-.7-.99-1.898-3.287-.043-5.587zm.015 7.069a.583.583 0 0 0 .413-.171c1.213-1.213 1.826-2.556 1.82-3.992-.008-2.392-1.75-4.136-1.824-4.21a.583.583 0 0 0-.822.004c-3.135 3.135-1.38 6.725-.014 8.185a.58.58 0 0 0 .416.184h.01zM18.89 20.197h-.004c-.927 0-1.82-.349-2.661-1.037.993-.696 3.294-1.888 5.584-.044-.585.437-1.658 1.08-2.92 1.081m4.22-1.48c-3.135-3.136-6.722-1.379-8.184-.014a.592.592 0 0 0-.185.417.588.588 0 0 0 .17.422c1.21 1.21 2.546 1.823 3.976 1.823h.018c2.392-.01 4.136-1.75 4.209-1.825a.585.585 0 0 0-.004-.823"/>
        <g transform="translate(0 -.825)">
            <mask id="b" fill="#fff">
                <use xlink:href="#a"/>
            </mask>
            <path fill="#343434" d="M2.64 26.394a1.166 1.166 0 0 0 1.615.348 1.167 1.167 0 0 0 .347-1.614 14.216 14.216 0 0 1-2.266-7.59c-.007-.757.064-1.496.172-2.224.033-.224.056-.452.1-.674a14.2 14.2 0 0 1 3.126-6.436l3.669 3.629a1.17 1.17 0 0 0 1.652-.01 1.168 1.168 0 0 0-.01-1.651L7.379 6.547l.06-.055c.285-.24.586-.46.89-.678.075-.054.147-.113.223-.165.303-.208.619-.398.938-.582.08-.047.157-.098.238-.142.33-.183.674-.347 1.02-.505.074-.033.145-.07.219-.102.356-.154.723-.29 1.093-.413.07-.024.14-.053.21-.075.374-.12.757-.217 1.143-.306.073-.016.145-.04.218-.054.382-.08.773-.14 1.166-.19.082-.01.163-.026.245-.035.38-.041.766-.06 1.153-.07.099-.001.196-.012.295-.013.569-.008 1.135.035 1.696.097.282.03.557.08.833.128.33.056.657.122.98.203.253.062.505.126.752.2.434.134.862.29 1.282.465.125.053.256.092.38.149.593.267 1.169.57 1.724.917a1.166 1.166 0 1 0 1.238-1.98c-.077-.047-.162-.08-.24-.127-.026-.018-.041-.047-.07-.064a16.801 16.801 0 0 0-1.707-.881c-.12-.054-.243-.092-.363-.142a16.234 16.234 0 0 0-1.6-.578c-.254-.078-.51-.141-.768-.205a16.412 16.412 0 0 0-1.291-.268c-.282-.047-.561-.097-.845-.13-.091-.011-.18-.032-.271-.041-.581-.057-1.16-.08-1.736-.078L16.44.825c-.142 0-.28.02-.422.025-.407.014-.813.03-1.215.073-.13.014-.254.039-.383.056-.425.055-.846.117-1.264.205-.104.022-.205.053-.308.076-.432.1-.861.209-1.282.344-.087.027-.171.062-.257.09-.428.145-.852.3-1.267.479-.077.033-.15.073-.226.107-.413.186-.821.382-1.221.602-.077.042-.15.093-.226.136-.387.222-.77.452-1.141.707-.072.05-.138.106-.211.157-.32.227-.641.452-.948.704-.048.038-.088.083-.135.122l-.035.032C2.99 7.192 1.043 10.49.318 14.182c-.056.283-.086.574-.128.86-.035.247-.085.489-.11.739l.002.012A16.527 16.527 0 0 0 2.64 26.394" mask="url(#b)"/>
        </g>
        <path fill="#343434" d="M32.213 22.117c.09-.252.187-.502.265-.759.063-.212.11-.43.163-.646.081-.312.165-.624.227-.94.034-.182.054-.368.083-.55.056-.354.114-.706.147-1.063.018-.195.02-.39.031-.587.02-.345.042-.688.041-1.035 0-.033.003-.065.003-.098 0-.098-.019-.194-.022-.29-.01-.378-.016-.754-.052-1.133-.013-.145-.047-.283-.064-.426-.032-.263-.074-.52-.118-.78a17.044 17.044 0 0 0-.457-1.984 16.514 16.514 0 0 0-.473-1.346c-.078-.196-.148-.394-.233-.588a16.757 16.757 0 0 0-.718-1.414c-.066-.117-.115-.244-.183-.36-.007-.01-.018-.016-.025-.026-.027-.046-.047-.095-.074-.14a1.17 1.17 0 0 0-1.605-.388 1.167 1.167 0 0 0-.389 1.605c.09.145.157.3.24.448.224.4.437.803.621 1.222.071.162.131.331.196.495.152.384.292.772.41 1.168.057.19.107.384.156.578.095.373.173.751.237 1.132.036.215.072.43.098.648.056.457.092.917.103 1.38.003.098.014.196.014.294.001.325-.018.646-.039.97-.008.141-.008.283-.022.423-.03.331-.082.657-.136.982-.02.135-.035.272-.06.405-.057.292-.135.578-.209.865-.043.166-.077.336-.127.501-.07.234-.158.461-.24.691-.075.211-.143.426-.229.634-.073.177-.16.347-.24.52-.117.252-.229.507-.36.753-.072.135-.156.262-.232.395-.158.272-.314.545-.49.808-.084.126-.178.243-.266.366-.183.256-.366.511-.566.757-.054.066-.116.127-.172.192l-3.612-3.613a1.167 1.167 0 1 0-1.65 1.652L25.8 27.45c-.047.041-.09.084-.137.124-.237.196-.485.374-.732.554-.13.093-.255.195-.388.285-.229.155-.469.291-.706.432-.165.098-.326.204-.495.296-.2.107-.408.198-.612.296-.219.104-.434.214-.656.307-.165.068-.336.123-.503.185-.27.1-.54.205-.819.29-.138.041-.28.07-.42.107-.31.085-.623.17-.94.232-.143.028-.289.045-.433.07-.314.051-.628.104-.947.135-.08.008-.162.007-.242.014-.54.046-1.079.045-1.616.03a13.951 13.951 0 0 1-2.216-.239 15.038 15.038 0 0 1-.759-.16 14.663 14.663 0 0 1-1.277-.388c-.268-.095-.536-.187-.798-.298a14.365 14.365 0 0 1-1.152-.559c-.366-.193-.74-.37-1.089-.597a1.168 1.168 0 0 0-1.268 1.961c.165.106.345.182.513.282.042.033.07.078.118.105.265.155.546.27.817.408.295.152.586.311.888.444.434.191.88.344 1.326.497.265.09.523.195.792.271.558.16 1.125.271 1.696.37.175.031.344.08.52.105.757.106 1.522.166 2.293.166h.176c.218-.003.432-.028.65-.038.257-.013.514-.013.773-.038.031-.003.06-.009.091-.013.363-.036.721-.097 1.08-.156.174-.029.351-.048.525-.082.37-.073.731-.17 1.092-.269.163-.044.328-.078.488-.127.33-.099.648-.222.968-.342.19-.07.383-.132.57-.209.265-.11.522-.24.782-.367.231-.11.467-.214.693-.335.204-.11.4-.237.598-.356.27-.16.541-.315.801-.49.16-.109.312-.233.47-.347.282-.205.565-.408.834-.63.155-.129.3-.273.451-.408.253-.226.508-.448.747-.69.024-.024.05-.044.074-.067.174-.178.327-.369.492-.553.152-.17.315-.328.461-.505.02-.025.035-.05.055-.074.227-.278.433-.568.641-.858.108-.15.225-.295.327-.449.204-.304.386-.622.567-.938.09-.154.187-.303.27-.459.156-.292.291-.595.428-.896.09-.194.188-.385.27-.582.104-.255.19-.519.281-.78"/>
    </g>
</svg>
