<svg xmlns="http://www.w3.org/2000/svg" xmlns:xlink="http://www.w3.org/1999/xlink" width="60" height="60" viewBox="0 0 60 60">
    <defs>
        <path id="a" d="M.002.121h36.594V35.96H.002z"/>
        <path id="c" d="M.288.221H38.01v37.02H.288z"/>
    </defs>
    <g fill="none" fill-rule="evenodd">
        <path fill="#F23F28" d="M5.696 41.404c1.476-.667 3.19-1.05 5.05-1.24l8.15 8.104c-.346 1.605-.9 3.129-1.753 4.519L5.696 41.404zm13.706-1.321c.065 1.876.06 3.74-.104 5.539l-5.656-5.62c1.878-.04 3.821.012 5.76.081zM37.6 20.782l.026.607c.095 1.859.177 3.68.151 5.396L31.72 20.76c1.843-.107 3.825-.064 5.88.022zm15.748-3.383c-1.445.71-3.12 1.128-4.968 1.322l-8.248-8.203c.333-1.618.878-3.15 1.718-4.553L53.348 17.4zm-13.68 1.326c-.073-1.88-.073-3.74.083-5.547l5.72 5.693c-1.886.03-3.85-.051-5.803-.146zm-10.395 2.647l8.028 7.982c.082.082.2.074.299.125-.234 1.83-.74 3.447-1.675 4.768L24.54 22.93c1.25-.976 2.809-1.566 4.6-1.876.052.103.048.232.134.319zm-6.227 3.115l11.36 11.293c-1.22.92-2.735 1.493-4.466 1.82l-8.478-8.43c.225-1.787.701-3.379 1.584-4.683zm-1.575 13.504c-.013-.253-.022-.512-.035-.761-.09-1.786-.173-3.533-.151-5.194l5.928 5.895c-1.8.125-3.734.116-5.742.06zm.095 2.157c5.886.163 11.685-.01 15.142-3.448.018-.017.026-.038.044-.051.013-.013.03-.009.039-.017.017-.018.008-.048.026-.065 3.557-3.67 3.28-9.313 2.968-15.286-.004-.133-.008-.267-.017-.396 5.89.284 11.892.474 15.973-2.38.057-.038.126-.025.174-.073.03-.026.017-.069.043-.099.39-.288.779-.56 1.13-.903a1.071 1.071 0 0 0 0-1.524 1.094 1.094 0 0 0-1.533 0c-.108.112-.246.185-.359.288L43.14 4.205c.186-.21.33-.439.533-.641a1.071 1.071 0 0 0 0-1.524 1.08 1.08 0 0 0-1.528 0c-.459.457-.827.952-1.199 1.438-.013.013-.034.008-.047.021-.018.018-.013.052-.03.07-3.272 4.324-3.558 9.815-3.363 15.057-5.864-.254-11.663-.176-15.151 3.296-3.683 3.663-3.393 9.373-3.077 15.42l.026.58c-6.721-.236-13.624-.417-17.688 3.628a1.071 1.071 0 0 0 0 1.524c.208.21.485.314.762.314s.554-.103.766-.314c.2-.198.437-.34.658-.512l12.03 11.963c-.155.172-.272.366-.44.534a1.066 1.066 0 0 0 0 1.52c.211.21.488.318.765.318.273 0 .55-.108.762-.319 2.484-2.47 3.683-5.461 4.245-8.624 0-.009.005-.017.005-.026.445-2.543.484-5.186.398-7.78z"/>
        <g>
            <mask id="b" fill="#fff">
                <use xlink:href="#a"/>
            </mask>
            <path fill="#C8C6C6" d="M2.886 35.96a2.144 2.144 0 0 0 2.101-2.652 23.356 23.356 0 0 1-.661-5.544c0-5.733 2.097-10.981 5.564-15.05l7.069 7.017a2.18 2.18 0 0 0 3.057 0 2.136 2.136 0 0 0 0-3.034l-7.052-7A23.532 23.532 0 0 1 27.85 4.412c2.05 0 4.077.257 6.031.772a2.158 2.158 0 0 0 2.642-1.523 2.149 2.149 0 0 0-1.535-2.626A28.26 28.26 0 0 0 27.85.12C12.493.12.002 12.52.002 27.764c0 2.218.264 4.424.787 6.557a2.155 2.155 0 0 0 2.097 1.639" mask="url(#b)"/>
        </g>
        <g transform="translate(21.73 22.414)">
            <mask id="d" fill="#fff">
                <use xlink:href="#c"/>
            </mask>
            <path fill="#C8C6C6" d="M37.62 1.883C37.434.716 36.362.055 35.181.257c-1.176.18-1.963 1.429-1.786 2.6.195 1.283.29 2.6.29 3.905 0 6.381-2.313 12.226-6.149 16.775l-7.135-7.085a2.176 2.176 0 0 0-3.057 0 2.135 2.135 0 0 0 0 3.034l7.152 7.097c-4.623 3.957-10.63 6.368-17.198 6.368-1.496 0-3.01-.128-4.484-.377-1.176-.176-2.296.588-2.495 1.755a2.15 2.15 0 0 0 1.768 2.476c1.717.292 3.468.438 5.211.438 16.934 0 30.712-13.672 30.712-30.48 0-1.515-.113-3.043-.39-4.88" mask="url(#d)"/>
        </g>
    </g>
</svg>
