<svg xmlns="http://www.w3.org/2000/svg" xmlns:xlink="http://www.w3.org/1999/xlink" width="33" height="33" viewBox="0 0 33 33">
    <defs>
        <path id="a" d="M0 .78h19.767v19.506H0z"/>
        <path id="c" d="M.832.855h20.374V21H.832z"/>
    </defs>
    <g fill="none" fill-rule="evenodd">
        <path fill="#343434" d="M10.365 21.56c.037 1.02.033 2.03-.055 3.007l-3.05-3.05a55.845 55.845 0 0 1 3.105.043zm9.821-10.473l.015.328c.052 1.01.097 1.996.081 2.929l-3.269-3.27c.995-.058 2.064-.036 3.173.013zm8.501-1.835c-.78.386-1.685.61-2.682.715l-4.45-4.451c.18-.88.472-1.71.925-2.472l6.207 6.208zm-7.384.719a24.884 24.884 0 0 1 .044-3.011l3.09 3.089a50.324 50.324 0 0 1-3.134-.078zm-5.609 1.435l4.332 4.332c.044.045.108.04.161.067-.126.993-.399 1.872-.904 2.588L13.14 12.25c.673-.53 1.515-.848 2.481-1.02.028.059.025.127.073.175zm-3.359 1.69l6.13 6.13c-.658.498-1.475.809-2.41.987l-4.577-4.575c.121-.97.378-1.834.857-2.542zm-.852 7.33l-.019-.413a44.977 44.977 0 0 1-.08-2.82l3.201 3.203c-.974.066-2.018.062-3.102.03zm-8.513 1.85c.798-.36 1.721-.568 2.728-.67l4.396 4.397c-.187.872-.485 1.697-.946 2.452L2.97 22.277zm5.47 7.122c-.084.094-.147.198-.239.289a.584.584 0 0 0 .826.826c1.341-1.34 1.987-2.964 2.29-4.68 0-.006.003-.01.003-.016.241-1.38.262-2.813.213-4.22 3.18.088 6.31-.007 8.173-1.873.01-.01.015-.02.024-.03.006-.004.015-.002.021-.008.01-.01.006-.023.014-.034 1.92-1.991 1.77-5.053 1.603-8.297l-.01-.213c3.18.154 6.414.256 8.62-1.291.028-.02.068-.013.095-.04.015-.015.01-.04.023-.056.207-.154.42-.301.607-.49a.584.584 0 0 0-.826-.825c-.059.059-.133.099-.196.155L23.177 2.09c.1-.116.177-.24.287-.35a.584.584 0 0 0-.826-.825c-.248.248-.444.517-.648.782-.006.006-.016.004-.022.009-.01.01-.006.027-.015.037-1.767 2.347-1.92 5.327-1.819 8.174-3.163-.137-6.29-.096-8.174 1.787-1.989 1.989-1.83 5.088-1.66 8.369l.013.317c-3.626-.126-7.35-.227-9.546 1.967a.584.584 0 0 0 .826.826c.106-.106.237-.184.354-.28l6.493 6.495z"/>
        <g transform="translate(0 -.78)">
            <mask id="b" fill="#fff">
                <use xlink:href="#a"/>
            </mask>
            <path fill="#343434" d="M1.559 20.286a1.168 1.168 0 0 0 1.136-1.444 12.76 12.76 0 0 1-.36-3.018c0-3.119 1.135-5.976 3.007-8.19l3.819 3.82a1.164 1.164 0 0 0 1.651 0 1.168 1.168 0 0 0 0-1.653l-3.81-3.808a12.641 12.641 0 0 1 8.043-2.879c1.105 0 2.2.142 3.256.421a1.167 1.167 0 1 0 .597-2.258A15.106 15.106 0 0 0 15.045.78C6.749.78 0 7.53 0 15.824a15.1 15.1 0 0 0 .425 3.57c.13.534.608.893 1.134.892" mask="url(#b)"/>
        </g>
        <g transform="translate(11 11.22)">
            <mask id="d" fill="#fff">
                <use xlink:href="#c"/>
            </mask>
            <path fill="#343434" d="M19.68.871c-.637.097-1.062.778-.967 1.415.105.7.157 1.416.157 2.126 0 3.471-1.25 6.653-3.319 9.127l-3.855-3.854a1.168 1.168 0 0 0-1.652 1.651l3.863 3.863a14.183 14.183 0 0 1-9.289 3.465c-.813 0-1.627-.068-2.42-.205a1.168 1.168 0 1 0-.395 2.303A16.74 16.74 0 0 0 4.618 21c9.147 0 16.588-7.442 16.588-16.588 0-.826-.062-1.656-.21-2.653-.099-.636-.678-.987-1.317-.888" mask="url(#d)"/>
        </g>
    </g>
</svg>
