<svg xmlns="http://www.w3.org/2000/svg" width="21" height="28" fill="none" viewBox="0 0 21 28">
    <g fill="#F23F28" clip-path="url(#a)">
        <path d="M15.236 11.014c1.799-1.834 5.21-6.345 3.262-9.72-.943-1.634-2.88-1.387-3.701-1.038l.44.908s.834 2.819.562 4.476c-.175 1.07-.494 2.164-1.05 3.396l-.414.966c-1.755 4.366-4.544 8.5-8.714 12.147 3.314-4.555 5.094-8.832 7.184-14.642-1.618-2.092-5.087-2.76-8.703-1.048-6.63 3.138-3.037 17.208-3.81 21.15 2.291.107 11.291.361 17.475-4.954 6.184-5.315 2.464-12.147-2.53-11.64z"/>
        <path d="M13.182 8.08c-.024-.044-.05-.085-.076-.128l.076.128z"/>
    </g>
    <defs>
        <clipPath id="a">
            <path fill="#fff" d="M0 0h20.746v27.314H0z" transform="scale(1.01224)"/>
        </clipPath>
    </defs>
</svg>
