<svg width="52" height="52" viewBox="0 0 52 52" fill="none" xmlns="http://www.w3.org/2000/svg">
<path fill-rule="evenodd" clip-rule="evenodd" d="M16.0944 23.0818C16.07 18.8613 18.8311 15.0857 22.9192 13.753C23.932 13.4228 24.9776 13.2303 26.0392 13.2691C30.1532 13.4196 33.1647 15.3115 34.9933 18.965C35.7464 20.4695 35.9953 22.0886 35.8779 23.7657C35.7415 25.7123 35.0378 27.4343 33.8885 29.012C32.6575 30.7021 31.478 32.4289 30.2766 34.1401C29.0888 35.8321 27.9042 37.5262 26.7134 39.2161C26.2712 39.8435 25.7175 39.8312 25.2696 39.1933C23.3348 36.4372 21.3996 33.6814 19.4673 30.9236C18.7936 29.962 18.0891 29.0187 17.4676 28.0248C16.5256 26.5183 16.1036 24.8512 16.0944 23.0818ZM25.9974 18.4879C23.6058 18.489 21.6681 20.3957 21.6833 22.7617C21.6982 25.0658 23.5327 27.0122 26.0051 27.0121C28.4532 27.0121 30.3072 25.0799 30.3195 22.7541C30.3318 20.3898 28.3906 18.4867 25.9974 18.4879Z" fill="black"/>
<path d="M26 1C12.1929 1 1 12.1956 1 26.0061C1 39.8099 12.1874 51 25.9878 51H26.0122C39.8126 51 51 39.8099 51 26.0061C51 12.1956 39.8071 1 26 1Z" stroke="black" stroke-width="2" stroke-miterlimit="10"/>
</svg>
