<svg width="52" height="52" viewBox="0 0 52 52" fill="none" xmlns="http://www.w3.org/2000/svg">
<path d="M26 1C12.1929 1 1 12.1956 1 26.0061C1 39.8099 12.1874 51 25.9878 51H26.0122C39.8126 51 51 39.8099 51 26.0061C51 12.1956 39.8071 1 26 1Z" stroke="black" stroke-width="2" stroke-miterlimit="10"/>
<g clip-path="url(#clip0)">
<path fill-rule="evenodd" clip-rule="evenodd" d="M25.4853 16.0079C21.5261 16.0078 17.5669 16.0235 13.6078 15.9999C12.0971 15.991 11.221 17.0289 11.0483 18.0139C11.0132 18.2143 11.0055 18.4214 11.0053 18.6254C11.0023 23.4969 11.0031 28.3684 10.9995 33.2399C10.9991 33.7261 11.0306 34.2049 11.2642 34.6432C11.7397 35.535 12.4875 35.9975 13.5179 35.9982C14.3856 35.9989 15.2534 35.9995 16.1212 35.9994C23.2259 35.9992 30.3306 35.9976 37.4354 35.9999C38.5223 36.0002 39.3263 35.5362 39.7609 34.5607C39.9252 34.1919 39.9851 33.7515 39.9877 33.3431C40.0062 30.431 39.9975 27.5186 39.9974 24.6064C39.9974 22.5936 40.0007 20.5809 39.996 18.5681C39.9932 17.4144 39.3946 16.504 38.3732 16.1587C38.0482 16.0487 37.6827 16.015 37.3356 16.0142C33.3855 16.0045 29.4354 16.008 25.4853 16.0079ZM14.037 17.8003C21.7056 17.8003 29.2986 17.8003 36.8915 17.8003C36.8608 17.9036 36.797 17.9501 36.7387 18.0026C36.145 18.5374 35.5527 19.0737 34.959 19.6085C32.3374 21.9698 29.7183 24.3337 27.0898 26.6876C26.7911 26.9551 26.447 27.1765 26.1097 27.3984C25.7091 27.662 25.2862 27.6579 24.887 27.3969C24.5491 27.176 24.2063 26.9528 23.9076 26.6852C21.0924 24.163 18.286 21.6312 15.4775 19.1019C15.0128 18.6833 14.5495 18.2634 14.037 17.8003ZM21.616 27.418C21.9972 27.7577 22.3702 28.068 22.7179 28.4036C24.2395 29.8726 26.8351 29.8389 28.2926 28.3946C28.6341 28.0562 29.0104 27.7519 29.384 27.4201C31.8899 29.6829 34.3742 31.9262 36.8965 34.2038C29.2754 34.2038 21.7284 34.2038 14.1055 34.2038C16.6421 31.912 19.123 29.6705 21.616 27.418ZM12.8298 32.9605C12.8298 28.4097 12.8298 23.9308 12.8298 19.3998C15.3485 21.6463 17.8284 23.8585 20.3256 26.0858C17.8206 28.3833 15.3445 30.6542 12.8298 32.9605ZM38.1808 32.9689C35.6501 30.6475 33.1742 28.3765 30.6773 26.0863C33.1808 23.853 35.6585 21.6428 38.1808 19.3929C38.1808 23.942 38.1808 28.4153 38.1808 32.9689Z" fill="black"/>
</g>
<defs>
<clipPath id="clip0">
<rect width="29" height="20" fill="white" transform="matrix(-1 0 0 1 40 16)"/>
</clipPath>
</defs>
</svg>
