<svg width="38" height="38" viewBox="0 0 38 38" fill="none" xmlns="http://www.w3.org/2000/svg">
<circle cx="19" cy="19" r="19" fill="#444444"/>
<path fill-rule="evenodd" clip-rule="evenodd" d="M23.4692 11.4443H25.6932C26.272 11.4443 26.7542 11.8873 26.8022 12.4632L27.9151 25.7965C27.9691 26.4443 27.4571 26.9999 26.8061 26.9999H11.2262C10.5751 26.9999 10.0631 26.4443 10.1172 25.7965L11.23 12.4632C11.2781 11.8873 11.7603 11.4443 12.3391 11.4443H14.5664C14.5665 8.98979 16.5594 7 19.0178 7C21.4762 7 23.4691 8.98979 23.4692 11.4443ZM16.7921 11.4443C16.7922 10.2171 17.7886 9.22222 19.0178 9.22222C20.247 9.22222 21.2434 10.2171 21.2435 11.4443H16.7921ZM12.4375 24.7776H25.5985L24.6711 13.6665H13.3649L12.4375 24.7776Z" fill="white"/>
<mask id="mask0" mask-type="alpha" maskUnits="userSpaceOnUse" x="10" y="7" width="18" height="20">
<path fill-rule="evenodd" clip-rule="evenodd" d="M23.4692 11.4443H25.6932C26.272 11.4443 26.7542 11.8873 26.8022 12.4632L27.9151 25.7965C27.9691 26.4443 27.4571 26.9999 26.8061 26.9999H11.2262C10.5751 26.9999 10.0631 26.4443 10.1172 25.7965L11.23 12.4632C11.2781 11.8873 11.7603 11.4443 12.3391 11.4443H14.5664C14.5665 8.98979 16.5594 7 19.0178 7C21.4762 7 23.4691 8.98979 23.4692 11.4443ZM16.7921 11.4443C16.7922 10.2171 17.7886 9.22222 19.0178 9.22222C20.247 9.22222 21.2434 10.2171 21.2435 11.4443H16.7921ZM12.4375 24.7776H25.5985L24.6711 13.6665H13.3649L12.4375 24.7776Z" fill="white"/>
</mask>
<g mask="url(#mask0)">
<rect x="9" y="7" width="20.0312" height="20" fill="white"/>
</g>
</svg>
