<svg width="52" height="52" viewBox="0 0 52 52" fill="none" xmlns="http://www.w3.org/2000/svg">
<path d="M26 1C12.1929 1 1 12.1956 1 26.0061C1 39.8099 12.1874 51 25.9878 51H26.0122C39.8126 51 51 39.8099 51 26.0061C51 12.1956 39.8071 1 26 1Z" stroke="black" stroke-width="2" stroke-miterlimit="10"/>
<g clip-path="url(#clip0)">
<path fill-rule="evenodd" clip-rule="evenodd" d="M12 18.4843C12.0072 18.4793 12.0197 18.4754 12.0209 18.4692C12.1732 17.709 12.6887 17.1981 13.2246 16.6968C13.5389 16.4027 13.8368 16.091 14.1398 15.7848C15.061 14.8538 16.1458 14.6096 17.3739 15.04C18.4946 15.4328 19.2344 16.2123 19.5673 17.3509C19.8701 18.3867 20.1647 19.4262 20.4165 20.4753C20.6871 21.6027 20.4309 22.6167 19.6141 23.4639C19.3031 23.7865 18.9855 24.1032 18.6617 24.4131C18.5459 24.524 18.5113 24.625 18.5613 24.7827C19.9497 29.1655 22.8363 32.0484 27.2143 33.4442C27.37 33.4939 27.4732 33.458 27.5843 33.3414C27.8872 33.0233 28.1972 32.7113 28.5148 32.4076C29.3846 31.5761 30.4166 31.3123 31.5744 31.6019C32.6383 31.8681 33.6981 32.1543 34.7492 32.4668C36.5475 33.0016 37.8352 35.2013 36.7904 37.1426C36.6797 37.3482 36.5326 37.5422 36.3702 37.7107C35.8702 38.2295 35.342 38.7216 34.8494 39.2471C34.5356 39.5818 34.1638 39.7851 33.7318 39.9032C33.6402 39.9283 33.5525 39.9674 33.4629 40C32.9356 40 32.4083 40 31.8809 40C31.8145 39.9848 31.7488 39.9634 31.6816 39.9556C31.0105 39.8771 30.3333 39.8345 29.6687 39.7187C24.5405 38.8253 20.2661 36.4119 16.9146 32.4255C14.2356 29.239 12.6649 25.5527 12.1513 21.4191C12.0976 20.9862 12.0503 20.5525 12 20.1191C12 19.5742 12 19.0292 12 18.4843Z" fill="black"/>
<path fill-rule="evenodd" clip-rule="evenodd" d="M26.502 13C26.9682 13.0691 27.4367 13.1255 27.9003 13.2093C30.5455 13.6872 32.8492 14.8521 34.7952 16.7025C36.9635 18.7642 38.2977 21.282 38.8171 24.2288C38.8913 24.6496 38.9397 25.0749 39.0001 25.498C39.0001 25.832 39.0001 26.166 39.0001 26.5C38.4475 26.5 37.895 26.5 37.3176 26.5C37.2524 23.2546 36.1275 20.4505 33.8355 18.1605C31.5488 15.8758 28.7542 14.7485 25.5 14.6834C25.5 14.1171 25.5 13.5586 25.5 13C25.834 13 26.1679 13 26.502 13Z" fill="black"/>
<path fill-rule="evenodd" clip-rule="evenodd" d="M33.9189 26.4901C33.3586 26.4901 32.8165 26.4901 32.2528 26.4901C32.2045 24.6425 31.5661 23.0433 30.257 21.736C28.953 20.4339 27.3616 19.7965 25.5099 19.7481C25.5099 19.1908 25.5099 18.6424 25.5098 18.094C29.7622 17.8941 34.0195 21.6758 33.9189 26.4901Z" fill="black"/>
<path fill-rule="evenodd" clip-rule="evenodd" d="M25.5015 24.8003C25.5015 24.2387 25.5015 23.6966 25.5015 23.1556C27.156 23.0029 28.9581 24.6111 28.8529 26.4857C28.3043 26.4857 27.7546 26.4857 27.2058 26.4857C26.9904 25.3893 26.5545 24.9548 25.5015 24.8003Z" fill="black"/>
</g>
<defs>
<clipPath id="clip0">
<rect width="27" height="27" fill="white" transform="translate(12 13)"/>
</clipPath>
</defs>
</svg>
