<svg xmlns="http://www.w3.org/2000/svg" xmlns:xlink="http://www.w3.org/1999/xlink" width="13" height="12" viewBox="0 0 13 12">
    <defs>
        <path id="a" d="M9.203 2.077a.72.72 0 1 0 0 1.439.72.72 0 0 0 0-1.439M6 8a2 2 0 1 1 0-4 2 2 0 0 1 0 4M6 2.92a3.081 3.081 0 1 0 0 6.163 3.081 3.081 0 0 0 0-6.163M6 0C4.37 0 4.166.007 3.526.035c-.639.03-1.075.132-1.456.28-.395.153-.73.358-1.063.692-.334.334-.54.668-.692 1.062-.148.382-.25.818-.28 1.457C.008 4.166 0 4.37 0 6c0 1.63.007 1.834.036 2.474.03.639.13 1.075.28 1.456.152.395.357.73.691 1.063.334.334.668.54 1.063.692.381.148.817.25 1.456.28.64.028.845.035 2.474.035 1.63 0 1.834-.007 2.474-.036.639-.03 1.075-.13 1.457-.28.394-.152.729-.357 1.062-.691a2.94 2.94 0 0 0 .692-1.063c.148-.381.25-.817.279-1.456.03-.64.036-.845.036-2.474 0-1.63-.007-1.834-.036-2.474-.029-.639-.13-1.075-.279-1.457a2.938 2.938 0 0 0-.692-1.062A2.934 2.934 0 0 0 9.931.315c-.382-.148-.818-.25-1.457-.28C7.834.007 7.63 0 6 0m0 1.081c1.603 0 1.792.006 2.425.035.585.027.902.124 1.114.207.28.108.48.238.69.448.21.21.34.41.448.69.083.212.18.53.207 1.114.029.633.035.822.035 2.425 0 1.602-.006 1.791-.035 2.425-.027.584-.124.902-.207 1.113-.108.28-.238.48-.448.69-.21.21-.41.34-.69.449-.212.082-.53.18-1.114.207-.633.029-.822.035-2.425.035-1.602 0-1.791-.006-2.424-.035-.585-.027-.903-.125-1.114-.207a1.853 1.853 0 0 1-.69-.448c-.21-.21-.34-.41-.449-.69-.082-.212-.18-.53-.207-1.114C1.087 7.79 1.08 7.602 1.08 6c0-1.603.006-1.792.035-2.425.027-.585.125-.902.207-1.114.109-.28.238-.48.449-.69.21-.21.41-.34.69-.448.21-.083.529-.18 1.114-.207.633-.029.822-.035 2.424-.035"/>
    </defs>
    <g fill="none" fill-rule="evenodd" transform="translate(.65)">
        <mask id="b" fill="#fff">
            <use xlink:href="#a"/>
        </mask>
        <use fill="#000" xlink:href="#a"/>
        <g fill="#FFF" mask="url(#b)">
            <path d="M0 0h12v12H0z"/>
        </g>
    </g>
</svg>
