<svg xmlns="http://www.w3.org/2000/svg" xmlns:xlink="http://www.w3.org/1999/xlink" width="60" height="60" viewBox="0 0 60 60">
    <defs>
        <path id="a" d="M0 .12h59.978v59.826H0z"/>
    </defs>
    <g fill="none" fill-rule="evenodd">
        <mask id="b" fill="#fff">
            <use xlink:href="#a"/>
        </mask>
        <path fill="#C8C6C6" d="M28.748 59.921a29.807 29.807 0 0 1-12.106-3.095 2.103 2.103 0 0 1-.95-2.822 2.11 2.11 0 0 1 2.829-.948 25.749 25.749 0 0 0 10.4 2.658c14.259.623 26.225-10.458 26.812-24.617.287-6.861-2.124-13.419-6.785-18.468-4.662-5.054-11.017-7.99-17.89-8.276-6.892-.266-13.453 2.122-18.52 6.768-5.063 4.65-8.01 10.988-8.293 17.845A25.495 25.495 0 0 0 8.04 43.504a2.109 2.109 0 0 1-3.59 2.211A29.668 29.668 0 0 1 .028 28.793c.329-7.981 3.762-15.36 9.656-20.772 5.89-5.408 13.567-8.2 21.552-7.876 8.001.333 15.394 3.753 20.82 9.632 5.426 5.875 8.23 13.511 7.896 21.497-.667 16.059-13.98 28.672-29.95 28.672-.417 0-.835-.008-1.253-.025z" mask="url(#b)"/>
        <path fill="#F23F28" d="M11.101 55.063a1.052 1.052 0 0 1-1.056-1.039c-.16-11.079 7.227-15.489 7.544-15.67a1.068 1.068 0 0 1 1.381.29c.025.03 2.222 2.971 5.994 3.523 2.8.412 5.828-.585 8.954-2.954 7.18-5.424 8.553-14.1 8.177-19.575-3.506 2.794-6.974 3.123-10.61 3.472-2.699.26-5.495.526-8.532 1.864-5.719 2.512-5.8 6.665-5.394 8.807 2.45-1.734 8.156-5.016 15.214-3.972.579.084.976.618.891 1.195-.084.572-.612.98-1.2.883-8.27-1.203-14.715 4.401-14.778 4.456a1.054 1.054 0 0 1-1.668-.362c-.038-.088-3.662-8.647 6.082-12.93 3.35-1.477 6.45-1.772 9.182-2.037 3.95-.374 7.362-.702 10.868-4.262a1.073 1.073 0 0 1 1.068-.27c.38.118.663.442.727.83 1.182 6.934-.402 17.272-8.748 23.58-3.61 2.726-7.163 3.862-10.576 3.35-3.345-.497-5.626-2.454-6.686-3.573-1.719 1.325-5.892 5.365-5.778 13.33a1.054 1.054 0 0 1-1.043 1.064h-.013z" mask="url(#b)"/>
    </g>
</svg>
