<svg xmlns="http://www.w3.org/2000/svg" xmlns:xlink="http://www.w3.org/1999/xlink" width="34" height="34" viewBox="0 0 34 34">
    <defs>
        <path id="a" d="M0 .824h33.174V34H0z"/>
    </defs>
    <g fill="none" fill-rule="evenodd">
        <g transform="translate(0 -.824)">
            <mask id="b" fill="#fff">
                <use xlink:href="#a"/>
            </mask>
            <path fill="#343434" d="M17.274.84C12.841.65 8.614 2.207 5.355 5.207A16.48 16.48 0 0 0 .014 16.724a16.503 16.503 0 0 0 2.448 9.386 1.166 1.166 0 1 0 1.986-1.227 14.174 14.174 0 0 1-2.1-8.061 14.162 14.162 0 0 1 4.587-9.896c2.802-2.578 6.415-3.904 10.243-3.754 7.852.326 13.974 6.98 13.649 14.831-.326 7.852-6.988 13.948-14.83 13.648a14.14 14.14 0 0 1-5.752-1.473 1.168 1.168 0 0 0-1.04 2.092A16.474 16.474 0 0 0 16.596 34c8.832 0 16.195-6.994 16.564-15.9C33.539 8.96 26.413 1.217 17.274.84" mask="url(#b)"/>
        </g>
        <path fill="#343434" d="M18.79 21.712c-1.731 1.315-3.397 1.863-4.954 1.637-2.085-.305-3.3-1.936-3.311-1.952a.586.586 0 0 0-.766-.162c-.174.101-4.258 2.548-4.17 8.699a.583.583 0 0 0 .584.575h.008a.584.584 0 0 0 .576-.593c-.064-4.418 2.244-6.66 3.195-7.397.586.621 1.848 1.706 3.697 1.982 1.886.285 3.85-.343 5.848-1.859 4.613-3.5 5.488-9.238 4.837-13.086a.583.583 0 0 0-.993-.313c-1.94 1.978-3.825 2.159-6.01 2.369-1.512.145-3.226.309-5.08 1.128-5.385 2.378-3.381 7.129-3.361 7.177a.585.585 0 0 0 .924.201c.035-.031 3.577-3.152 8.172-2.471a.584.584 0 1 0 .171-1.156c-3.905-.577-7.06 1.241-8.412 2.204-.226-1.189-.181-3.492 2.979-4.887 1.68-.742 3.225-.89 4.719-1.034 2.013-.193 3.929-.376 5.867-1.927.209 3.039-.55 7.855-4.52 10.865"/>
    </g>
</svg>
