<svg width="230" height="22" viewBox="0 0 230 22" fill="none" xmlns="http://www.w3.org/2000/svg">
<g clip-path="url(#clip0)">
<path d="M0 15.8757C1.08908 15.8757 4.72119 15.8659 5.08496 15.8659C5.08496 17.6841 7.39883 18.7664 13.8699 18.7664C19.4465 18.7664 21.4901 17.7818 21.4901 16.0917C21.4901 11.893 0.0967821 17.4279 0.0967821 8.95993C0.0967821 5.32458 4.5432 3.87109 12.1167 3.87109C17.3084 3.87109 25.6895 4.12944 25.6895 9.3366H25.506H21.529C21.529 6.88662 16.058 6.80304 12.4282 6.80304C6.70689 6.80304 5.02488 7.52924 5.04825 8.93822C5.02488 13.3009 26.6596 7.7192 26.6596 16.1166C26.6596 20.3154 21.9239 21.6983 13.5339 21.6983C7.16299 21.6994 0 21.2641 0 15.8757Z" fill="black"/>
<path d="M61.2421 7.62584H49.2223V20.996H44.4154V7.62584H32.3955V4.57666H61.2421V7.62584Z" fill="black"/>
<path d="M85.8313 17.0078H71.265L68.3082 20.996H62.2031L75.5435 4.57666H81.5529L94.8932 20.996H88.7882L85.8313 17.0078ZM83.5731 13.9587L78.8608 7.57807H78.2356L73.5244 13.9587H83.5731Z" fill="black"/>
<path d="M123.234 20.996L116.528 14.9182L107.875 14.8944V20.996H103.188V4.57666H120.375C124.752 4.57666 128.164 6.21903 128.164 9.61991C128.164 12.998 125.278 14.7077 121.41 14.8954L128.646 20.9971L123.234 20.996ZM107.874 11.7312H120.134C121.914 11.7312 123.261 11.2384 123.261 9.61991C123.261 8.35312 122.033 7.62584 120.134 7.62584H107.874V11.7312Z" fill="black"/>
<path d="M176.115 4.57666H180.803V20.996H176.115V4.57666Z" fill="black"/>
<path d="M217.942 7.62584H205.923V20.996H201.115V7.62584H189.095V4.57666H217.942V7.62584V7.62584Z" fill="black"/>
<path d="M148.722 15.4462L140.397 4.58789H134.169L146.159 18.8297L148.722 15.4462Z" fill="black"/>
<path d="M161.598 4.56494L149.064 21.0081H154.003L167.823 4.58774L161.598 4.56494Z" fill="black"/>
<path d="M230 3.78406C230 5.92902 228.288 7.61046 226.088 7.61046C223.889 7.61046 222.2 5.92902 222.2 3.80577C222.2 1.68144 223.892 0 226.111 0C228.331 0 230 1.63911 230 3.78406ZM229.482 3.78406C229.482 1.90831 228.057 0.48522 226.112 0.48522C224.168 0.48522 222.72 1.95173 222.72 3.80577C222.72 5.65981 224.168 7.12632 226.089 7.12632C228.012 7.12524 229.482 5.65981 229.482 3.78406ZM227.161 4.44188L228.166 5.96158H227.401L226.485 4.58191H226.298H225.282V5.96158H224.529V1.64996H226.298C227.401 1.64996 228.088 2.22094 228.088 3.11539C228.089 3.77321 227.747 4.23672 227.161 4.44188ZM227.358 3.11539C227.358 2.56613 226.951 2.26327 226.243 2.26327H225.272V3.97728H226.243C226.951 3.97837 227.358 3.66466 227.358 3.11539Z" fill="black"/>
</g>
<defs>
<clipPath id="clip0">
<rect width="230" height="21.6981" fill="white"/>
</clipPath>
</defs>
</svg>
