<svg xmlns="http://www.w3.org/2000/svg" xmlns:xlink="http://www.w3.org/1999/xlink" width="60" height="60" viewBox="0 0 60 60">
    <defs>
        <path id="a" d="M0 .227h43.09v50.726H0z"/>
        <path id="c" d="M.05.119h39.903v45.933H.05z"/>
    </defs>
    <g fill="none" fill-rule="evenodd">
        <g>
            <mask id="b" fill="#fff">
                <use xlink:href="#a"/>
            </mask>
            <path fill="#C8C6C6" d="M0 29.24c-.004.155.012.31.012.464-.004.415.008.827.02 1.242.012.285 0 .57.016.854.012.127.02.246.028.372.008.178.044.356.06.534.036.345.08.689.124 1.033.04.313.052.621.104.934 0 .012.012.023.012.04l.056.351.012.091c.028.15.08.293.108.443.144.736.288 1.472.488 2.208.04.142.1.273.14.42.168.581.384 1.15.584 1.724.2.558.388 1.116.62 1.658.24.574.528 1.128.808 1.681.252.515.5 1.029.784 1.524.312.542.664 1.06 1.012 1.582.32.483.633.973.98 1.436.093.119.16.25.253.368.04.055.108.075.156.123.52.664 1.036 1.337 1.608 1.954a2.13 2.13 0 0 0 1.564.677c.512 0 1.032-.186 1.436-.554.865-.791.92-2.12.12-2.971a24.751 24.751 0 0 1-1.72-2.093c-.304-.404-.58-.835-.86-1.258-.292-.443-.596-.883-.86-1.345-.244-.424-.452-.863-.672-1.298-.244-.483-.488-.961-.7-1.456-.2-.467-.36-.946-.532-1.424-.176-.49-.352-.977-.5-1.48a25.789 25.789 0 0 1-.529-2.211c-.036-.174-.088-.349-.12-.523-.064-.4-.096-.803-.148-1.202-.06-.499-.128-.993-.164-1.488-.008-.123-.004-.25-.008-.372-.036-.72-.052-1.44-.032-2.148.004-.115.02-.23.028-.344a25.5 25.5 0 0 1 .196-2.224c.012-.09.036-.182.048-.273.112-.747.248-1.491.424-2.215.024-.095.056-.186.08-.277.184-.72.389-1.428.633-2.124.02-.06.048-.115.072-.175.024-.083.064-.166.096-.249.236-.633.484-1.262.764-1.871.04-.083.088-.162.128-.241.044-.103.104-.198.152-.301.276-.558.556-1.116.872-1.654.004-.008.012-.016.016-.024a25.793 25.793 0 0 1 2.652-3.679l10.93 10.73c.412.407.956.609 1.496.609.553 0 1.093-.206 1.509-.617a2.092 2.092 0 0 0-.008-2.976l-10.886-10.69c.208-.17.384-.383.596-.55.216-.173.44-.335.664-.502a25.605 25.605 0 0 1 3.813-2.35.396.396 0 0 0 .06-.035c.068-.032.144-.056.208-.087a26.132 26.132 0 0 1 4.537-1.69l.064-.023c.088-.024.184-.036.272-.06.9-.23 1.812-.391 2.724-.522a25.311 25.311 0 0 1 1.82-.186A29.795 29.795 0 0 1 30 4.44h.16c.557 0 1.105.03 1.657.066.648.04 1.296.087 1.94.174.556.08 1.105.19 1.657.305.64.13 1.28.27 1.916.447.948.273 1.896.562 2.816.942 1.085.443 2.325-.056 2.777-1.128a2.09 2.09 0 0 0-1.136-2.75c-.156-.063-.32-.094-.476-.158-.052-.023-.084-.067-.14-.09-.589-.226-1.193-.396-1.789-.586-.068-.028-.116-.075-.18-.095-.132-.044-.28-.06-.416-.099-.032-.008-.068-.024-.104-.036-.044-.011-.072-.047-.112-.055-.072-.024-.148-.032-.216-.051-.184-.052-.368-.107-.556-.155-.12-.031-.244-.047-.368-.079-.384-.095-.776-.166-1.164-.245-.36-.075-.724-.17-1.092-.23-.036-.004-.068-.015-.1-.023a.144.144 0 0 1-.04-.008c-.373-.06-.745-.087-1.117-.13-.308-.04-.612-.064-.916-.092-.372-.035-.744-.087-1.112-.11-.276-.012-.548-.02-.82-.024-.336-.012-.668.008-1 .012H29.925c-.284 0-.564-.016-.848-.008-.184.008-.369.015-.553.027-.104.004-.204-.004-.304 0-.368.028-.72.091-1.084.127-.348.036-.692.067-1.036.115-.204.027-.408.027-.612.059-.052.008-.096.024-.148.032-.096.016-.2.027-.296.047H25c-.352.063-.688.162-1.036.234-.048.011-.1.02-.152.031-.48.103-.965.19-1.437.313-.02.004-.036.004-.056.012-.004 0-.008 0-.012.004l-.188.047c-.376.103-.74.245-1.116.36-.5.158-1.004.3-1.488.483-.032.012-.06.02-.092.031l-.004.004-.056.02c-.392.147-.764.325-1.14.487-.472.198-.952.387-1.413.613a1.266 1.266 0 0 0-.104.051c-.396.194-.772.42-1.156.63-.428.233-.86.454-1.276.708l-.164.095c-.376.237-.732.506-1.104.76-.368.252-.752.49-1.108.763a7.822 7.822 0 0 0-.22.162c-.276.214-.533.455-.8.676a11.96 11.96 0 0 0-.429.356c-.252.218-.524.42-.772.653-.088.075-.172.155-.256.23-.172.166-.336.352-.504.522-.264.257-.52.522-.776.791-.172.186-.356.352-.524.538-.076.091-.16.178-.24.273-.172.198-.324.412-.492.613a32.51 32.51 0 0 0-.576.72c-.172.222-.364.424-.528.65-.02.027-.032.05-.048.074-.06.084-.12.163-.176.242-.02.027-.044.051-.064.079-.233.328-.425.676-.645 1.009-.264.407-.548.807-.792 1.222-.012.024-.028.04-.04.06-.016.027-.024.055-.04.079-.22.38-.404.771-.604 1.155-.24.455-.488.902-.7 1.365-.012.028-.028.055-.04.083-.18.396-.324.8-.484 1.195-.192.478-.396.945-.564 1.428a.514.514 0 0 1-.036.11c-.132.4-.236.808-.352 1.207-.14.479-.292.954-.412 1.444-.016.06-.032.123-.04.182-.096.396-.152.8-.224 1.195-.088.479-.192.95-.26 1.428l-.036.281c-.032.27-.04.542-.068.811-.024.226-.036.451-.056.673-.024.368-.072.728-.088 1.096L0 29.24" mask="url(#b)"/>
        </g>
        <g transform="translate(20 13.944)">
            <mask id="d" fill="#fff">
                <use xlink:href="#c"/>
            </mask>
            <path fill="#C8C6C6" d="M33.251 5.203c.28.605.585 1.194.821 1.82.128.337.232.684.344 1.026.156.474.313.951.44 1.429.089.326.149.656.225.983.116.525.232 1.046.316 1.568.044.278.068.557.104.836.072.58.14 1.162.168 1.743.012.219.012.438.016.656.02.637.028 1.278-.004 1.91-.008.168-.02.335-.032.502a26.09 26.09 0 0 1-.208 2.018c-.02.14-.048.279-.072.422a24.85 24.85 0 0 1-.408 2.026c-.036.143-.08.282-.12.425a23.868 23.868 0 0 1-.593 1.955c-.052.147-.112.29-.168.437a24.103 24.103 0 0 1-.713 1.728 26.556 26.556 0 0 1-2.126 3.753c-.144.21-.272.433-.424.64-.4.557-.897 1.027-1.333 1.548L17.92 21.138a2.13 2.13 0 0 0-3.007 0 2.107 2.107 0 0 0 0 2.99L26.49 35.629c-.809.677-1.61 1.361-2.498 1.938-.144.092-.277.2-.425.291a26.451 26.451 0 0 1-4.155 2.081c-.157.06-.305.132-.46.191-.63.235-1.27.387-1.907.57-.696.207-1.385.437-2.086.58-.596.12-1.193.164-1.793.243-.725.096-1.454.22-2.182.251-.633.032-1.265-.02-1.898-.036-.7-.02-1.401-.008-2.102-.083-.644-.072-1.285-.223-1.926-.343-.768-.143-1.541-.246-2.302-.457a2.126 2.126 0 0 0-2.622 1.46 2.105 2.105 0 0 0 1.47 2.607c.147.044.303.056.456.096.048.016.08.051.132.067.76.195 1.525.303 2.29.438.448.08.889.2 1.337.259 1.285.167 2.57.259 3.856.263.032 0 .068.007.104.007h.008c1.67 0 3.335-.159 4.984-.437.1-.016.208-.024.309-.04a30.89 30.89 0 0 0 4.704-1.262c.104-.036.212-.047.32-.083.08-.032.156-.072.24-.104.108-.04.22-.067.325-.107.456-.175.88-.39 1.32-.581.385-.171.782-.33 1.162-.514.572-.282 1.125-.6 1.678-.915.304-.171.612-.326.9-.51.673-.41 1.314-.863 1.942-1.325.152-.107.304-.203.449-.31a29.715 29.715 0 0 0 7.55-8.45c.04-.067.089-.13.129-.198.396-.673.752-1.373 1.1-2.082.093-.183.189-.362.273-.55.072-.146.156-.278.22-.425.24-.541.428-1.09.633-1.636.08-.21.168-.421.244-.632.256-.729.472-1.465.672-2.21.053-.182.105-.365.153-.552.192-.769.34-1.549.468-2.329.028-.17.064-.342.092-.51.112-.78.184-1.563.232-2.343.016-.195.036-.39.044-.581a29.55 29.55 0 0 0 .008-2.229c-.008-.255-.008-.505-.02-.76a28.22 28.22 0 0 0-.2-2.01c-.04-.334-.068-.669-.124-1.003-.092-.589-.224-1.17-.352-1.755-.088-.41-.172-.824-.28-1.234-.137-.51-.309-1.015-.469-1.52-.124-.366-.212-.74-.344-1.106-.032-.08-.076-.152-.108-.231-.036-.112-.064-.223-.108-.33-.229-.582-.541-1.119-.801-1.684-.28-.593-.5-1.214-.809-1.783-.028-.048-.072-.076-.1-.12-.072-.13-.12-.282-.2-.413-.577-1.02-1.878-1.365-2.895-.796a2.106 2.106 0 0 0-.797 2.881c.349.617.617 1.282.921 1.93" mask="url(#d)"/>
        </g>
        <path fill="#F23F28" d="M17.73 52.72c-.052-.934-1.064-5.024-2.02-4.973-.952.05-1.492 4.23-1.44 5.16.052.933.872 1.648 1.828 1.597.956-.054 1.688-.851 1.632-1.785M22.11 37.032a.407.407 0 0 0-.109.313l.06 1.118a.43.43 0 0 0 .46.41l1.117-.06a.428.428 0 0 0 .296-.145l8.866-9.936-3.457.197-7.234 8.103z"/>
        <path fill="#F23F28" d="M25.197 39.265a2.596 2.596 0 0 1-1.785.86l-1.597.115a.849.849 0 0 0-.593.284l-3.25 3.653a.685.685 0 0 1-.928.028.696.696 0 0 1-.032-.931l2.832-3.226a.876.876 0 0 0 .219-.623l.31-2.027a2.58 2.58 0 0 1 .654-1.878l14.496-16.264 4.17 3.741-14.496 16.268zm10.756-24.55a1.823 1.823 0 0 0-2.58.148 1.835 1.835 0 0 0 .143 2.59l.72.648L19.74 34.369a4.319 4.319 0 0 0-1.09 3.125l-.331 1.667-2.593 2.958c-.76.86-.689 2.61.167 3.377.414.372 1.211.66 1.924.528.55-.1 1.067-.276 1.442-.692l3.01-3.385 1.239-.092a4.277 4.277 0 0 0 2.97-1.435L40.98 24.148l.721.648a1.823 1.823 0 0 0 2.58-.144 1.847 1.847 0 0 0-.143-2.594l-1.82-1.63 6.508-7.3a3.068 3.068 0 0 0-.243-4.32 3.041 3.041 0 0 0-4.305.24l-6.504 7.302-1.82-1.635z"/>
    </g>
</svg>
