<svg width="22" height="23" viewBox="0 0 22 23" fill="none" xmlns="http://www.w3.org/2000/svg">
<path fill-rule="evenodd" clip-rule="evenodd" d="M15.0275 20.7413V19.2946H16.3865L15.0275 20.7413ZM1.59422 20.919V5.05586C1.59422 4.77667 1.77717 4.54824 2.01238 4.54824H16.9876C17.2226 4.54824 17.4058 4.77667 17.4058 5.05586V17.4672C17.4058 17.5687 17.4058 17.67 17.3796 17.7718H14.2435C13.7992 17.7718 13.4594 18.1271 13.4594 18.5332V21.452H2.01238C1.77717 21.4266 1.59422 21.1982 1.59422 20.919ZM16.9876 3H2.01238C0.914718 3 0 3.91372 0 5.05586V20.9444C0 22.0865 0.888583 23 2.01238 23H13.7208C14.5832 23 15.4195 22.6449 16.0206 22.0104L18.0853 19.8274C18.6864 19.1928 19 18.3809 19 17.4926V5.05586C19 3.91372 18.0853 3 16.9876 3Z" fill="#F23F28"/>
<path fill-rule="evenodd" clip-rule="evenodd" d="M3.78627 8H15.2137C15.659 8 16 7.76667 16 7.5C16 7.23333 15.6328 7 15.2137 7H3.78627C3.34072 7 3 7.23333 3 7.5C3 7.76667 3.34072 8 3.78627 8Z" fill="#F23F28"/>
<path fill-rule="evenodd" clip-rule="evenodd" d="M3.78627 12H15.2137C15.659 12 16 11.7667 16 11.5C16 11.2333 15.6328 11 15.2137 11H3.78627C3.34072 11 3 11.2333 3 11.5C3 11.7667 3.34072 12 3.78627 12Z" fill="#F23F28"/>
<path fill-rule="evenodd" clip-rule="evenodd" d="M15.2121 16C15.6586 16 16 15.7667 16 15.5C16 15.2332 15.6326 15 15.2121 15H3.78788C3.34141 15 3 15.2332 3 15.5C3 15.7667 3.36768 16 3.78788 16H15.2121Z" fill="#F23F28"/>
<mask id="mask0" mask-type="alpha" maskUnits="userSpaceOnUse" x="3" y="0" width="19" height="17">
<path fill-rule="evenodd" clip-rule="evenodd" d="M3.23047 0.224609H21.8715V16.8931H3.23047V0.224609Z" fill="white"/>
</mask>
<g mask="url(#mask0)">
<path fill-rule="evenodd" clip-rule="evenodd" d="M19.8928 0.224609H4.97907C4.27634 0.224609 3.62565 0.599609 3.28729 1.17461C3.13139 1.42461 3.31332 1.72461 3.62565 1.72461H4.97907H6.54072H19.8928C20.127 1.72461 20.3095 1.94961 20.3095 2.22461V12.9246V14.4746V16.5246C20.3095 16.8496 20.7257 17.0246 20.9602 16.7746C21.5585 16.1496 21.8711 15.3496 21.8711 14.4746V2.24961C21.8969 1.12461 20.9859 0.224609 19.8928 0.224609Z" fill="#F23F28"/>
</g>
</svg>
