<svg width="51" height="52" viewBox="0 0 51 52" fill="none" xmlns="http://www.w3.org/2000/svg">
<path fill-rule="evenodd" clip-rule="evenodd" d="M24.7633 31.9502H26.0789C26.0789 31.9502 26.4751 31.9074 26.6782 31.6974C26.8648 31.5064 26.859 31.1474 26.859 31.1474C26.859 31.1474 26.8333 29.4601 27.6523 29.2112C28.4597 28.9671 29.4967 30.8423 30.5951 31.5619C31.4257 32.1079 32.0582 31.9891 32.0582 31.9891L34.996 31.951C34.996 31.951 36.5321 31.8591 35.8042 30.7036C35.7446 30.6101 35.379 29.8492 33.6191 28.2879C31.7763 26.6529 32.0234 26.9169 34.2425 24.0899C35.5945 22.3677 36.1333 21.3168 35.9651 20.8667C35.8051 20.4371 34.8095 20.5504 34.8095 20.5504L31.5028 20.5703C31.5028 20.5703 31.2574 20.5378 31.0759 20.6416C30.8976 20.743 30.7824 20.9808 30.7824 20.9808C30.7824 20.9808 30.2585 22.313 29.5605 23.4464C28.0883 25.8374 27.4989 25.9642 27.2585 25.8152C26.6973 25.4689 26.8382 24.4251 26.8382 23.6833C26.8382 21.366 27.2055 20.3991 26.122 20.1494C25.7622 20.067 25.4978 20.0123 24.5785 20.0028C23.3981 19.9909 22.3992 20.006 21.8338 20.2707C21.4575 20.4474 21.1673 20.8397 21.3439 20.8619C21.5627 20.8904 22.0576 20.9895 22.3204 21.3311C22.6595 21.7725 22.6478 22.7624 22.6478 22.7624C22.6478 22.7624 22.8427 25.4903 22.1936 25.8287C21.7476 26.0617 21.1358 25.587 19.8228 23.417C19.1496 22.3059 18.6415 21.0775 18.6415 21.0775C18.6415 21.0775 18.5437 20.8476 18.3688 20.7248C18.1574 20.5758 17.8606 20.529 17.8606 20.529L14.7172 20.5481C14.7172 20.5481 14.2455 20.5607 14.0723 20.7573C13.9173 20.9316 14.0598 21.2922 14.0598 21.2922C14.0598 21.2922 16.521 26.7964 19.308 29.5695C21.862 32.1159 24.7633 31.9502 24.7633 31.9502Z" fill="black"/>
</svg>
