<?xml version="1.0" encoding="utf-8"?>
<!-- Generator: Adobe Illustrator 16.0.0, SVG Export Plug-In . SVG Version: 6.00 Build 0)  -->
<!DOCTYPE svg PUBLIC "-//W3C//DTD SVG 1.1//EN" "http://www.w3.org/Graphics/SVG/1.1/DTD/svg11.dtd">
<svg version="1.1" id="Layer_1" xmlns="http://www.w3.org/2000/svg" xmlns:xlink="http://www.w3.org/1999/xlink" x="0px" y="0px"
	 width="51px" height="52px" viewBox="0 0 51 52" enable-background="new 0 0 51 52" xml:space="preserve">
<g id="ok_3_">
	<path d="M25.5,26.259c2.299,0,4.168-1.868,4.168-4.166c0-2.299-1.869-4.168-4.168-4.168s-4.167,1.869-4.167,4.168
		C21.333,24.391,23.201,26.259,25.5,26.259z M25.5,20.368c0.951,0,1.726,0.774,1.726,1.726s-0.774,1.725-1.726,1.725
		s-1.726-0.773-1.726-1.725S24.549,20.368,25.5,20.368z"/>
	<path d="M27.187,29.66c0.849-0.193,1.667-0.529,2.42-1.004c0.57-0.357,0.742-1.113,0.383-1.682
		c-0.359-0.573-1.112-0.745-1.684-0.385c-1.707,1.074-3.905,1.072-5.611,0c-0.571-0.36-1.325-0.188-1.684,0.385
		c-0.358,0.57-0.188,1.324,0.383,1.682c0.753,0.475,1.571,0.811,2.42,1.004l-2.329,2.33c-0.478,0.477-0.478,1.25,0,1.727
		c0.238,0.238,0.551,0.357,0.863,0.357s0.625-0.119,0.863-0.357l2.289-2.291l2.29,2.291c0.477,0.477,1.249,0.477,1.727,0
		c0.477-0.477,0.477-1.25,0-1.727L27.187,29.66z"/>
</g>
</svg>
