<svg width="33" height="32" viewBox="0 0 33 32" fill="none" xmlns="http://www.w3.org/2000/svg">
<path d="M16.3786 1C7.89698 1 1.02124 7.71739 1.02124 16.0037C1.02124 24.2859 7.89359 31 16.3711 31H16.3861C24.8636 31 31.736 24.2859 31.736 16.0037C31.736 7.71739 24.8602 1 16.3786 1Z" stroke="black" stroke-width="2" stroke-miterlimit="10"/>
<path d="M21.8969 10.0621C21.3033 9.56681 20.6071 9.2675 19.8595 9.07652C17.9812 8.59676 16.0773 8.4772 14.1538 8.73204C13.1785 8.86129 12.2366 9.11306 11.3699 9.58809C10.352 10.1459 9.6518 10.9495 9.34205 12.0644C9.12115 12.8592 9.01427 13.6685 8.97227 14.4881C8.91041 15.6974 8.95072 16.8986 9.26749 18.0784C9.63401 19.4434 10.4312 20.449 11.7968 20.9843C11.9458 21.0426 12.0857 21.1227 12.2341 21.1832C12.3708 21.2387 12.4128 21.3272 12.4118 21.4717C12.4052 22.4159 12.4084 23.36 12.4084 24.3464C12.7671 24.0083 13.0147 23.7595 13.195 23.5605C13.7328 22.9666 14.2416 22.4721 14.8026 21.9074C15.0869 21.6211 14.9674 21.6349 15.4084 21.642C15.9273 21.6503 16.7424 21.6703 17.2582 21.6308C18.2421 21.5554 19.2179 21.4332 20.1672 21.1547C21.3729 20.801 22.3388 20.1702 22.8289 18.9792C22.9591 18.6629 23.0839 18.3451 23.1662 18.0139C23.637 16.1184 23.574 14.2192 23.1806 12.3228C22.9977 11.4416 22.612 10.6589 21.8969 10.0621ZM15.9043 11.2115C15.9146 11.0288 16.0215 10.9584 16.1975 10.9668C17.6948 11.0366 18.8219 11.4714 19.6887 12.6114C20.1966 13.2794 20.4709 14.1814 20.4985 15.0195C20.4985 15.1439 20.5041 15.2686 20.497 15.3927C20.4892 15.5313 20.4271 15.637 20.2675 15.6388C20.1063 15.6404 20.0274 15.5551 20.0165 15.3953C19.9744 14.7777 19.8522 14.1766 19.6106 13.602C19.1429 12.4897 18.2462 11.8902 17.0937 11.6008C16.7889 11.5244 16.4808 11.4613 16.1659 11.4363C16.0238 11.4252 15.8939 11.3956 15.9043 11.2115ZM17.4149 12.7648C17.1105 12.6606 16.8021 12.577 16.482 12.5316C16.327 12.5096 16.2165 12.4295 16.245 12.2524C16.272 12.0858 16.3835 12.0195 16.5474 12.0347C17.5922 12.1316 18.4086 12.5031 18.9707 13.3874C19.2335 13.8009 19.3879 14.3868 19.3647 14.8262C19.3482 15.1377 19.2996 15.218 19.1174 15.2132C18.8522 15.2059 18.8912 14.9928 18.8709 14.8362C18.8397 14.5946 18.786 14.3591 18.7189 14.1258C18.5255 13.4522 18.0931 12.9969 17.4149 12.7648ZM18.2994 14.4865C18.2893 14.573 18.2886 14.6326 18.2746 14.6894C18.2466 14.803 18.1752 14.8719 18.0483 14.8739C17.9198 14.876 17.8507 14.8015 17.8169 14.6934C17.7937 14.6188 17.7876 14.5392 17.7724 14.4621C17.691 14.0507 17.4504 13.7813 17.0319 13.6715C16.9804 13.658 16.9271 13.6508 16.8757 13.6368C16.7436 13.6011 16.5792 13.5984 16.5737 13.4095C16.5692 13.2532 16.6908 13.1602 16.9105 13.147C17.0597 13.1381 17.2908 13.2099 17.4247 13.2736C17.9749 13.5356 18.2317 13.9042 18.2994 14.4865ZM20.4992 18.8216C20.209 19.4637 19.7123 19.8873 19.0178 20.0794C18.7659 20.1489 18.5217 20.0891 18.2916 19.9934C15.1236 18.6757 12.8342 16.5019 11.5378 13.3638C11.4442 13.1373 11.3896 12.9013 11.3982 12.6856C11.3999 11.8774 12.1257 11.1303 12.9209 11.0872C13.1409 11.0754 13.3312 11.1484 13.4897 11.2935C14.0491 11.8055 14.4986 12.3988 14.8271 13.0746C15.0053 13.4413 14.9306 13.6997 14.6099 13.9624C14.5585 14.0043 14.5029 14.0415 14.4487 14.0801C14.0227 14.3847 13.9274 14.6957 14.1313 15.1755C14.4655 15.9624 15.0093 16.58 15.7432 17.0372C16.0203 17.2098 16.3033 17.3734 16.6224 17.4643C16.9146 17.5474 17.1493 17.4585 17.337 17.2328C17.3581 17.2074 17.3776 17.1807 17.3974 17.1541C17.8059 16.6016 18.243 16.5059 18.8351 16.8648C19.3429 17.1728 19.8211 17.5237 20.2758 17.9029C20.5833 18.1594 20.662 18.4614 20.4992 18.8216Z" fill="#010101"/>
</svg>
