<svg width="32" height="32" viewBox="0 0 32 32" fill="none" xmlns="http://www.w3.org/2000/svg">
<path d="M16.0002 1C7.71584 1 1 7.71739 1 16.0037C1 24.2859 7.71253 31 15.9929 31H16.0076C24.2879 31 31.0004 24.2859 31.0004 16.0037C31.0004 7.71739 24.2846 1 16.0002 1Z" stroke="black" stroke-width="2" stroke-miterlimit="10"/>
<path fill-rule="evenodd" clip-rule="evenodd" d="M16.1384 8.32007C12.0074 8.32007 8.65836 11.6698 8.65836 15.8022C8.65836 17.2157 9.05053 18.5379 9.73164 19.6656L8.38159 23.6798L12.523 22.3536C13.5948 22.9463 14.827 23.2842 16.1384 23.2842C20.27 23.2842 23.6189 19.9342 23.6189 15.8021C23.6189 11.6699 20.27 8.32007 16.1384 8.32007ZM16.1384 22.0309C14.8739 22.0309 13.696 21.6514 12.7125 21.001L10.3196 21.7671L11.0974 19.4542C10.352 18.4271 9.91158 17.1655 9.91158 15.8022C9.91158 12.3675 12.705 9.57322 16.1384 9.57322C19.5724 9.57322 22.3658 12.3675 22.3658 15.8022C22.3658 19.2367 19.5724 22.0309 16.1384 22.0309ZM19.6458 17.5024C19.4583 17.3996 18.5373 16.9025 18.3644 16.8321C18.1917 16.762 18.0657 16.7256 17.931 16.9119C17.7965 17.0978 17.4144 17.5144 17.2986 17.6378C17.1823 17.7611 17.0703 17.7727 16.8827 17.6697C16.6956 17.5673 16.0877 17.3424 15.3827 16.6647C14.8343 16.1371 14.4745 15.4976 14.3701 15.3022C14.2657 15.1069 14.3694 15.0073 14.4686 14.9158C14.5576 14.8332 14.668 14.6996 14.7676 14.5919C14.8669 14.484 14.902 14.4056 14.9703 14.2805C15.0387 14.1554 15.0112 14.0426 14.9669 13.9454C14.9227 13.8484 14.576 12.894 14.4312 12.5057C14.2864 12.1175 14.1251 12.1752 14.0136 12.1708C13.9023 12.1669 13.7755 12.146 13.6482 12.1414C13.5209 12.1365 13.3121 12.1766 13.1301 12.361C12.948 12.5456 12.4374 12.989 12.4022 13.929C12.3671 14.8685 13.0171 15.8023 13.1078 15.933C13.1986 16.0641 14.3492 18.1011 16.2614 18.9388C18.174 19.7763 18.184 19.5211 18.5349 19.5023C18.8861 19.4837 19.682 19.0824 19.8579 18.6426C20.0337 18.2027 20.0479 17.8205 20.0032 17.7389C19.9585 17.6576 19.8332 17.6048 19.6458 17.5024Z" fill="#010101"/>
</svg>
