<svg width="32" height="32" viewBox="0 0 32 32" fill="none" xmlns="http://www.w3.org/2000/svg">
<path d="M16.0002 1C7.71584 1 1 7.71739 1 16.0037C1 24.2859 7.71253 31 15.9929 31H16.0076C24.2879 31 31.0004 24.2859 31.0004 16.0037C31.0004 7.71739 24.2846 1 16.0002 1Z" stroke="black" stroke-width="2" stroke-miterlimit="10"/>
<path d="M22.2726 9.85848L8.02528 15.2544C7.24603 15.4794 7.27086 16.2494 7.84723 16.4344L11.417 17.549L12.7829 21.7377C12.9489 22.1962 13.0847 22.3688 13.3683 22.3727C13.6663 22.3768 13.7803 22.268 14.0899 21.9943C14.4523 21.6539 15.0042 21.1181 15.8763 20.2699L19.5897 23.014C20.273 23.3912 20.7664 23.1958 20.9365 22.3794L23.2646 10.861C23.514 9.86013 22.9263 9.56165 22.2726 9.85848ZM11.9773 17.2928L20.0933 12.1996C20.493 11.9313 20.6184 12.2306 20.438 12.4374L13.7022 18.4979L13.3567 21.5226L11.9773 17.2928Z" fill="#010101"/>
</svg>
