<svg width="32" height="32" viewBox="0 0 32 32" fill="none" xmlns="http://www.w3.org/2000/svg">
<path d="M16.0002 1C7.71584 1 1 7.71739 1 16.0037C1 24.2859 7.71253 31 15.9929 31H16.0076C24.2879 31 31.0004 24.2859 31.0004 16.0037C31.0004 7.71739 24.2846 1 16.0002 1Z" stroke="black" stroke-width="2" stroke-miterlimit="10"/>
<path d="M23.2027 17.626C23.2749 17.214 23.3129 16.7902 23.3129 16.3575C23.3129 12.3327 20.0509 9.07001 16.027 9.07001C15.5937 9.07001 15.1695 9.10809 14.7573 9.18058C14.1177 8.8102 13.3758 8.59711 12.5836 8.59711C10.1837 8.59711 8.23828 10.543 8.23828 12.9434C8.23828 13.7495 8.45854 14.5042 8.84089 15.1512C8.77563 15.5437 8.74111 15.9467 8.74111 16.3575C8.74111 20.3823 12.0031 23.6451 16.0269 23.6451C16.4492 23.6451 16.8632 23.6087 17.2658 23.5395C17.9013 23.9034 18.6366 24.1126 19.4211 24.1126C21.8209 24.1126 23.7665 22.1666 23.7665 19.7662C23.7666 18.9877 23.561 18.258 23.2027 17.626ZM13.0919 17.8776C13.8175 17.8388 14.0596 18.7024 14.5991 19.0748C15.1974 19.4799 17.0766 19.9111 17.628 18.6547C18.0357 17.5699 16.8379 17.405 15.6581 17.1148C13.8525 16.7282 12.3408 16.2623 12.354 14.4169C12.3459 12.6374 13.7542 11.9053 15.1089 11.7826C16.7197 11.639 17.9086 11.9772 18.79 12.6948C19.8176 13.5716 19.2632 14.5294 18.529 14.5497C17.4888 14.5784 17.5027 13.195 15.7869 13.2166C14.3039 13.1936 13.6249 14.6221 15.1744 15.1223C17.3471 15.6963 19.0892 15.6266 19.6509 17.4594C20.0828 19.1733 19.0442 20.7716 16.5107 20.9766C14.4969 21.0832 13.4363 20.5183 12.7476 19.8294C11.9114 18.8779 12.3053 17.9194 13.0919 17.8776Z" fill="#010101"/>
</svg>
