<svg xmlns="http://www.w3.org/2000/svg" xmlns:xlink="http://www.w3.org/1999/xlink" width="60" height="60" viewBox="0 0 60 60">
    <defs>
        <path id="a" d="M0 .069h59.967V59.96H0z"/>
    </defs>
    <g fill="none" fill-rule="evenodd">
        <g>
            <mask id="b" fill="#fff">
                <use xlink:href="#a"/>
            </mask>
            <path fill="#C8C6C6" d="M4.222 30.016c0-6.337 2.317-12.134 6.134-16.624l4.753 4.751a2.112 2.112 0 0 0 2.985 0 2.108 2.108 0 0 0 0-2.98L13.34 10.41c4.496-3.812 10.3-6.126 16.646-6.126 14.201 0 25.76 11.544 25.76 25.731 0 6.338-2.318 12.135-6.134 16.621l-4.209-4.204a2.114 2.114 0 0 0-2.985 0 2.108 2.108 0 0 0 0 2.981l4.21 4.204c-4.497 3.816-10.301 6.126-16.642 6.126-14.206 0-25.764-11.54-25.764-25.728M29.986.068C13.45.068 0 13.501 0 30.016 0 46.527 13.45 59.96 29.986 59.96c16.532 0 29.981-13.433 29.981-29.944 0-16.515-13.45-29.948-29.981-29.948" mask="url(#b)"/>
        </g>
        <path fill="#F23F28" d="M21.491 22.297l8.369-4.539 8.381 4.543-8.373 4.581c-1.839-1.01-5.58-3.058-8.377-4.585zm8.369-6.942l-12.798 6.942c.621.313 12.806 6.992 12.806 6.992l12.786-6.992-12.794-6.942zM40.868 37.484l-7.234 3.944v-8.951l7.234-3.948v8.955zm2.07-12.46l-11.374 6.21v13.695l11.374-6.201V25.024zM19.132 28.528l7.234 3.951v8.95l-7.234-3.947v-8.954zm-2.07 10.201l11.374 6.2V31.236l-11.374-6.212v13.705z"/>
    </g>
</svg>
