<svg xmlns="http://www.w3.org/2000/svg" xmlns:xlink="http://www.w3.org/1999/xlink" width="34" height="34" viewBox="0 0 34 34">
    <defs>
        <path id="a" d="M0 .825h33.174V34H0z"/>
    </defs>
    <g fill="none" fill-rule="evenodd">
        <g transform="translate(0 -.825)">
            <mask id="b" fill="#fff">
                <use xlink:href="#a"/>
            </mask>
            <path fill="#343434" d="M5.728 8.205l2.631 2.63a1.164 1.164 0 0 0 1.651 0 1.168 1.168 0 0 0 0-1.652L7.38 6.554a14.181 14.181 0 0 1 9.207-3.394c7.86 0 14.251 6.394 14.251 14.252 0 3.51-1.28 6.721-3.392 9.21l-2.329-2.33a1.167 1.167 0 1 0-1.65 1.65l2.328 2.33a14.181 14.181 0 0 1-9.208 3.392c-7.858 0-14.252-6.392-14.252-14.252 0-3.51 1.281-6.72 3.393-9.207M16.588 34c9.145 0 16.586-7.442 16.586-16.588 0-9.145-7.44-16.588-16.587-16.588C7.44.824 0 8.267 0 17.412 0 26.558 7.44 34 16.587 34" mask="url(#b)"/>
        </g>
        <path fill="#343434" d="M16.588 9.735l4.66 2.511-4.654 2.527c-1.023-.558-3.103-1.688-4.66-2.53l4.654-2.508zm7.117 2.507L16.588 8.41 9.47 12.242c.346.172 7.122 3.86 7.122 3.86l7.112-3.86zM18.456 17.848l4.08-2.211v5.014l-4.08 2.207v-5.01zm-1.168 6.969l6.416-3.47v-7.67l-6.416 3.475v7.665zM10.649 15.637l4.08 2.21v5.01l-4.08-2.206v-5.014zm-1.167 5.71l6.415 3.47v-7.664l-6.415-3.476v7.67z"/>
    </g>
</svg>
