<svg xmlns="http://www.w3.org/2000/svg" xmlns:xlink="http://www.w3.org/1999/xlink" width="18" height="18" viewBox="0 0 18 18">
    <defs>
        <path id="a" d="M5.661 16.629c6.792 0 10.507-5.628 10.507-10.508a9.49 9.49 0 0 0-.011-.477A7.496 7.496 0 0 0 18 3.732a7.428 7.428 0 0 1-2.121.582 3.713 3.713 0 0 0 1.624-2.043 7.437 7.437 0 0 1-2.345.896 3.694 3.694 0 0 0-6.294 3.368 10.484 10.484 0 0 1-7.611-3.858 3.692 3.692 0 0 0 1.142 4.93 3.675 3.675 0 0 1-1.671-.462l-.001.046a3.694 3.694 0 0 0 2.962 3.622 3.714 3.714 0 0 1-1.668.062 3.698 3.698 0 0 0 3.451 2.566A7.417 7.417 0 0 1 0 14.97a10.449 10.449 0 0 0 5.661 1.659"/>
    </defs>
    <g fill="none" fill-rule="evenodd">
        <mask id="b" fill="#fff">
            <use xlink:href="#a"/>
        </mask>
        <use fill="#262628" xlink:href="#a"/>
        <g fill="#222" mask="url(#b)">
            <path d="M0 0h18v18H0z"/>
        </g>
    </g>
</svg>
