<svg width="39" height="65" viewBox="0 0 39 65" fill="none" xmlns="http://www.w3.org/2000/svg">
<path d="M7.94461 48.42H9.17461V51.21C8.81461 51.4967 8.39461 51.7167 7.91461 51.87C7.43461 52.0233 6.94128 52.1 6.43461 52.1C5.72128 52.1 5.07794 51.9467 4.50461 51.64C3.93128 51.3267 3.48128 50.8967 3.15461 50.35C2.82794 49.8033 2.66461 49.1867 2.66461 48.5C2.66461 47.8133 2.82794 47.1967 3.15461 46.65C3.48128 46.1033 3.93128 45.6767 4.50461 45.37C5.08461 45.0567 5.73461 44.9 6.45461 44.9C7.04128 44.9 7.57461 44.9967 8.05461 45.19C8.53461 45.3833 8.93794 45.6667 9.26461 46.04L8.44461 46.84C7.91128 46.3067 7.26794 46.04 6.51461 46.04C6.02128 46.04 5.58128 46.1433 5.19461 46.35C4.81461 46.5567 4.51461 46.8467 4.29461 47.22C4.08128 47.5933 3.97461 48.02 3.97461 48.5C3.97461 48.9667 4.08128 49.3867 4.29461 49.76C4.51461 50.1333 4.81461 50.4267 5.19461 50.64C5.58128 50.8533 6.01794 50.96 6.50461 50.96C7.05128 50.96 7.53128 50.84 7.94461 50.6V48.42ZM10.7692 44.58H12.0192V52H10.7692V44.58ZM18.8298 46.66V52H17.6398V51.32C17.4398 51.56 17.1898 51.7467 16.8898 51.88C16.5898 52.0067 16.2665 52.07 15.9198 52.07C15.2065 52.07 14.6432 51.8733 14.2298 51.48C13.8232 51.08 13.6198 50.49 13.6198 49.71V46.66H14.8698V49.54C14.8698 50.02 14.9765 50.38 15.1898 50.62C15.4098 50.8533 15.7198 50.97 16.1198 50.97C16.5665 50.97 16.9198 50.8333 17.1798 50.56C17.4465 50.28 17.5798 49.88 17.5798 49.36V46.66H18.8298ZM23.6765 51.71C23.5298 51.83 23.3498 51.92 23.1365 51.98C22.9298 52.04 22.7098 52.07 22.4765 52.07C21.8898 52.07 21.4365 51.9167 21.1165 51.61C20.7965 51.3033 20.6365 50.8567 20.6365 50.27V47.7H19.7565V46.7H20.6365V45.48H21.8865V46.7H23.3165V47.7H21.8865V50.24C21.8865 50.5 21.9498 50.7 22.0765 50.84C22.2032 50.9733 22.3865 51.04 22.6265 51.04C22.9065 51.04 23.1398 50.9667 23.3265 50.82L23.6765 51.71ZM29.549 49.36C29.549 49.4467 29.5423 49.57 29.529 49.73H25.339C25.4123 50.1233 25.6023 50.4367 25.909 50.67C26.2223 50.8967 26.609 51.01 27.069 51.01C27.6557 51.01 28.139 50.8167 28.519 50.43L29.189 51.2C28.949 51.4867 28.6457 51.7033 28.279 51.85C27.9123 51.9967 27.499 52.07 27.039 52.07C26.4523 52.07 25.9357 51.9533 25.489 51.72C25.0423 51.4867 24.6957 51.1633 24.449 50.75C24.209 50.33 24.089 49.8567 24.089 49.33C24.089 48.81 24.2057 48.3433 24.439 47.93C24.679 47.51 25.009 47.1833 25.429 46.95C25.849 46.7167 26.3223 46.6 26.849 46.6C27.369 46.6 27.8323 46.7167 28.239 46.95C28.6523 47.1767 28.9723 47.5 29.199 47.92C29.4323 48.3333 29.549 48.8133 29.549 49.36ZM26.849 47.6C26.449 47.6 26.109 47.72 25.829 47.96C25.5557 48.1933 25.389 48.5067 25.329 48.9H28.359C28.3057 48.5133 28.1423 48.2 27.869 47.96C27.5957 47.72 27.2557 47.6 26.849 47.6ZM33.7797 46.6C34.453 46.6 34.993 46.7967 35.3997 47.19C35.8064 47.5833 36.0097 48.1667 36.0097 48.94V52H34.7597V49.1C34.7597 48.6333 34.6497 48.2833 34.4297 48.05C34.2097 47.81 33.8964 47.69 33.4897 47.69C33.0297 47.69 32.6664 47.83 32.3997 48.11C32.133 48.3833 31.9997 48.78 31.9997 49.3V52H30.7497V46.66H31.9397V47.35C32.1464 47.1033 32.4064 46.9167 32.7197 46.79C33.033 46.6633 33.3864 46.6 33.7797 46.6ZM11.9724 57.52C11.4458 57.52 11.1824 57.8067 11.1824 58.38V58.7H12.6524V59.7H11.2224V64H9.97242V59.7H9.09242V58.7H9.97242V58.36C9.97242 57.7867 10.1391 57.3367 10.4724 57.01C10.8058 56.6767 11.2758 56.51 11.8824 56.51C12.3624 56.51 12.7391 56.6067 13.0124 56.8L12.6624 57.74C12.4491 57.5933 12.2191 57.52 11.9724 57.52ZM15.4846 59.44C15.8446 58.88 16.4779 58.6 17.3846 58.6V59.79C17.2779 59.77 17.1813 59.76 17.0946 59.76C16.6079 59.76 16.2279 59.9033 15.9546 60.19C15.6813 60.47 15.5446 60.8767 15.5446 61.41V64H14.2946V58.66H15.4846V59.44ZM23.4162 61.36C23.4162 61.4467 23.4095 61.57 23.3962 61.73H19.2062C19.2795 62.1233 19.4695 62.4367 19.7762 62.67C20.0895 62.8967 20.4762 63.01 20.9362 63.01C21.5228 63.01 22.0062 62.8167 22.3862 62.43L23.0562 63.2C22.8162 63.4867 22.5128 63.7033 22.1462 63.85C21.7795 63.9967 21.3662 64.07 20.9062 64.07C20.3195 64.07 19.8028 63.9533 19.3562 63.72C18.9095 63.4867 18.5628 63.1633 18.3162 62.75C18.0762 62.33 17.9562 61.8567 17.9562 61.33C17.9562 60.81 18.0728 60.3433 18.3062 59.93C18.5462 59.51 18.8762 59.1833 19.2962 58.95C19.7162 58.7167 20.1895 58.6 20.7162 58.6C21.2362 58.6 21.6995 58.7167 22.1062 58.95C22.5195 59.1767 22.8395 59.5 23.0662 59.92C23.2995 60.3333 23.4162 60.8133 23.4162 61.36ZM20.7162 59.6C20.3162 59.6 19.9762 59.72 19.6962 59.96C19.4228 60.1933 19.2562 60.5067 19.1962 60.9H22.2262C22.1728 60.5133 22.0095 60.2 21.7362 59.96C21.4628 59.72 21.1228 59.6 20.7162 59.6ZM29.6369 61.36C29.6369 61.4467 29.6302 61.57 29.6169 61.73H25.4269C25.5002 62.1233 25.6902 62.4367 25.9969 62.67C26.3102 62.8967 26.6969 63.01 27.1569 63.01C27.7435 63.01 28.2269 62.8167 28.6069 62.43L29.2769 63.2C29.0369 63.4867 28.7335 63.7033 28.3669 63.85C28.0002 63.9967 27.5869 64.07 27.1269 64.07C26.5402 64.07 26.0235 63.9533 25.5769 63.72C25.1302 63.4867 24.7835 63.1633 24.5369 62.75C24.2969 62.33 24.1769 61.8567 24.1769 61.33C24.1769 60.81 24.2935 60.3433 24.5269 59.93C24.7669 59.51 25.0969 59.1833 25.5169 58.95C25.9369 58.7167 26.4102 58.6 26.9369 58.6C27.4569 58.6 27.9202 58.7167 28.3269 58.95C28.7402 59.1767 29.0602 59.5 29.2869 59.92C29.5202 60.3333 29.6369 60.8133 29.6369 61.36ZM26.9369 59.6C26.5369 59.6 26.1969 59.72 25.9169 59.96C25.6435 60.1933 25.4769 60.5067 25.4169 60.9H28.4469C28.3935 60.5133 28.2302 60.2 27.9569 59.96C27.6835 59.72 27.3435 59.6 26.9369 59.6Z" fill="#979797"/>
<path fill-rule="evenodd" clip-rule="evenodd" d="M9.07573 28.473L3.90547 33.6421C3.63958 33.9068 3.63958 34.3364 3.90547 34.6011C4.03783 34.7335 4.21083 34.7996 4.38383 34.7996C4.55799 34.7996 4.73099 34.7335 4.86335 34.6011L10.0336 29.432C10.2995 29.1673 10.2995 28.7377 10.0336 28.473C9.76889 28.2082 9.34046 28.2082 9.07573 28.473" fill="#979797"/>
<path fill-rule="evenodd" clip-rule="evenodd" d="M30.4656 8.07763C30.346 8.83813 30.0198 10.0503 29.1234 10.9478C28.4581 11.6154 27.5711 12.0125 26.4797 12.1367C26.7165 10.877 27.5513 8.43524 30.4656 8.07763M25.0321 12.8346C25.0263 13.0192 25.0959 13.1969 25.2225 13.3292C25.3502 13.4616 25.5255 13.5359 25.7101 13.5359C27.5388 13.5359 29.0134 12.9844 30.092 11.8965C31.8894 10.0875 31.8917 7.46116 31.8905 7.34969C31.8882 6.97699 31.584 6.67627 31.2125 6.67627C26.4857 6.67627 25.1029 10.704 25.0321 12.8346" fill="#979797"/>
<path fill-rule="evenodd" clip-rule="evenodd" d="M21.7261 8.4416C22.1801 9.06393 22.8059 10.153 22.8082 11.4221C22.8082 12.3637 22.4622 13.2717 21.7783 14.1309C21.0538 13.072 19.9183 10.7545 21.7261 8.4416V8.4416ZM21.7434 15.8632C21.9233 15.8632 22.0952 15.7913 22.2217 15.6647C23.5163 14.3724 24.1689 12.9397 24.1631 11.4059C24.1526 8.85616 22.2972 6.99844 22.2183 6.92065C21.9559 6.65941 21.5286 6.66057 21.2639 6.92413C17.9223 10.2645 19.7905 14.0914 21.2476 15.6484C21.373 15.7831 21.5483 15.8598 21.7306 15.8632H21.7434Z" fill="#979797"/>
<path fill-rule="evenodd" clip-rule="evenodd" d="M26.9333 17.8965H26.9298C25.9893 17.8965 25.0813 17.5493 24.2222 16.8666C25.2764 16.1386 27.5893 14.9927 29.9137 16.8144C29.2914 17.2684 28.2035 17.8953 26.9333 17.8965M31.4309 16.3524C28.0916 13.0131 24.2647 14.8801 22.7066 16.3361C22.573 16.4627 22.4941 16.6357 22.4918 16.8214C22.4894 17.0037 22.5603 17.1814 22.6903 17.3114C23.9779 18.5979 25.4037 19.2527 26.9294 19.2527H26.9491C29.4988 19.2411 31.3566 17.3869 31.4343 17.3091C31.6956 17.042 31.6944 16.6159 31.4309 16.3524" fill="#979797"/>
<path fill-rule="evenodd" clip-rule="evenodd" d="M10.9359 17.6446C11.4932 18.3703 12.3582 19.7659 12.364 21.4308C12.3686 22.65 11.9065 23.8203 10.9858 24.9199C10.0964 23.6798 8.45698 20.6471 10.9359 17.6446M10.9393 26.6372H10.9521C11.1321 26.6372 11.3039 26.5664 11.4305 26.4387C12.9561 24.9142 13.7271 23.2272 13.7201 21.4263C13.7097 18.4203 11.521 16.2305 11.427 16.1388C11.1634 15.8787 10.7362 15.8787 10.4726 16.1435C5.55196 21.0641 10.4076 26.3702 10.4563 26.4236C10.5817 26.5583 10.7571 26.6349 10.9393 26.6372" fill="#979797"/>
<path fill-rule="evenodd" clip-rule="evenodd" d="M20.8091 27.6915C20.0823 28.2477 18.6878 29.1138 17.0217 29.1185H17.0043C15.7945 29.1185 14.6287 28.6552 13.5327 27.7403C14.7727 26.8521 17.8066 25.2126 20.8091 27.6915M17.0044 30.4747H17.0265C20.0313 30.4642 22.2223 28.2745 22.3151 28.1816C22.5752 27.9168 22.5752 27.4907 22.3105 27.2272C17.3922 22.31 12.0838 27.161 12.0292 27.2109C11.8957 27.3363 11.8179 27.5116 11.8156 27.6939C11.8121 27.8785 11.8841 28.0562 12.0141 28.185C13.5328 29.7037 15.2117 30.4747 17.0044 30.4747" fill="#979797"/>
<path fill-rule="evenodd" clip-rule="evenodd" d="M16.3398 13.0337C16.8472 13.713 17.5937 14.9588 17.5949 16.4229C17.5961 17.5027 17.1909 18.5407 16.3897 19.5207C15.577 18.3724 14.186 15.7042 16.3398 13.0337V13.0337ZM16.3572 21.2413C16.5372 21.2413 16.709 21.1704 16.8368 21.0427C18.2451 19.6343 18.9569 18.075 18.9511 16.4077C18.9406 13.6304 16.918 11.6055 16.8321 11.5207C16.5697 11.2595 16.1424 11.2607 15.8777 11.5242C12.2378 15.1642 14.2754 19.3325 15.8615 21.0276C15.988 21.1623 16.1622 21.2389 16.3445 21.2413H16.3572Z" fill="#979797"/>
<path fill-rule="evenodd" clip-rule="evenodd" d="M21.9317 23.4502H21.9271C20.8508 23.4502 19.8139 23.045 18.8374 22.2462C19.9904 21.4381 22.662 20.0541 25.3209 22.1951C24.6417 22.7025 23.3958 23.4479 21.9317 23.4502M26.8304 21.7319C23.1904 18.0907 19.0256 20.1307 17.3281 21.7156C17.1946 21.8422 17.1168 22.0175 17.1133 22.1998C17.111 22.3832 17.183 22.5609 17.3119 22.6898C18.7156 24.0935 20.2668 24.8064 21.9271 24.8064H21.948C24.7253 24.7948 26.7502 22.7734 26.835 22.6874C27.0951 22.4227 27.0939 21.9966 26.8304 21.7319" fill="#979797"/>
<mask id="mask0" mask-type="alpha" maskUnits="userSpaceOnUse" x="0" y="0" width="31" height="31">
<path fill-rule="evenodd" clip-rule="evenodd" d="M0 0H30.0993V30.3083H0V0Z" fill="white"/>
</mask>
<g mask="url(#mask0)">
<path fill-rule="evenodd" clip-rule="evenodd" d="M3.06586 29.687C3.32362 30.0887 3.76134 30.3082 4.20604 30.3082C4.45683 30.3082 4.7111 30.2374 4.93983 30.0911C5.56797 29.6858 5.75026 28.8464 5.34273 28.2171C3.64988 25.5919 2.7396 22.5441 2.71173 19.4057C2.70361 18.5256 2.78604 17.6676 2.91144 16.8223C2.94975 16.5622 2.97646 16.2975 3.02755 16.0397C3.5837 13.2276 4.86553 10.6767 6.65706 8.56708L10.917 12.7806C11.1818 13.0407 11.5266 13.1719 11.8703 13.1719C12.2198 13.1719 12.5704 13.0372 12.8351 12.7702C13.3611 12.2361 13.3565 11.378 12.8235 10.8521L8.56703 6.64318C8.59141 6.62344 8.61231 6.60138 8.63669 6.57932C8.9676 6.30182 9.31708 6.04522 9.67005 5.79211C9.75713 5.72941 9.84073 5.66091 9.92897 5.60053C10.2808 5.35903 10.6477 5.13842 11.0181 4.92479C11.1109 4.87022 11.2003 4.811 11.2944 4.75991C11.6787 4.54744 12.077 4.35702 12.4787 4.17357C12.5646 4.13526 12.647 4.0923 12.733 4.05514C13.1463 3.87634 13.5724 3.71959 14.002 3.57562C14.0833 3.54775 14.1646 3.51408 14.2458 3.48854C14.6801 3.35037 15.1248 3.23659 15.5729 3.13325C15.6577 3.11467 15.7413 3.08797 15.8261 3.07055C16.2696 2.97767 16.7236 2.908 17.1799 2.85111C17.2751 2.8395 17.3691 2.81976 17.4643 2.80931C17.9055 2.76171 18.3537 2.74081 18.8031 2.7292C18.918 2.72687 19.0306 2.7141 19.1456 2.71294C19.8062 2.70365 20.4634 2.75358 21.1148 2.82557C21.4422 2.86156 21.7615 2.91845 22.0819 2.97418C22.4651 3.0392 22.8448 3.11583 23.2209 3.20988C23.5135 3.28187 23.8061 3.35618 24.0929 3.44326C24.5968 3.59768 25.0938 3.77997 25.5814 3.98199C25.7265 4.04353 25.8786 4.08881 26.0226 4.15499C26.7111 4.465 27.3799 4.81797 28.0243 5.2197C28.6582 5.61795 29.4954 5.42637 29.8925 4.79126C30.2896 4.15499 30.098 3.31902 29.4617 2.92193C29.3723 2.8662 29.2736 2.82905 29.1842 2.77332C29.1529 2.75242 29.1355 2.71875 29.1018 2.69901C28.4585 2.31702 27.7956 1.97914 27.1198 1.6761C26.9817 1.6134 26.8377 1.56928 26.6984 1.51123C26.09 1.25579 25.4723 1.03055 24.8406 0.840129C24.5457 0.749565 24.2485 0.676418 23.9489 0.602109C23.4555 0.477874 22.9551 0.3757 22.45 0.290941C22.1226 0.236371 21.7986 0.178317 21.4689 0.141163C21.3632 0.12723 21.2599 0.102847 21.1542 0.0923976C20.4796 0.0262164 19.8074 -0.000488281 19.1386 0.00183387C19.1224 0.00183387 19.1049 -0.000488281 19.0875 -0.000488281C18.9226 0.000672793 18.7624 0.0227332 18.5975 0.0285386C18.125 0.0447936 17.6536 0.0633708 17.1868 0.113297C17.0371 0.129552 16.8919 0.158579 16.7421 0.178317C16.2487 0.242176 15.7599 0.314163 15.2746 0.416337C15.1538 0.441881 15.0365 0.477874 14.9169 0.504579C14.4154 0.620686 13.9173 0.747243 13.4284 0.903988C13.3274 0.935337 13.2299 0.975975 13.13 1.00965C12.6331 1.17684 12.1408 1.35681 11.659 1.56464C11.5696 1.60295 11.4848 1.6494 11.3966 1.68887C10.917 1.90483 10.4433 2.1324 9.97889 2.38784C9.88949 2.43661 9.80473 2.49582 9.71649 2.54575C9.26716 2.80351 8.82246 3.07055 8.39171 3.36663C8.30811 3.42468 8.23148 3.4897 8.14672 3.54891C7.77518 3.81248 7.40247 4.07372 7.04602 4.36631C6.99029 4.41043 6.94385 4.46268 6.88928 4.50796C6.87534 4.51957 6.86257 4.53234 6.84864 4.54512C3.47224 7.39207 1.21046 11.2225 0.368686 15.508C0.303666 15.8366 0.268834 16.1744 0.220069 16.5077C0.179431 16.7933 0.121378 17.0743 0.0935118 17.3645C0.0923507 17.3692 0.0946728 17.3738 0.0946728 17.3785C0.0296527 18.0542 -0.0051795 18.7358 0.000625865 19.4301C0.0319749 23.0817 1.09204 26.6287 3.06586 29.687" fill="#979797"/>
</g>
<path fill-rule="evenodd" clip-rule="evenodd" d="M37.4018 25.6793C37.5063 25.3868 37.6189 25.0965 37.7094 24.7981C37.7826 24.5519 37.836 24.2988 37.8987 24.048C37.9927 23.6858 38.0903 23.3235 38.1623 22.9555C38.2017 22.7453 38.225 22.5294 38.2586 22.3169C38.3237 21.907 38.391 21.4983 38.4293 21.0838C38.4502 20.8574 38.4514 20.6298 38.4653 20.4023C38.4874 20.0017 38.5141 19.6034 38.5129 19.2006C38.5129 19.1622 38.5164 19.1251 38.5164 19.0868C38.5152 18.973 38.4943 18.8615 38.4909 18.7489C38.4792 18.3112 38.4723 17.8746 38.4305 17.4346C38.4154 17.2662 38.3759 17.106 38.3562 16.9399C38.319 16.6346 38.2702 16.3362 38.2192 16.0343C38.1332 15.5258 38.0287 15.0253 37.9045 14.5284C37.836 14.2613 37.7675 13.9955 37.6885 13.7307C37.5306 13.2013 37.3425 12.6823 37.1394 12.1679C37.0488 11.9404 36.9675 11.7105 36.8688 11.4852C36.6215 10.9267 36.3371 10.381 36.0352 9.84346C35.9585 9.70762 35.9017 9.56016 35.8227 9.42547C35.8146 9.41386 35.8018 9.4069 35.7937 9.39529C35.7623 9.34188 35.7391 9.28498 35.7078 9.23157C35.3165 8.59415 34.4805 8.39328 33.8442 8.78224C33.2045 9.1712 33.0025 10.0049 33.3926 10.6458C33.4959 10.8141 33.5749 10.9941 33.6712 11.1659C33.9313 11.6292 34.1786 12.0983 34.3923 12.5848C34.4747 12.7729 34.5444 12.9691 34.6198 13.1595C34.7963 13.6053 34.9589 14.0558 35.0959 14.5156C35.1621 14.7362 35.2201 14.9615 35.277 15.1867C35.3873 15.6198 35.4779 16.0587 35.5522 16.5011C35.594 16.7507 35.6358 17.0003 35.666 17.2534C35.731 17.784 35.7728 18.3181 35.7855 18.8557C35.789 18.9695 35.8018 19.0833 35.8018 19.1971C35.803 19.5744 35.7809 19.9471 35.7565 20.3222C35.7472 20.487 35.7472 20.6519 35.731 20.8144C35.6961 21.1988 35.6358 21.5773 35.5731 21.9546C35.5487 22.1114 35.5324 22.2704 35.5022 22.4249C35.4372 22.7639 35.3467 23.096 35.2607 23.4292C35.2108 23.6219 35.1713 23.8193 35.1133 24.0109C35.032 24.2826 34.9298 24.5461 34.8346 24.8132C34.7475 25.0582 34.6686 25.3078 34.5687 25.5493C34.484 25.7548 34.3818 25.9522 34.2889 26.1531C34.1542 26.4457 34.0242 26.7417 33.8709 27.0274C33.7885 27.1841 33.691 27.3316 33.6027 27.486C33.4193 27.8018 33.2382 28.1188 33.0338 28.4241C32.9363 28.5704 32.8271 28.7063 32.725 28.8491C32.5125 29.1463 32.3 29.4424 32.0678 29.728C32.0051 29.8046 31.9331 29.8755 31.8681 29.9509L27.6743 25.756C27.1448 25.2265 26.2868 25.2265 25.7574 25.756C25.2279 26.2854 25.2279 27.1435 25.7574 27.6741L29.9558 31.8714C29.9012 31.919 29.8513 31.9689 29.7967 32.0153C29.5216 32.2429 29.2336 32.4496 28.9468 32.6586C28.7959 32.7665 28.6508 32.885 28.4963 32.9895C28.2304 33.1694 27.9518 33.3273 27.6766 33.4911C27.485 33.6048 27.2981 33.7279 27.1019 33.8347C26.8697 33.959 26.6282 34.0646 26.3913 34.1784C26.137 34.2992 25.8874 34.4269 25.6296 34.5349C25.4381 34.6138 25.2395 34.6777 25.0456 34.7497C24.731 34.8658 24.4175 34.9877 24.0947 35.0852C23.9345 35.134 23.7696 35.1676 23.607 35.2106C23.246 35.3093 22.8837 35.4068 22.5145 35.48C22.3496 35.5125 22.1801 35.5322 22.0129 35.5601C21.6483 35.6205 21.2837 35.682 20.9134 35.718C20.8205 35.7273 20.7253 35.7261 20.6324 35.7342C20.0042 35.7877 19.3796 35.7865 18.7561 35.7691C18.4205 35.761 18.0873 35.7401 17.7529 35.7099C17.2258 35.6623 16.7021 35.5903 16.1831 35.4916C15.8882 35.4358 15.5933 35.3766 15.3019 35.3058C14.8003 35.1804 14.308 35.026 13.8192 34.8553C13.508 34.745 13.1969 34.6382 12.8927 34.5093C12.4375 34.3177 11.9951 34.0936 11.5551 33.8603C11.1301 33.6362 10.6959 33.4295 10.2907 33.1671C9.66023 32.7607 8.82193 32.9419 8.41556 33.5688C8.00918 34.1981 8.18915 35.0376 8.81845 35.444C9.01003 35.5671 9.21902 35.6553 9.41408 35.7714C9.46284 35.8097 9.49535 35.862 9.55109 35.8933C9.85877 36.0733 10.185 36.2056 10.4997 36.367C10.8422 36.5435 11.1801 36.7281 11.5307 36.8825C12.0346 37.1043 12.5525 37.282 13.0703 37.4596C13.378 37.5629 13.6775 37.686 13.9899 37.7743C14.6378 37.9589 15.2961 38.0889 15.9591 38.2038C16.1622 38.2398 16.3585 38.2967 16.5628 38.3258C17.4417 38.4488 18.33 38.5185 19.2252 38.5185C19.2356 38.5185 19.2449 38.5173 19.2542 38.5173H19.2553H19.4295C19.6826 38.515 19.9311 38.486 20.183 38.4744C20.4826 38.4593 20.781 38.4593 21.0817 38.4303C21.1177 38.4268 21.1514 38.4198 21.1874 38.4152C21.6088 38.3734 22.0245 38.3025 22.4402 38.234C22.6434 38.2004 22.8489 38.1783 23.0509 38.1388C23.4793 38.0541 23.8996 37.9403 24.3188 37.8265C24.508 37.7754 24.6996 37.7359 24.8854 37.679C25.2674 37.5641 25.6378 37.4213 26.0093 37.282C26.2299 37.1995 26.454 37.1287 26.67 37.0393C26.9788 36.9104 27.2772 36.7595 27.5791 36.6132C27.8473 36.4855 28.1213 36.3647 28.3837 36.2242C28.6206 36.0953 28.847 35.949 29.078 35.8109C29.3904 35.6251 29.7062 35.4451 30.008 35.2419C30.1938 35.1154 30.3703 34.9714 30.5537 34.8391C30.8812 34.601 31.2098 34.3653 31.5221 34.1076C31.7021 33.9578 31.8704 33.7906 32.0457 33.6339C32.3395 33.3715 32.6356 33.1137 32.9131 32.8327C32.9409 32.8049 32.9711 32.7816 32.999 32.7549C33.201 32.5483 33.3786 32.3265 33.5702 32.1129C33.7467 31.9155 33.936 31.732 34.1055 31.5265C34.1287 31.4975 34.1461 31.4685 34.1693 31.4406C34.4329 31.1178 34.6721 30.7811 34.9136 30.4444C35.039 30.2702 35.1748 30.1019 35.2933 29.9231C35.5301 29.5701 35.7414 29.2009 35.9516 28.834C36.0549 28.6552 36.1687 28.4822 36.2651 28.3011C36.4462 27.962 36.6029 27.6102 36.762 27.2607C36.8665 27.0355 36.9803 26.8137 37.0755 26.585C37.1963 26.2889 37.2949 25.9824 37.4018 25.6793" fill="#979797"/>
</svg>
