<svg width="44" height="64" viewBox="0 0 44 64" fill="none" xmlns="http://www.w3.org/2000/svg">
<path d="M11.7442 44L9.42422 51H8.04422L6.31422 45.82L4.55422 51H3.16422L0.844219 44H2.19422L3.93422 49.32L5.74422 44H6.94422L8.71422 49.35L10.5042 44H11.7442ZM12.7321 45.66H13.9821V51H12.7321V45.66ZM13.3621 44.78C13.1354 44.78 12.9454 44.71 12.7921 44.57C12.6388 44.4233 12.5621 44.2433 12.5621 44.03C12.5621 43.8167 12.6388 43.64 12.7921 43.5C12.9454 43.3533 13.1354 43.28 13.3621 43.28C13.5888 43.28 13.7788 43.35 13.9321 43.49C14.0854 43.6233 14.1621 43.7933 14.1621 44C14.1621 44.22 14.0854 44.4067 13.9321 44.56C13.7854 44.7067 13.5954 44.78 13.3621 44.78ZM18.8327 50.71C18.6861 50.83 18.5061 50.92 18.2927 50.98C18.0861 51.04 17.8661 51.07 17.6327 51.07C17.0461 51.07 16.5927 50.9167 16.2727 50.61C15.9527 50.3033 15.7927 49.8567 15.7927 49.27V46.7H14.9127V45.7H15.7927V44.48H17.0427V45.7H18.4727V46.7H17.0427V49.24C17.0427 49.5 17.1061 49.7 17.2327 49.84C17.3594 49.9733 17.5427 50.04 17.7827 50.04C18.0627 50.04 18.2961 49.9667 18.4827 49.82L18.8327 50.71ZM22.891 45.6C23.5643 45.6 24.1043 45.7967 24.511 46.19C24.9177 46.5833 25.121 47.1667 25.121 47.94V51H23.871V48.1C23.871 47.6333 23.761 47.2833 23.541 47.05C23.321 46.81 23.0077 46.69 22.601 46.69C22.141 46.69 21.7777 46.83 21.511 47.11C21.2443 47.3833 21.111 47.78 21.111 48.3V51H19.861V43.58H21.111V46.28C21.3177 46.06 21.571 45.8933 21.871 45.78C22.1777 45.66 22.5177 45.6 22.891 45.6ZM29.1555 51.07C28.6155 51.07 28.1289 50.9533 27.6955 50.72C27.2622 50.4867 26.9222 50.1633 26.6755 49.75C26.4355 49.33 26.3155 48.8567 26.3155 48.33C26.3155 47.8033 26.4355 47.3333 26.6755 46.92C26.9222 46.5067 27.2622 46.1833 27.6955 45.95C28.1289 45.7167 28.6155 45.6 29.1555 45.6C29.7022 45.6 30.1922 45.7167 30.6255 45.95C31.0589 46.1833 31.3955 46.5067 31.6355 46.92C31.8822 47.3333 32.0055 47.8033 32.0055 48.33C32.0055 48.8567 31.8822 49.33 31.6355 49.75C31.3955 50.1633 31.0589 50.4867 30.6255 50.72C30.1922 50.9533 29.7022 51.07 29.1555 51.07ZM29.1555 50C29.6155 50 29.9955 49.8467 30.2955 49.54C30.5955 49.2333 30.7455 48.83 30.7455 48.33C30.7455 47.83 30.5955 47.4267 30.2955 47.12C29.9955 46.8133 29.6155 46.66 29.1555 46.66C28.6955 46.66 28.3155 46.8133 28.0155 47.12C27.7222 47.4267 27.5755 47.83 27.5755 48.33C27.5755 48.83 27.7222 49.2333 28.0155 49.54C28.3155 49.8467 28.6955 50 29.1555 50ZM38.3709 45.66V51H37.1809V50.32C36.9809 50.56 36.7309 50.7467 36.4309 50.88C36.1309 51.0067 35.8075 51.07 35.4609 51.07C34.7475 51.07 34.1842 50.8733 33.7709 50.48C33.3642 50.08 33.1609 49.49 33.1609 48.71V45.66H34.4109V48.54C34.4109 49.02 34.5175 49.38 34.7309 49.62C34.9509 49.8533 35.2609 49.97 35.6609 49.97C36.1075 49.97 36.4609 49.8333 36.7209 49.56C36.9875 49.28 37.1209 48.88 37.1209 48.36V45.66H38.3709ZM43.2175 50.71C43.0708 50.83 42.8908 50.92 42.6775 50.98C42.4708 51.04 42.2508 51.07 42.0175 51.07C41.4308 51.07 40.9775 50.9167 40.6575 50.61C40.3375 50.3033 40.1775 49.8567 40.1775 49.27V46.7H39.2975V45.7H40.1775V44.48H41.4275V45.7H42.8575V46.7H41.4275V49.24C41.4275 49.5 41.4908 49.7 41.6175 49.84C41.7442 49.9733 41.9275 50.04 42.1675 50.04C42.4475 50.04 42.6808 49.9667 42.8675 49.82L43.2175 50.71ZM14.8733 59.42H16.1033V62.21C15.7433 62.4967 15.3233 62.7167 14.8433 62.87C14.3633 63.0233 13.87 63.1 13.3633 63.1C12.65 63.1 12.0067 62.9467 11.4333 62.64C10.86 62.3267 10.41 61.8967 10.0833 61.35C9.75665 60.8033 9.59332 60.1867 9.59332 59.5C9.59332 58.8133 9.75665 58.1967 10.0833 57.65C10.41 57.1033 10.86 56.6767 11.4333 56.37C12.0133 56.0567 12.6633 55.9 13.3833 55.9C13.97 55.9 14.5033 55.9967 14.9833 56.19C15.4633 56.3833 15.8667 56.6667 16.1933 57.04L15.3733 57.84C14.84 57.3067 14.1967 57.04 13.4433 57.04C12.95 57.04 12.51 57.1433 12.1233 57.35C11.7433 57.5567 11.4433 57.8467 11.2233 58.22C11.01 58.5933 10.9033 59.02 10.9033 59.5C10.9033 59.9667 11.01 60.3867 11.2233 60.76C11.4433 61.1333 11.7433 61.4267 12.1233 61.64C12.51 61.8533 12.9467 61.96 13.4333 61.96C13.98 61.96 14.46 61.84 14.8733 61.6V59.42ZM24.2479 63L24.2379 58.36L21.9379 62.2H21.3579L19.0579 58.42V63H17.8179V56H18.8879L21.6679 60.64L24.3979 56H25.4679L25.4779 63H24.2479ZM30.6387 63.1C29.9254 63.1 29.282 62.9467 28.7087 62.64C28.1354 62.3267 27.6854 61.8967 27.3587 61.35C27.032 60.7967 26.8687 60.18 26.8687 59.5C26.8687 58.82 27.032 58.2067 27.3587 57.66C27.6854 57.1067 28.1354 56.6767 28.7087 56.37C29.282 56.0567 29.9254 55.9 30.6387 55.9C31.352 55.9 31.9954 56.0567 32.5687 56.37C33.142 56.6767 33.592 57.1033 33.9187 57.65C34.2454 58.1967 34.4087 58.8133 34.4087 59.5C34.4087 60.1867 34.2454 60.8033 33.9187 61.35C33.592 61.8967 33.142 62.3267 32.5687 62.64C31.9954 62.9467 31.352 63.1 30.6387 63.1ZM30.6387 61.96C31.1054 61.96 31.5254 61.8567 31.8987 61.65C32.272 61.4367 32.5654 61.1433 32.7787 60.77C32.992 60.39 33.0987 59.9667 33.0987 59.5C33.0987 59.0333 32.992 58.6133 32.7787 58.24C32.5654 57.86 32.272 57.5667 31.8987 57.36C31.5254 57.1467 31.1054 57.04 30.6387 57.04C30.172 57.04 29.752 57.1467 29.3787 57.36C29.0054 57.5667 28.712 57.86 28.4987 58.24C28.2854 58.6133 28.1787 59.0333 28.1787 59.5C28.1787 59.9667 28.2854 60.39 28.4987 60.77C28.712 61.1433 29.0054 61.4367 29.3787 61.65C29.752 61.8567 30.172 61.96 30.6387 61.96Z" fill="#979797"/>
<path fill-rule="evenodd" clip-rule="evenodd" d="M15.035 25.1932C15.0779 26.3775 15.0733 27.5501 14.9711 28.6845L11.4298 25.1432C12.606 25.1177 13.8228 25.1514 15.035 25.1932V25.1932ZM26.4378 13.0336C26.4436 13.159 26.4494 13.289 26.4552 13.4144C26.5156 14.5871 26.5678 15.7319 26.5493 16.8152L22.7537 13.0185C23.909 12.9512 25.1502 12.9767 26.4378 13.0336V13.0336ZM36.3081 10.9027C35.4025 11.3509 34.3517 11.6121 33.1941 11.7329L28.0262 6.56493C28.2352 5.54434 28.5754 4.58065 29.1013 3.69475L36.3081 10.9027ZM27.7349 11.7375C27.6896 10.5532 27.6907 9.37939 27.7859 8.24154L31.3737 11.8281C30.1894 11.8455 28.9598 11.7967 27.7349 11.7375V11.7375ZM21.2222 13.4036L26.252 18.4334C26.3031 18.4857 26.3774 18.481 26.4389 18.5112C26.2926 19.6641 25.9756 20.6847 25.3893 21.5161L18.2568 14.3847C19.0382 13.7694 20.0158 13.4002 21.1374 13.2016C21.17 13.269 21.1665 13.3479 21.2222 13.4036V13.4036ZM17.322 15.3662L24.4394 22.4835C23.6754 23.0617 22.7268 23.4228 21.6401 23.6295L16.327 18.3176C16.4675 17.1925 16.7659 16.1882 17.322 15.3662V15.3662ZM16.3329 23.877C16.3248 23.7191 16.319 23.5554 16.3108 23.3975C16.2528 22.2701 16.204 21.1694 16.2168 20.1244L19.9345 23.8422C18.8037 23.9188 17.5915 23.9141 16.3329 23.877V23.877ZM6.44879 26.0257C7.37533 25.6077 8.447 25.365 9.6162 25.2478L14.7203 30.3518C14.5032 31.3643 14.1572 32.3222 13.6219 33.1988L6.44879 26.0257ZM12.7998 34.2938C12.7023 34.403 12.6292 34.5237 12.5224 34.6294C12.2576 34.8941 12.2576 35.3237 12.5224 35.5884C12.6547 35.7208 12.8289 35.787 13.0019 35.787C13.1749 35.787 13.349 35.7208 13.4814 35.5884C15.0384 34.0326 15.7885 32.147 16.1403 30.1546C16.1403 30.1476 16.1437 30.143 16.1437 30.136C16.4236 28.5349 16.4479 26.8699 16.391 25.2363C20.0833 25.3385 23.7163 25.2282 25.8805 23.0616C25.8921 23.0511 25.8979 23.0395 25.9084 23.0279C25.9153 23.0221 25.9258 23.0244 25.9328 23.0175C25.9444 23.007 25.9397 22.9908 25.949 22.978C28.1771 20.6663 28.0041 17.1111 27.8102 13.3446C27.8067 13.2621 27.8021 13.1785 27.7986 13.0973C31.4897 13.2761 35.2457 13.3945 37.8059 11.5983C37.8396 11.5751 37.886 11.5832 37.9174 11.5519C37.9348 11.5345 37.9278 11.5066 37.9441 11.4868C38.1844 11.308 38.4317 11.1374 38.6488 10.9191C38.9136 10.6544 38.9136 10.2248 38.6488 9.96004C38.3841 9.69531 37.9545 9.69531 37.6898 9.96004C37.6213 10.0285 37.5354 10.075 37.4622 10.14L29.9106 2.58722C30.0255 2.45253 30.1161 2.30972 30.2438 2.182C30.5085 1.91728 30.5085 1.48768 30.2438 1.22296C29.9791 0.958233 29.5495 0.958233 29.2848 1.22296C28.9968 1.5109 28.7693 1.82323 28.5324 2.13092C28.5254 2.13788 28.5138 2.13556 28.5069 2.14137C28.4952 2.15414 28.4999 2.17272 28.4894 2.18433C26.4378 4.90937 26.259 8.36937 26.3774 11.6749C22.705 11.5159 19.0731 11.5635 16.8868 13.7498C14.5775 16.0592 14.7621 19.6573 14.9583 23.4668C14.9641 23.5887 14.9687 23.7118 14.9745 23.8349C10.7645 23.6886 6.43948 23.5713 3.89093 26.1187C3.6262 26.3834 3.6262 26.813 3.89093 27.0777C4.02445 27.2101 4.19745 27.2763 4.37045 27.2763C4.54345 27.2763 4.71761 27.2101 4.84997 27.0777C4.97305 26.9547 5.12515 26.8641 5.26099 26.7538L12.7998 34.2938Z" fill="#979797"/>
<mask id="mask0" mask-type="alpha" maskUnits="userSpaceOnUse" x="3" y="0" width="23" height="23">
<path fill-rule="evenodd" clip-rule="evenodd" d="M3 0.161133H25.9511V22.8102H3V0.161133Z" fill="white"/>
</mask>
<g mask="url(#mask0)">
<path fill-rule="evenodd" clip-rule="evenodd" d="M4.81011 22.8102C4.91577 22.8102 5.02491 22.7986 5.13173 22.7719C5.85856 22.5942 6.30674 21.8616 6.12909 21.1336C5.8516 19.9946 5.71111 18.8161 5.71111 17.6295C5.71111 14.0081 7.02893 10.6909 9.20246 8.12029L13.6366 12.5544C13.9013 12.8192 14.2473 12.9515 14.5945 12.9515C14.9416 12.9515 15.2888 12.8192 15.5535 12.5544C16.083 12.0238 16.083 11.167 15.5535 10.6363L11.131 6.21497C13.6761 4.12736 16.9282 2.87224 20.4684 2.87224C21.7513 2.87224 23.0239 3.03711 24.2488 3.36105C24.9745 3.55147 25.7152 3.12303 25.9057 2.39736C26.0972 1.67285 25.6665 0.930925 24.942 0.739348C23.4906 0.356193 21.9847 0.161133 20.4684 0.161133C10.8361 0.161133 3 7.99838 3 17.6295C3 19.0309 3.16487 20.4254 3.49346 21.7745C3.64556 22.3945 4.19939 22.8114 4.81011 22.8102" fill="#979797"/>
</g>
<mask id="mask1" mask-type="alpha" maskUnits="userSpaceOnUse" x="16" y="14" width="25" height="24">
<path fill-rule="evenodd" clip-rule="evenodd" d="M16.7378 14.1816H40.3933V37.5717H16.7378V14.1816Z" fill="white"/>
</mask>
<g mask="url(#mask1)">
<path fill-rule="evenodd" clip-rule="evenodd" d="M38.6205 14.2009C37.8821 14.3135 37.3886 15.1042 37.4989 15.8438C37.6208 16.6565 37.6812 17.4879 37.6812 18.3122C37.6812 22.3423 36.2298 26.0369 33.8276 28.9094L29.3516 24.4346C28.821 23.9051 27.963 23.9051 27.4336 24.4346C26.9041 24.964 26.9041 25.8221 27.4336 26.3515L31.9188 30.8367C29.0184 33.3365 25.2542 34.8599 21.1336 34.8599C20.1896 34.8599 19.2445 34.7809 18.3238 34.6218C17.576 34.4953 16.884 34.9922 16.7575 35.7307C16.6309 36.4691 17.1279 37.1692 17.8651 37.2958C18.9368 37.4792 20.0375 37.5721 21.1336 37.5721C31.7539 37.5721 40.3935 28.9314 40.3935 18.3122C40.3935 17.3532 40.3215 16.3895 40.1485 15.2319C40.0347 14.4935 39.3624 14.0859 38.6205 14.2009" fill="#979797"/>
</g>
</svg>
