<svg xmlns="http://www.w3.org/2000/svg" xmlns:xlink="http://www.w3.org/1999/xlink" width="174" height="16" viewBox="0 0 174 16">
    <defs>
        <path id="a" d="M0 .115h21.278v14.59H0z"/>
        <path id="c" d="M0 14.885h173.948V.295H0z"/>
    </defs>
    <g fill="none" fill-rule="evenodd">
        <g transform="translate(0 .18)">
            <mask id="b" fill="#fff">
                <use xlink:href="#a"/>
            </mask>
            <path fill="#000" d="M0 9.94c.87 0 3.768-.008 4.059-.008 0 1.488 1.846 2.374 7.011 2.374 4.452 0 6.083-.806 6.083-2.189C17.153 6.681.077 11.211.077 4.28.077 1.304 3.627.115 9.67.115c4.144 0 10.833.21 10.833 4.473h-3.32c0-2.005-4.367-2.074-7.264-2.074-4.566 0-5.91.595-5.89 1.748-.02 3.57 17.249-.997 17.249 5.876 0 3.436-3.78 4.568-10.476 4.568C5.718 14.706 0 14.35 0 9.939" mask="url(#b)"/>
        </g>
        <path fill="#000" d="M48.88 3.366h-9.593V14.31h-3.838V3.365h-9.593V.87h23.023zM66.702 8.55l-3.76-5.223h-.5l-3.76 5.223h8.02zm1.804 2.496H56.879l-2.36 3.264h-4.873L60.294.87h4.797l10.648 13.44h-4.873l-2.36-3.264zM86.098 6.726h9.785c1.42 0 2.494-.403 2.494-1.728 0-1.037-.978-1.632-2.494-1.632h-9.785v3.36zm12.26 7.583l-5.353-4.974-6.907-.019v4.993h-3.741V.87h13.718c3.492 0 6.216 1.344 6.216 4.128 0 2.765-2.302 4.165-5.391 4.318l5.775 4.993h-4.317z"/>
        <mask id="d" fill="#fff">
            <use xlink:href="#c"/>
        </mask>
        <path fill="#000" d="M140.564 14.31h3.742V.87h-3.742zM173.948 3.366h-9.593V14.31h-3.838V3.365h-9.593V.87h23.024zM118.7 9.767L112.056.879h-4.97l9.57 11.657zM128.978.86L118.974 14.32h3.94L133.948.879z" mask="url(#d)"/>
    </g>
</svg>
