<svg width="47" height="57" viewBox="0 0 47 57" fill="none" xmlns="http://www.w3.org/2000/svg">
<path d="M7.4227 46V53H6.3527L2.4927 48.26V53H1.2027V46H2.2727L6.1327 50.74V46H7.4227ZM11.5784 53.07C11.0384 53.07 10.5517 52.9533 10.1184 52.72C9.68507 52.4867 9.34507 52.1633 9.0984 51.75C8.8584 51.33 8.7384 50.8567 8.7384 50.33C8.7384 49.8033 8.8584 49.3333 9.0984 48.92C9.34507 48.5067 9.68507 48.1833 10.1184 47.95C10.5517 47.7167 11.0384 47.6 11.5784 47.6C12.1251 47.6 12.6151 47.7167 13.0484 47.95C13.4817 48.1833 13.8184 48.5067 14.0584 48.92C14.3051 49.3333 14.4284 49.8033 14.4284 50.33C14.4284 50.8567 14.3051 51.33 14.0584 51.75C13.8184 52.1633 13.4817 52.4867 13.0484 52.72C12.6151 52.9533 12.1251 53.07 11.5784 53.07ZM11.5784 52C12.0384 52 12.4184 51.8467 12.7184 51.54C13.0184 51.2333 13.1684 50.83 13.1684 50.33C13.1684 49.83 13.0184 49.4267 12.7184 49.12C12.4184 48.8133 12.0384 48.66 11.5784 48.66C11.1184 48.66 10.7384 48.8133 10.4384 49.12C10.1451 49.4267 9.9984 49.83 9.9984 50.33C9.9984 50.83 10.1451 51.2333 10.4384 51.54C10.7384 51.8467 11.1184 52 11.5784 52ZM20.0374 53.07C19.604 53.07 19.1807 53.0133 18.7674 52.9C18.354 52.7867 18.024 52.6433 17.7774 52.47L18.2574 51.52C18.4974 51.68 18.784 51.81 19.1174 51.91C19.4574 52.0033 19.7907 52.05 20.1174 52.05C20.864 52.05 21.2374 51.8533 21.2374 51.46C21.2374 51.2733 21.1407 51.1433 20.9474 51.07C20.7607 50.9967 20.4574 50.9267 20.0374 50.86C19.5974 50.7933 19.2374 50.7167 18.9574 50.63C18.684 50.5433 18.444 50.3933 18.2374 50.18C18.0374 49.96 17.9374 49.6567 17.9374 49.27C17.9374 48.7633 18.1474 48.36 18.5674 48.06C18.994 47.7533 19.5674 47.6 20.2874 47.6C20.654 47.6 21.0207 47.6433 21.3874 47.73C21.754 47.81 22.054 47.92 22.2874 48.06L21.8074 49.01C21.354 48.7433 20.844 48.61 20.2774 48.61C19.9107 48.61 19.6307 48.6667 19.4374 48.78C19.2507 48.8867 19.1574 49.03 19.1574 49.21C19.1574 49.41 19.2574 49.5533 19.4574 49.64C19.664 49.72 19.9807 49.7967 20.4074 49.87C20.834 49.9367 21.184 50.0133 21.4574 50.1C21.7307 50.1867 21.964 50.3333 22.1574 50.54C22.3574 50.7467 22.4574 51.04 22.4574 51.42C22.4574 51.92 22.2407 52.32 21.8074 52.62C21.374 52.92 20.784 53.07 20.0374 53.07ZM28.7039 47.66V53H27.5139V52.32C27.3139 52.56 27.0639 52.7467 26.7639 52.88C26.4639 53.0067 26.1405 53.07 25.7939 53.07C25.0805 53.07 24.5172 52.8733 24.1039 52.48C23.6972 52.08 23.4939 51.49 23.4939 50.71V47.66H24.7439V50.54C24.7439 51.02 24.8505 51.38 25.0639 51.62C25.2839 51.8533 25.5939 51.97 25.9939 51.97C26.4405 51.97 26.7939 51.8333 27.0539 51.56C27.3205 51.28 27.4539 50.88 27.4539 50.36V47.66H28.7039ZM35.6405 47.66V52.19C35.6405 54.07 34.6805 55.01 32.7605 55.01C32.2472 55.01 31.7605 54.9433 31.3005 54.81C30.8405 54.6833 30.4605 54.4967 30.1605 54.25L30.7205 53.31C30.9538 53.5033 31.2472 53.6567 31.6005 53.77C31.9605 53.89 32.3238 53.95 32.6905 53.95C33.2772 53.95 33.7072 53.8167 33.9805 53.55C34.2538 53.2833 34.3905 52.8767 34.3905 52.33V52.05C34.1772 52.2833 33.9172 52.46 33.6105 52.58C33.3038 52.7 32.9672 52.76 32.6005 52.76C32.0938 52.76 31.6338 52.6533 31.2205 52.44C30.8138 52.22 30.4905 51.9133 30.2505 51.52C30.0172 51.1267 29.9005 50.6767 29.9005 50.17C29.9005 49.6633 30.0172 49.2167 30.2505 48.83C30.4905 48.4367 30.8138 48.1333 31.2205 47.92C31.6338 47.7067 32.0938 47.6 32.6005 47.6C32.9872 47.6 33.3372 47.6633 33.6505 47.79C33.9705 47.9167 34.2372 48.11 34.4505 48.37V47.66H35.6405ZM32.7905 51.7C33.2638 51.7 33.6505 51.56 33.9505 51.28C34.2572 50.9933 34.4105 50.6233 34.4105 50.17C34.4105 49.7233 34.2572 49.36 33.9505 49.08C33.6505 48.8 33.2638 48.66 32.7905 48.66C32.3105 48.66 31.9172 48.8 31.6105 49.08C31.3105 49.36 31.1605 49.7233 31.1605 50.17C31.1605 50.6233 31.3105 50.9933 31.6105 51.28C31.9172 51.56 32.3105 51.7 32.7905 51.7ZM39.3239 47.6C40.1105 47.6 40.7105 47.79 41.1239 48.17C41.5439 48.5433 41.7539 49.11 41.7539 49.87V53H40.5739V52.35C40.4205 52.5833 40.2005 52.7633 39.9139 52.89C39.6339 53.01 39.2939 53.07 38.8939 53.07C38.4939 53.07 38.1439 53.0033 37.8439 52.87C37.5439 52.73 37.3105 52.54 37.1439 52.3C36.9839 52.0533 36.9039 51.7767 36.9039 51.47C36.9039 50.99 37.0805 50.6067 37.4339 50.32C37.7939 50.0267 38.3572 49.88 39.1239 49.88H40.5039V49.8C40.5039 49.4267 40.3905 49.14 40.1639 48.94C39.9439 48.74 39.6139 48.64 39.1739 48.64C38.8739 48.64 38.5772 48.6867 38.2839 48.78C37.9972 48.8733 37.7539 49.0033 37.5539 49.17L37.0639 48.26C37.3439 48.0467 37.6805 47.8833 38.0739 47.77C38.4672 47.6567 38.8839 47.6 39.3239 47.6ZM39.1539 52.16C39.4672 52.16 39.7439 52.09 39.9839 51.95C40.2305 51.8033 40.4039 51.5967 40.5039 51.33V50.71H39.2139C38.4939 50.71 38.1339 50.9467 38.1339 51.42C38.1339 51.6467 38.2239 51.8267 38.4039 51.96C38.5839 52.0933 38.8339 52.16 39.1539 52.16ZM44.5481 48.44C44.9081 47.88 45.5414 47.6 46.4481 47.6V48.79C46.3414 48.77 46.2448 48.76 46.1581 48.76C45.6714 48.76 45.2914 48.9033 45.0181 49.19C44.7448 49.47 44.6081 49.8767 44.6081 50.41V53H43.3581V47.66H44.5481V48.44Z" fill="#979797"/>
<mask id="mask0" mask-type="alpha" maskUnits="userSpaceOnUse" x="4" y="0" width="39" height="39">
<path fill-rule="evenodd" clip-rule="evenodd" d="M4 0.161133H42.5172V38.6798H4V0.161133Z" fill="white"/>
</mask>
<g mask="url(#mask0)">
<path fill-rule="evenodd" clip-rule="evenodd" d="M10.6508 8.72975L13.7056 11.7834C13.9703 12.0481 14.3163 12.1805 14.6634 12.1805C15.0106 12.1805 15.3578 12.0481 15.6225 11.7834C16.1519 11.2528 16.1519 10.3959 15.6225 9.86528L12.5677 6.81282C15.4553 4.36063 19.1847 2.87214 23.2589 2.87214C32.3838 2.87214 39.8053 10.296 39.8053 19.4198C39.8053 23.4951 38.3192 27.2233 35.867 30.1121L33.1628 27.4068C32.6334 26.8773 31.7754 26.8773 31.2459 27.4068C30.7165 27.9362 30.7165 28.7943 31.2459 29.3237L33.95 32.029C31.0636 34.4801 27.3342 35.9674 23.2589 35.9674C14.1352 35.9674 6.71126 28.5458 6.71126 19.4198C6.71126 15.3444 8.19859 11.6162 10.6508 8.72975M23.2587 38.6799C33.8779 38.6799 42.5175 30.0392 42.5175 19.42C42.5175 8.80203 33.8779 0.160156 23.2587 0.160156C12.6384 0.160156 4 8.80203 4 19.42C4 30.0392 12.6384 38.6799 23.2587 38.6799" fill="#979797"/>
</g>
<path fill-rule="evenodd" clip-rule="evenodd" d="M23.259 11.464L28.6708 14.3794L23.266 17.3135C22.0782 16.6656 19.6632 15.3536 17.8554 14.3748L23.259 11.464ZM31.5223 14.3747L23.259 9.92432L14.9956 14.3747C15.3973 14.5744 23.2648 18.8565 23.2648 18.8565L31.5223 14.3747Z" fill="#979797"/>
<path fill-rule="evenodd" clip-rule="evenodd" d="M25.429 20.883L30.1662 18.3159V24.1375L25.429 26.7V20.883ZM24.0728 28.9744L31.5222 24.9455V16.04L24.0728 20.0748V28.9744Z" fill="#979797"/>
<path fill-rule="evenodd" clip-rule="evenodd" d="M16.3638 18.3159L21.101 20.883V26.7L16.3638 24.1375V18.3159ZM15.0088 24.9455L22.4571 28.9744V20.0759L15.0088 16.04V24.9455Z" fill="#979797"/>
</svg>
