<svg width="64" height="64" viewBox="0 0 64 64" fill="none" xmlns="http://www.w3.org/2000/svg">
<path d="M7.17074 44V51H5.87074V48H2.25074V51H0.950742V44H2.25074V46.89H5.87074V44H7.17074ZM8.92645 45.66H10.1764V51H8.92645V45.66ZM9.55645 44.78C9.32978 44.78 9.13978 44.71 8.98645 44.57C8.83311 44.4233 8.75645 44.2433 8.75645 44.03C8.75645 43.8167 8.83311 43.64 8.98645 43.5C9.13978 43.3533 9.32978 43.28 9.55645 43.28C9.78311 43.28 9.97311 43.35 10.1264 43.49C10.2798 43.6233 10.3564 43.7933 10.3564 44C10.3564 44.22 10.2798 44.4067 10.1264 44.56C9.97978 44.7067 9.78978 44.78 9.55645 44.78ZM17.1171 45.66V50.19C17.1171 52.07 16.1571 53.01 14.2371 53.01C13.7237 53.01 13.2371 52.9433 12.7771 52.81C12.3171 52.6833 11.9371 52.4967 11.6371 52.25L12.1971 51.31C12.4304 51.5033 12.7237 51.6567 13.0771 51.77C13.4371 51.89 13.8004 51.95 14.1671 51.95C14.7537 51.95 15.1837 51.8167 15.4571 51.55C15.7304 51.2833 15.8671 50.8767 15.8671 50.33V50.05C15.6537 50.2833 15.3937 50.46 15.0871 50.58C14.7804 50.7 14.4437 50.76 14.0771 50.76C13.5704 50.76 13.1104 50.6533 12.6971 50.44C12.2904 50.22 11.9671 49.9133 11.7271 49.52C11.4937 49.1267 11.3771 48.6767 11.3771 48.17C11.3771 47.6633 11.4937 47.2167 11.7271 46.83C11.9671 46.4367 12.2904 46.1333 12.6971 45.92C13.1104 45.7067 13.5704 45.6 14.0771 45.6C14.4637 45.6 14.8137 45.6633 15.1271 45.79C15.4471 45.9167 15.7137 46.11 15.9271 46.37V45.66H17.1171ZM14.2671 49.7C14.7404 49.7 15.1271 49.56 15.4271 49.28C15.7337 48.9933 15.8871 48.6233 15.8871 48.17C15.8871 47.7233 15.7337 47.36 15.4271 47.08C15.1271 46.8 14.7404 46.66 14.2671 46.66C13.7871 46.66 13.3937 46.8 13.0871 47.08C12.7871 47.36 12.6371 47.7233 12.6371 48.17C12.6371 48.6233 12.7871 48.9933 13.0871 49.28C13.3937 49.56 13.7871 49.7 14.2671 49.7ZM21.7904 45.6C22.4638 45.6 23.0038 45.7967 23.4104 46.19C23.8171 46.5833 24.0204 47.1667 24.0204 47.94V51H22.7704V48.1C22.7704 47.6333 22.6604 47.2833 22.4404 47.05C22.2204 46.81 21.9071 46.69 21.5004 46.69C21.0404 46.69 20.6771 46.83 20.4104 47.11C20.1438 47.3833 20.0104 47.78 20.0104 48.3V51H18.7604V43.58H20.0104V46.28C20.2171 46.06 20.4704 45.8933 20.7704 45.78C21.0771 45.66 21.4171 45.6 21.7904 45.6ZM33.5898 45.66V52.94H32.3398V50.35C31.9198 50.83 31.3498 51.07 30.6298 51.07C30.1098 51.07 29.6431 50.9567 29.2298 50.73C28.8231 50.5033 28.5031 50.1833 28.2698 49.77C28.0431 49.3567 27.9298 48.8767 27.9298 48.33C27.9298 47.79 28.0465 47.3133 28.2798 46.9C28.5131 46.4867 28.8331 46.1667 29.2398 45.94C29.6465 45.7133 30.1098 45.6 30.6298 45.6C30.9965 45.6 31.3298 45.6633 31.6298 45.79C31.9365 45.9167 32.1931 46.1067 32.3998 46.36V45.66H33.5898ZM30.7698 50C31.2298 50 31.6098 49.8467 31.9098 49.54C32.2098 49.2333 32.3598 48.83 32.3598 48.33C32.3598 47.83 32.2098 47.4267 31.9098 47.12C31.6098 46.8133 31.2298 46.66 30.7698 46.66C30.3098 46.66 29.9298 46.8133 29.6298 47.12C29.3365 47.4267 29.1898 47.83 29.1898 48.33C29.1898 48.83 29.3365 49.2333 29.6298 49.54C29.9298 49.8467 30.3098 50 30.7698 50ZM40.3953 45.66V51H39.2053V50.32C39.0053 50.56 38.7553 50.7467 38.4553 50.88C38.1553 51.0067 37.8319 51.07 37.4853 51.07C36.7719 51.07 36.2086 50.8733 35.7953 50.48C35.3886 50.08 35.1853 49.49 35.1853 48.71V45.66H36.4353V48.54C36.4353 49.02 36.5419 49.38 36.7553 49.62C36.9753 49.8533 37.2853 49.97 37.6853 49.97C38.1319 49.97 38.4853 49.8333 38.7453 49.56C39.0119 49.28 39.1453 48.88 39.1453 48.36V45.66H40.3953ZM44.0719 45.6C44.8586 45.6 45.4586 45.79 45.8719 46.17C46.2919 46.5433 46.5019 47.11 46.5019 47.87V51H45.3219V50.35C45.1686 50.5833 44.9486 50.7633 44.6619 50.89C44.3819 51.01 44.0419 51.07 43.6419 51.07C43.2419 51.07 42.8919 51.0033 42.5919 50.87C42.2919 50.73 42.0586 50.54 41.8919 50.3C41.7319 50.0533 41.6519 49.7767 41.6519 49.47C41.6519 48.99 41.8286 48.6067 42.1819 48.32C42.5419 48.0267 43.1052 47.88 43.8719 47.88H45.2519V47.8C45.2519 47.4267 45.1386 47.14 44.9119 46.94C44.6919 46.74 44.3619 46.64 43.9219 46.64C43.6219 46.64 43.3252 46.6867 43.0319 46.78C42.7452 46.8733 42.5019 47.0033 42.3019 47.17L41.8119 46.26C42.0919 46.0467 42.4286 45.8833 42.8219 45.77C43.2152 45.6567 43.6319 45.6 44.0719 45.6ZM43.9019 50.16C44.2152 50.16 44.4919 50.09 44.7319 49.95C44.9786 49.8033 45.1519 49.5967 45.2519 49.33V48.71H43.9619C43.2419 48.71 42.8819 48.9467 42.8819 49.42C42.8819 49.6467 42.9719 49.8267 43.1519 49.96C43.3319 50.0933 43.5819 50.16 43.9019 50.16ZM48.1061 43.58H49.3561V51H48.1061V43.58ZM50.9968 45.66H52.2468V51H50.9968V45.66ZM51.6268 44.78C51.4001 44.78 51.2101 44.71 51.0568 44.57C50.9034 44.4233 50.8268 44.2433 50.8268 44.03C50.8268 43.8167 50.9034 43.64 51.0568 43.5C51.2101 43.3533 51.4001 43.28 51.6268 43.28C51.8534 43.28 52.0434 43.35 52.1968 43.49C52.3501 43.6233 52.4268 43.7933 52.4268 44C52.4268 44.22 52.3501 44.4067 52.1968 44.56C52.0501 44.7067 51.8601 44.78 51.6268 44.78ZM57.0974 50.71C56.9507 50.83 56.7707 50.92 56.5574 50.98C56.3507 51.04 56.1307 51.07 55.8974 51.07C55.3107 51.07 54.8574 50.9167 54.5374 50.61C54.2174 50.3033 54.0574 49.8567 54.0574 49.27V46.7H53.1774V45.7H54.0574V44.48H55.3074V45.7H56.7374V46.7H55.3074V49.24C55.3074 49.5 55.3707 49.7 55.4974 49.84C55.624 49.9733 55.8074 50.04 56.0474 50.04C56.3274 50.04 56.5607 49.9667 56.7474 49.82L57.0974 50.71ZM63.028 45.66L60.528 51.43C60.2947 52.01 60.0113 52.4167 59.678 52.65C59.3447 52.89 58.9413 53.01 58.468 53.01C58.2013 53.01 57.938 52.9667 57.678 52.88C57.418 52.7933 57.2047 52.6733 57.038 52.52L57.538 51.6C57.658 51.7133 57.798 51.8033 57.958 51.87C58.1247 51.9367 58.2913 51.97 58.458 51.97C58.678 51.97 58.858 51.9133 58.998 51.8C59.1447 51.6867 59.278 51.4967 59.398 51.23L59.488 51.02L57.158 45.66H58.458L60.138 49.61L61.828 45.66H63.028ZM15.0414 57.6C15.7148 57.6 16.2481 57.7967 16.6414 58.19C17.0348 58.5767 17.2314 59.16 17.2314 59.94V63H15.9814V60.1C15.9814 59.6333 15.8781 59.2833 15.6714 59.05C15.4648 58.81 15.1681 58.69 14.7814 58.69C14.3614 58.69 14.0248 58.83 13.7714 59.11C13.5181 59.3833 13.3914 59.7767 13.3914 60.29V63H12.1414V60.1C12.1414 59.6333 12.0381 59.2833 11.8314 59.05C11.6248 58.81 11.3281 58.69 10.9414 58.69C10.5148 58.69 10.1748 58.8267 9.92145 59.1C9.67478 59.3733 9.55145 59.77 9.55145 60.29V63H8.30145V57.66H9.49145V58.34C9.69145 58.1 9.94145 57.9167 10.2414 57.79C10.5414 57.6633 10.8748 57.6 11.2414 57.6C11.6414 57.6 11.9948 57.6767 12.3014 57.83C12.6148 57.9767 12.8614 58.1967 13.0414 58.49C13.2614 58.21 13.5448 57.9933 13.8914 57.84C14.2381 57.68 14.6214 57.6 15.0414 57.6ZM20.8688 57.6C21.6555 57.6 22.2555 57.79 22.6688 58.17C23.0888 58.5433 23.2988 59.11 23.2988 59.87V63H22.1188V62.35C21.9655 62.5833 21.7455 62.7633 21.4588 62.89C21.1788 63.01 20.8388 63.07 20.4388 63.07C20.0388 63.07 19.6888 63.0033 19.3888 62.87C19.0888 62.73 18.8555 62.54 18.6888 62.3C18.5288 62.0533 18.4488 61.7767 18.4488 61.47C18.4488 60.99 18.6255 60.6067 18.9788 60.32C19.3388 60.0267 19.9021 59.88 20.6688 59.88H22.0488V59.8C22.0488 59.4267 21.9355 59.14 21.7088 58.94C21.4888 58.74 21.1588 58.64 20.7188 58.64C20.4188 58.64 20.1221 58.6867 19.8288 58.78C19.5421 58.8733 19.2988 59.0033 19.0988 59.17L18.6088 58.26C18.8888 58.0467 19.2255 57.8833 19.6188 57.77C20.0121 57.6567 20.4288 57.6 20.8688 57.6ZM20.6988 62.16C21.0121 62.16 21.2888 62.09 21.5288 61.95C21.7755 61.8033 21.9488 61.5967 22.0488 61.33V60.71H20.7588C20.0388 60.71 19.6788 60.9467 19.6788 61.42C19.6788 61.6467 19.7688 61.8267 19.9488 61.96C20.1288 62.0933 20.3788 62.16 20.6988 62.16ZM28.113 62.71C27.9663 62.83 27.7863 62.92 27.573 62.98C27.3663 63.04 27.1463 63.07 26.913 63.07C26.3263 63.07 25.873 62.9167 25.553 62.61C25.233 62.3033 25.073 61.8567 25.073 61.27V58.7H24.193V57.7H25.073V56.48H26.323V57.7H27.753V58.7H26.323V61.24C26.323 61.5 26.3863 61.7 26.513 61.84C26.6397 61.9733 26.823 62.04 27.063 62.04C27.343 62.04 27.5763 61.9667 27.763 61.82L28.113 62.71ZM33.9855 60.36C33.9855 60.4467 33.9788 60.57 33.9655 60.73H29.7755C29.8488 61.1233 30.0388 61.4367 30.3455 61.67C30.6588 61.8967 31.0455 62.01 31.5055 62.01C32.0922 62.01 32.5755 61.8167 32.9555 61.43L33.6255 62.2C33.3855 62.4867 33.0822 62.7033 32.7155 62.85C32.3488 62.9967 31.9355 63.07 31.4755 63.07C30.8888 63.07 30.3722 62.9533 29.9255 62.72C29.4788 62.4867 29.1322 62.1633 28.8855 61.75C28.6455 61.33 28.5255 60.8567 28.5255 60.33C28.5255 59.81 28.6422 59.3433 28.8755 58.93C29.1155 58.51 29.4455 58.1833 29.8655 57.95C30.2855 57.7167 30.7588 57.6 31.2855 57.6C31.8055 57.6 32.2688 57.7167 32.6755 57.95C33.0888 58.1767 33.4088 58.5 33.6355 58.92C33.8688 59.3333 33.9855 59.8133 33.9855 60.36ZM31.2855 58.6C30.8855 58.6 30.5455 58.72 30.2655 58.96C29.9922 59.1933 29.8255 59.5067 29.7655 59.9H32.7955C32.7422 59.5133 32.5788 59.2 32.3055 58.96C32.0322 58.72 31.6922 58.6 31.2855 58.6ZM36.3762 58.44C36.7362 57.88 37.3695 57.6 38.2762 57.6V58.79C38.1695 58.77 38.0729 58.76 37.9862 58.76C37.4995 58.76 37.1195 58.9033 36.8462 59.19C36.5729 59.47 36.4362 59.8767 36.4362 60.41V63H35.1862V57.66H36.3762V58.44ZM39.3366 57.66H40.5866V63H39.3366V57.66ZM39.9666 56.78C39.7399 56.78 39.5499 56.71 39.3966 56.57C39.2433 56.4233 39.1666 56.2433 39.1666 56.03C39.1666 55.8167 39.2433 55.64 39.3966 55.5C39.5499 55.3533 39.7399 55.28 39.9666 55.28C40.1933 55.28 40.3833 55.35 40.5366 55.49C40.6899 55.6233 40.7666 55.7933 40.7666 56C40.7666 56.22 40.6899 56.4067 40.5366 56.56C40.3899 56.7067 40.1999 56.78 39.9666 56.78ZM44.2672 57.6C45.0539 57.6 45.6539 57.79 46.0672 58.17C46.4872 58.5433 46.6972 59.11 46.6972 59.87V63H45.5172V62.35C45.3639 62.5833 45.1439 62.7633 44.8572 62.89C44.5772 63.01 44.2372 63.07 43.8372 63.07C43.4372 63.07 43.0872 63.0033 42.7872 62.87C42.4872 62.73 42.2539 62.54 42.0872 62.3C41.9272 62.0533 41.8472 61.7767 41.8472 61.47C41.8472 60.99 42.0239 60.6067 42.3772 60.32C42.7372 60.0267 43.3006 59.88 44.0672 59.88H45.4472V59.8C45.4472 59.4267 45.3339 59.14 45.1072 58.94C44.8872 58.74 44.5572 58.64 44.1172 58.64C43.8172 58.64 43.5206 58.6867 43.2272 58.78C42.9406 58.8733 42.6972 59.0033 42.4972 59.17L42.0072 58.26C42.2872 58.0467 42.6239 57.8833 43.0172 57.77C43.4106 57.6567 43.8272 57.6 44.2672 57.6ZM44.0972 62.16C44.4106 62.16 44.6872 62.09 44.9272 61.95C45.1739 61.8033 45.3472 61.5967 45.4472 61.33V60.71H44.1572C43.4372 60.71 43.0772 60.9467 43.0772 61.42C43.0772 61.6467 43.1672 61.8267 43.3472 61.96C43.5272 62.0933 43.7772 62.16 44.0972 62.16ZM48.3014 55.58H49.5514V63H48.3014V55.58ZM52.8421 63.07C52.4087 63.07 51.9854 63.0133 51.5721 62.9C51.1587 62.7867 50.8287 62.6433 50.5821 62.47L51.0621 61.52C51.3021 61.68 51.5887 61.81 51.9221 61.91C52.2621 62.0033 52.5954 62.05 52.9221 62.05C53.6687 62.05 54.0421 61.8533 54.0421 61.46C54.0421 61.2733 53.9454 61.1433 53.7521 61.07C53.5654 60.9967 53.2621 60.9267 52.8421 60.86C52.4021 60.7933 52.0421 60.7167 51.7621 60.63C51.4887 60.5433 51.2487 60.3933 51.0421 60.18C50.8421 59.96 50.7421 59.6567 50.7421 59.27C50.7421 58.7633 50.9521 58.36 51.3721 58.06C51.7987 57.7533 52.3721 57.6 53.0921 57.6C53.4587 57.6 53.8254 57.6433 54.1921 57.73C54.5587 57.81 54.8587 57.92 55.0921 58.06L54.6121 59.01C54.1587 58.7433 53.6487 58.61 53.0821 58.61C52.7154 58.61 52.4354 58.6667 52.2421 58.78C52.0554 58.8867 51.9621 59.03 51.9621 59.21C51.9621 59.41 52.0621 59.5533 52.2621 59.64C52.4687 59.72 52.7854 59.7967 53.2121 59.87C53.6387 59.9367 53.9887 60.0133 54.2621 60.1C54.5354 60.1867 54.7687 60.3333 54.9621 60.54C55.1621 60.7467 55.2621 61.04 55.2621 61.42C55.2621 61.92 55.0454 62.32 54.6121 62.62C54.1787 62.92 53.5887 63.07 52.8421 63.07Z" fill="#979797"/>
<mask id="mask0" mask-type="alpha" maskUnits="userSpaceOnUse" x="12" y="0" width="39" height="39">
<path fill-rule="evenodd" clip-rule="evenodd" d="M12 0.161133H50.518V38.6808H12V0.161133Z" fill="white"/>
</mask>
<g mask="url(#mask0)">
<path fill-rule="evenodd" clip-rule="evenodd" d="M32.0563 0.179005C26.9093 -0.0404384 22.0014 1.76735 18.2175 5.25057C14.4324 8.73496 12.2298 13.4826 12.0162 18.6227C11.8571 22.4809 12.8394 26.2486 14.8585 29.5193C15.2509 30.1556 16.0846 30.3542 16.7232 29.9605C17.3606 29.5681 17.558 28.7321 17.1644 28.0947C15.4321 25.2861 14.588 22.049 14.7261 18.7353C14.9084 14.3197 16.801 10.2397 20.052 7.2453C23.3053 4.25321 27.5003 2.71363 31.9448 2.88779C41.0616 3.2663 48.1697 10.9909 47.7923 20.1077C47.4138 29.2233 39.6788 36.3012 30.5736 35.954C28.2271 35.8565 25.9804 35.2817 23.8951 34.2437C23.2217 33.9128 22.4089 34.1857 22.0769 34.8556C21.7437 35.5256 22.0177 36.3383 22.6876 36.6727C25.1154 37.8802 27.7301 38.5502 30.461 38.664C30.7304 38.6744 30.9997 38.6814 31.2691 38.6814C41.5237 38.6814 50.0727 30.5597 50.5011 20.2191C50.9412 9.60925 42.6674 0.619052 32.0563 0.179005" fill="#979797"/>
</g>
<path fill-rule="evenodd" clip-rule="evenodd" d="M33.8174 25.3707C31.8064 26.8975 29.8721 27.5338 28.0643 27.2714C25.6435 26.9172 24.2339 25.0235 24.22 25.0049C24.0145 24.724 23.629 24.6427 23.3306 24.8168C23.1286 24.9341 18.3868 27.7753 18.4889 34.917C18.4936 35.2874 18.7955 35.5846 19.167 35.5846H19.1763C19.5513 35.5788 19.8497 35.2723 19.8451 34.8961C19.7708 29.7665 22.4505 27.1634 23.5547 26.3077C24.2351 27.0287 25.7004 28.2885 27.8472 28.6089C30.037 28.9398 32.3185 28.2107 34.6371 26.4505C39.9932 22.3867 41.0091 15.7245 40.2533 11.2567C40.2115 11.0047 40.0315 10.798 39.7877 10.7214C39.545 10.6459 39.2791 10.7133 39.1003 10.8933C36.849 13.1899 34.6592 13.4 32.1223 13.6438C30.3667 13.8122 28.3766 14.0026 26.2252 14.9535C19.9716 17.7146 22.2984 23.2308 22.3216 23.2866C22.4099 23.4851 22.5864 23.6302 22.7988 23.6778C23.0102 23.7231 23.2342 23.6651 23.3945 23.5199C23.4351 23.4839 27.5476 19.8602 32.8828 20.6509C33.2508 20.6997 33.5991 20.45 33.6514 20.0797C33.7071 19.7093 33.4517 19.3644 33.0813 19.3087C28.5473 18.6388 24.8853 20.7496 23.3144 21.8677C23.052 20.4872 23.1042 17.8133 26.7732 16.1936C28.725 15.332 30.5177 15.1602 32.2523 14.993C34.5895 14.7689 36.8142 14.5564 39.0643 12.7556C39.307 16.2841 38.4257 21.8758 33.8174 25.3707" fill="#979797"/>
</svg>
