<svg width="64" height="71" viewBox="0 0 64 71" fill="none" xmlns="http://www.w3.org/2000/svg">
<path d="M1.85952 49H3.47952V56H1.85952V49ZM9.49877 56.12C8.78544 56.12 8.13877 55.9667 7.55877 55.66C6.98544 55.3467 6.53211 54.9167 6.19877 54.37C5.87211 53.8167 5.70877 53.1933 5.70877 52.5C5.70877 51.8067 5.87211 51.1867 6.19877 50.64C6.53211 50.0867 6.98544 49.6567 7.55877 49.35C8.13877 49.0367 8.78877 48.88 9.50877 48.88C10.1154 48.88 10.6621 48.9867 11.1488 49.2C11.6421 49.4133 12.0554 49.72 12.3888 50.12L11.3488 51.08C10.8754 50.5333 10.2888 50.26 9.58877 50.26C9.15544 50.26 8.76877 50.3567 8.42877 50.55C8.08877 50.7367 7.82211 51 7.62877 51.34C7.44211 51.68 7.34877 52.0667 7.34877 52.5C7.34877 52.9333 7.44211 53.32 7.62877 53.66C7.82211 54 8.08877 54.2667 8.42877 54.46C8.76877 54.6467 9.15544 54.74 9.58877 54.74C10.2888 54.74 10.8754 54.4633 11.3488 53.91L12.3888 54.87C12.0554 55.2767 11.6421 55.5867 11.1488 55.8C10.6554 56.0133 10.1054 56.12 9.49877 56.12ZM17.7343 56.12C17.0076 56.12 16.3509 55.9633 15.7643 55.65C15.1843 55.3367 14.7276 54.9067 14.3943 54.36C14.0676 53.8067 13.9043 53.1867 13.9043 52.5C13.9043 51.8133 14.0676 51.1967 14.3943 50.65C14.7276 50.0967 15.1843 49.6633 15.7643 49.35C16.3509 49.0367 17.0076 48.88 17.7343 48.88C18.4609 48.88 19.1143 49.0367 19.6943 49.35C20.2743 49.6633 20.7309 50.0967 21.0643 50.65C21.3976 51.1967 21.5643 51.8133 21.5643 52.5C21.5643 53.1867 21.3976 53.8067 21.0643 54.36C20.7309 54.9067 20.2743 55.3367 19.6943 55.65C19.1143 55.9633 18.4609 56.12 17.7343 56.12ZM17.7343 54.74C18.1476 54.74 18.5209 54.6467 18.8543 54.46C19.1876 54.2667 19.4476 54 19.6343 53.66C19.8276 53.32 19.9243 52.9333 19.9243 52.5C19.9243 52.0667 19.8276 51.68 19.6343 51.34C19.4476 51 19.1876 50.7367 18.8543 50.55C18.5209 50.3567 18.1476 50.26 17.7343 50.26C17.3209 50.26 16.9476 50.3567 16.6143 50.55C16.2809 50.7367 16.0176 51 15.8243 51.34C15.6376 51.68 15.5443 52.0667 15.5443 52.5C15.5443 52.9333 15.6376 53.32 15.8243 53.66C16.0176 54 16.2809 54.2667 16.6143 54.46C16.9476 54.6467 17.3209 54.74 17.7343 54.74ZM32.4198 54.68V56H27.1298V54.95L29.8298 52.4C30.1165 52.1267 30.3098 51.8933 30.4098 51.7C30.5098 51.5 30.5598 51.3033 30.5598 51.11C30.5598 50.83 30.4631 50.6167 30.2698 50.47C30.0831 50.3167 29.8065 50.24 29.4398 50.24C29.1331 50.24 28.8565 50.3 28.6098 50.42C28.3631 50.5333 28.1565 50.7067 27.9898 50.94L26.8098 50.18C27.0831 49.7733 27.4598 49.4567 27.9398 49.23C28.4198 48.9967 28.9698 48.88 29.5898 48.88C30.1098 48.88 30.5631 48.9667 30.9498 49.14C31.3431 49.3067 31.6465 49.5467 31.8598 49.86C32.0798 50.1667 32.1898 50.53 32.1898 50.95C32.1898 51.33 32.1098 51.6867 31.9498 52.02C31.7898 52.3533 31.4798 52.7333 31.0198 53.16L29.4098 54.68H32.4198ZM39.3262 54.68V56H34.0362V54.95L36.7362 52.4C37.0229 52.1267 37.2162 51.8933 37.3162 51.7C37.4162 51.5 37.4662 51.3033 37.4662 51.11C37.4662 50.83 37.3696 50.6167 37.1762 50.47C36.9896 50.3167 36.7129 50.24 36.3462 50.24C36.0396 50.24 35.7629 50.3 35.5162 50.42C35.2696 50.5333 35.0629 50.7067 34.8962 50.94L33.7162 50.18C33.9896 49.7733 34.3662 49.4567 34.8462 49.23C35.3262 48.9967 35.8762 48.88 36.4962 48.88C37.0162 48.88 37.4696 48.9667 37.8562 49.14C38.2496 49.3067 38.5529 49.5467 38.7662 49.86C38.9862 50.1667 39.0962 50.53 39.0962 50.95C39.0962 51.33 39.0162 51.6867 38.8562 52.02C38.6962 52.3533 38.3862 52.7333 37.9262 53.16L36.3162 54.68H39.3262ZM43.9831 56.12C43.4031 56.12 42.8865 55.9767 42.4331 55.69C41.9798 55.4033 41.6231 54.99 41.3631 54.45C41.1098 53.9033 40.9831 53.2533 40.9831 52.5C40.9831 51.7467 41.1098 51.1 41.3631 50.56C41.6231 50.0133 41.9798 49.5967 42.4331 49.31C42.8865 49.0233 43.4031 48.88 43.9831 48.88C44.5631 48.88 45.0798 49.0233 45.5331 49.31C45.9865 49.5967 46.3398 50.0133 46.5931 50.56C46.8531 51.1 46.9831 51.7467 46.9831 52.5C46.9831 53.2533 46.8531 53.9033 46.5931 54.45C46.3398 54.99 45.9865 55.4033 45.5331 55.69C45.0798 55.9767 44.5631 56.12 43.9831 56.12ZM43.9831 54.75C44.4098 54.75 44.7431 54.5667 44.9831 54.2C45.2298 53.8333 45.3531 53.2667 45.3531 52.5C45.3531 51.7333 45.2298 51.1667 44.9831 50.8C44.7431 50.4333 44.4098 50.25 43.9831 50.25C43.5631 50.25 43.2298 50.4333 42.9831 50.8C42.7431 51.1667 42.6231 51.7333 42.6231 52.5C42.6231 53.2667 42.7431 53.8333 42.9831 54.2C43.2298 54.5667 43.5631 54.75 43.9831 54.75ZM51.7783 56.12C51.1983 56.12 50.6816 55.9767 50.2283 55.69C49.7749 55.4033 49.4183 54.99 49.1583 54.45C48.9049 53.9033 48.7783 53.2533 48.7783 52.5C48.7783 51.7467 48.9049 51.1 49.1583 50.56C49.4183 50.0133 49.7749 49.5967 50.2283 49.31C50.6816 49.0233 51.1983 48.88 51.7783 48.88C52.3583 48.88 52.8749 49.0233 53.3283 49.31C53.7816 49.5967 54.1349 50.0133 54.3883 50.56C54.6483 51.1 54.7783 51.7467 54.7783 52.5C54.7783 53.2533 54.6483 53.9033 54.3883 54.45C54.1349 54.99 53.7816 55.4033 53.3283 55.69C52.8749 55.9767 52.3583 56.12 51.7783 56.12ZM51.7783 54.75C52.2049 54.75 52.5383 54.5667 52.7783 54.2C53.0249 53.8333 53.1483 53.2667 53.1483 52.5C53.1483 51.7333 53.0249 51.1667 52.7783 50.8C52.5383 50.4333 52.2049 50.25 51.7783 50.25C51.3583 50.25 51.0249 50.4333 50.7783 50.8C50.5383 51.1667 50.4183 51.7333 50.4183 52.5C50.4183 53.2667 50.5383 53.8333 50.7783 54.2C51.0249 54.5667 51.3583 54.75 51.7783 54.75ZM59.5734 56.12C58.9934 56.12 58.4767 55.9767 58.0234 55.69C57.57 55.4033 57.2134 54.99 56.9534 54.45C56.7 53.9033 56.5734 53.2533 56.5734 52.5C56.5734 51.7467 56.7 51.1 56.9534 50.56C57.2134 50.0133 57.57 49.5967 58.0234 49.31C58.4767 49.0233 58.9934 48.88 59.5734 48.88C60.1534 48.88 60.67 49.0233 61.1234 49.31C61.5767 49.5967 61.93 50.0133 62.1834 50.56C62.4434 51.1 62.5734 51.7467 62.5734 52.5C62.5734 53.2533 62.4434 53.9033 62.1834 54.45C61.93 54.99 61.5767 55.4033 61.1234 55.69C60.67 55.9767 60.1534 56.12 59.5734 56.12ZM59.5734 54.75C60 54.75 60.3334 54.5667 60.5734 54.2C60.82 53.8333 60.9434 53.2667 60.9434 52.5C60.9434 51.7333 60.82 51.1667 60.5734 50.8C60.3334 50.4333 60 50.25 59.5734 50.25C59.1534 50.25 58.82 50.4333 58.5734 50.8C58.3334 51.1667 58.2134 51.7333 58.2134 52.5C58.2134 53.2667 58.3334 53.8333 58.5734 54.2C58.82 54.5667 59.1534 54.75 59.5734 54.75ZM4.44781 68.12C3.73447 68.12 3.08781 67.9667 2.50781 67.66C1.93447 67.3467 1.48114 66.9167 1.14781 66.37C0.821138 65.8167 0.657805 65.1933 0.657805 64.5C0.657805 63.8067 0.821138 63.1867 1.14781 62.64C1.48114 62.0867 1.93447 61.6567 2.50781 61.35C3.08781 61.0367 3.73781 60.88 4.45781 60.88C5.06447 60.88 5.61114 60.9867 6.09781 61.2C6.59114 61.4133 7.00447 61.72 7.33781 62.12L6.29781 63.08C5.82447 62.5333 5.23781 62.26 4.53781 62.26C4.10447 62.26 3.71781 62.3567 3.37781 62.55C3.03781 62.7367 2.77114 63 2.57781 63.34C2.39114 63.68 2.29781 64.0667 2.29781 64.5C2.29781 64.9333 2.39114 65.32 2.57781 65.66C2.77114 66 3.03781 66.2667 3.37781 66.46C3.71781 66.6467 4.10447 66.74 4.53781 66.74C5.23781 66.74 5.82447 66.4633 6.29781 65.91L7.33781 66.87C7.00447 67.2767 6.59114 67.5867 6.09781 67.8C5.60447 68.0133 5.05447 68.12 4.44781 68.12ZM14.8598 66.7V68H9.43979V61H14.7298V62.3H11.0498V63.82H14.2998V65.08H11.0498V66.7H14.8598ZM21.6168 68L20.2668 66.05H20.1868H18.7768V68H17.1568V61H20.1868C20.8068 61 21.3434 61.1033 21.7968 61.31C22.2568 61.5167 22.6101 61.81 22.8568 62.19C23.1034 62.57 23.2268 63.02 23.2268 63.54C23.2268 64.06 23.1001 64.51 22.8468 64.89C22.6001 65.2633 22.2468 65.55 21.7868 65.75L23.3568 68H21.6168ZM21.5868 63.54C21.5868 63.1467 21.4601 62.8467 21.2068 62.64C20.9534 62.4267 20.5834 62.32 20.0968 62.32H18.7768V64.76H20.0968C20.5834 64.76 20.9534 64.6533 21.2068 64.44C21.4601 64.2267 21.5868 63.9267 21.5868 63.54ZM26.8706 62.32H24.6306V61H30.7306V62.32H28.4906V68H26.8706V62.32ZM32.6103 61H34.2303V68H32.6103V61ZM38.5195 62.3V64.15H41.7595V65.45H38.5195V68H36.8995V61H42.1895V62.3H38.5195ZM44.2942 61H45.9142V68H44.2942V61ZM54.0035 66.7V68H48.5835V61H53.8735V62.3H50.1935V63.82H53.4435V65.08H50.1935V66.7H54.0035ZM56.3005 61H59.4805C60.2405 61 60.9105 61.1467 61.4905 61.44C62.0771 61.7267 62.5305 62.1333 62.8505 62.66C63.1771 63.1867 63.3405 63.8 63.3405 64.5C63.3405 65.2 63.1771 65.8133 62.8505 66.34C62.5305 66.8667 62.0771 67.2767 61.4905 67.57C60.9105 67.8567 60.2405 68 59.4805 68H56.3005V61ZM59.4005 66.67C60.1005 66.67 60.6571 66.4767 61.0705 66.09C61.4905 65.6967 61.7005 65.1667 61.7005 64.5C61.7005 63.8333 61.4905 63.3067 61.0705 62.92C60.6571 62.5267 60.1005 62.33 59.4005 62.33H57.9205V66.67H59.4005Z" fill="#979797"/>
<mask id="mask0" mask-type="alpha" maskUnits="userSpaceOnUse" x="15" y="0" width="35" height="34">
<path fill-rule="evenodd" clip-rule="evenodd" d="M15.5933 0H49.7895V33.4092H15.5933V0Z" fill="white"/>
</mask>
<g mask="url(#mask0)">
<path fill-rule="evenodd" clip-rule="evenodd" d="M32.5344 29.8113C32.8527 29.8113 33.1707 29.885 33.4656 30.0321L35.8582 31.2267L37.5364 29.1494C37.9414 28.648 38.5419 28.3745 39.1893 28.3758L41.8649 28.4175L42.4725 25.8196C42.6192 25.1931 43.0391 24.6788 43.625 24.4085L46.0539 23.2882L45.4707 20.6847C45.33 20.0571 45.4845 19.4117 45.895 18.9149L47.5954 16.8549L45.937 14.7616C45.5369 14.257 45.3953 13.6086 45.5488 12.9832L46.1848 10.3921L43.7795 9.22342C43.1991 8.94126 42.7897 8.41882 42.6558 7.78935L42.1008 5.17932L39.4249 5.16661C38.78 5.16391 38.1832 4.87039 37.7885 4.36093L36.1526 2.24928L33.7362 3.39551C33.1533 3.67227 32.488 3.66524 31.9105 3.37713L29.5183 2.18225L27.8398 4.26012C27.435 4.7612 26.8367 5.03445 26.1871 5.0331L23.5115 4.99175L22.9037 7.58935C22.7573 8.21638 22.3371 8.73071 21.7512 9.00099L19.3226 10.121L19.9055 12.7243C20.0462 13.3527 19.8916 13.9978 19.4814 14.4946L17.7808 16.5541L19.4391 18.6473C19.8393 19.1527 19.9808 19.8009 19.8274 20.4257L19.1916 23.0171L21.5967 24.1861C22.1774 24.4679 22.5868 24.9909 22.7207 25.6204L23.2754 28.2296L25.9512 28.2426C26.5962 28.2456 27.1929 28.5391 27.5879 29.0485L29.2238 31.1599L31.6402 30.014C31.9252 29.8788 32.2299 29.8113 32.5344 29.8113M35.8787 33.4092C35.5642 33.4092 35.2473 33.3386 34.9537 33.1919L32.5362 31.9851L30.0943 33.143C29.2167 33.5594 28.1483 33.3051 27.554 32.5381L25.9013 30.4045L23.1972 30.3916C22.2253 30.3872 21.3735 29.6959 21.1718 28.7478L20.6111 26.111L18.1803 24.9296C17.3065 24.505 16.8399 23.5136 17.0709 22.5725L17.7135 19.9539L16.0377 17.8387C15.4353 17.0781 15.4464 15.983 16.064 15.2349L17.7826 13.1535L17.1935 10.5232C16.9815 9.57697 17.4681 8.59506 18.3506 8.1883L20.8044 7.05693L21.4187 4.43176C21.6394 3.48797 22.5083 2.81931 23.477 2.8285L26.1808 2.87039L27.8766 0.771175C28.4861 0.0165707 29.5591 -0.217216 30.4283 0.217114L32.8463 1.4247L35.2882 0.266574C36.1658 -0.149648 37.234 0.10441 37.8286 0.871447L39.4815 3.00472L42.1853 3.01742C43.1575 3.02256 44.0094 3.71392 44.2111 4.6615L44.7717 7.29856L47.2022 8.47965C48.076 8.90398 48.5426 9.89535 48.3116 10.837L47.6691 13.4551L49.3451 15.5708C49.9475 16.3311 49.9364 17.4263 49.3185 18.1744L47.6 20.256L48.1891 22.8863C48.4011 23.8323 47.9144 24.8145 47.032 25.2212L44.5781 26.3526L43.9641 28.9778C43.7431 29.9218 42.8745 30.5932 41.9055 30.5808L39.202 30.5386L37.5059 32.6383C37.1023 33.1381 36.4952 33.4092 35.8787 33.4092" fill="#979797"/>
</g>
<path fill-rule="evenodd" clip-rule="evenodd" d="M42.1953 42.2584C42.0752 42.2584 41.9568 42.2187 41.86 42.1425C41.6902 42.0095 37.674 38.8105 34.9583 32.475C34.8406 32.2004 34.9686 31.8826 35.2438 31.7656C35.5192 31.6472 35.8378 31.7756 35.9554 32.0499C37.9429 36.6867 40.6972 39.6065 41.9126 40.747L43.4785 35.3494C43.5409 35.134 43.7304 34.9791 43.9546 34.9607C43.9668 34.9597 45.1255 34.8637 48.4979 34.5518C44.6502 30.5588 42.8276 27.929 42.747 27.812C42.5779 27.5661 42.6408 27.2296 42.8875 27.0609C43.1345 26.8917 43.4717 26.9544 43.6414 27.2004C43.662 27.2301 45.7472 30.2361 50.0635 34.6064C50.2105 34.7551 50.2585 34.9748 50.1866 35.1707C50.1148 35.367 49.9361 35.5045 49.7276 35.5237C46.6638 35.8089 45.0726 35.9494 44.4165 36.0062L42.7161 41.8681C42.666 42.0406 42.5331 42.1773 42.3612 42.2325C42.307 42.25 42.2509 42.2584 42.1953 42.2584" fill="#979797"/>
<mask id="mask1" mask-type="alpha" maskUnits="userSpaceOnUse" x="14" y="26" width="17" height="17">
<path fill-rule="evenodd" clip-rule="evenodd" d="M14.7344 26.9663H30.0393V42.2586H14.7344V26.9663Z" fill="white"/>
</mask>
<g mask="url(#mask1)">
<path fill-rule="evenodd" clip-rule="evenodd" d="M22.7585 42.2586C22.703 42.2586 22.6468 42.2502 22.5926 42.2326C22.4207 42.1775 22.2879 42.0407 22.2377 41.8683L20.5371 36.0063C19.8812 35.9496 18.2901 35.809 15.2263 35.5239C15.0178 35.5047 14.8391 35.3671 14.7673 35.1709C14.6954 34.975 14.7434 34.7552 14.8904 34.6066C19.2067 30.2363 21.2918 27.2303 21.3124 27.2006C21.4819 26.9549 21.8197 26.8924 22.0664 27.0611C22.3131 27.2297 22.376 27.5662 22.2068 27.8122C22.1263 27.9292 20.3036 30.559 16.456 34.552C19.8284 34.8639 20.9868 34.9598 20.9993 34.9609C21.2235 34.9793 21.413 35.1342 21.4754 35.3496L23.041 40.7461C24.2578 39.6023 27.0158 36.6753 28.9982 32.0501C29.1158 31.7757 29.4347 31.649 29.7098 31.7657C29.9853 31.8828 30.1133 32.2006 29.9956 32.4752C27.2799 38.8107 23.2636 42.0097 23.0939 42.1426C22.9971 42.2189 22.8786 42.2586 22.7585 42.2586" fill="#979797"/>
</g>
<path fill-rule="evenodd" clip-rule="evenodd" d="M31.8199 10.5032C31.8042 10.5032 31.7885 10.5026 31.7728 10.5018C31.5353 10.488 31.3157 10.3713 31.172 10.1823L29.7947 8.37287C29.5234 8.0161 29.5933 7.50745 29.9512 7.23691C30.309 6.96555 30.8193 7.03636 31.0909 7.39258L31.8926 8.44638L34.2987 5.94824C34.6097 5.62553 35.1245 5.61499 35.4485 5.92527C35.7725 6.23527 35.7831 6.74852 35.4718 7.07177L32.4066 10.254C32.2526 10.4137 32.0406 10.5032 31.8199 10.5032" fill="#979797"/>
<path fill-rule="evenodd" clip-rule="evenodd" d="M25.1064 12.3708C25.1064 12.2972 25.139 12.2656 25.2143 12.2656H26.5862C26.6618 12.2656 26.6943 12.2972 26.6943 12.3708V19.2949C26.6943 19.3687 26.6618 19.4 26.5862 19.4H25.2143C25.139 19.4 25.1064 19.3687 25.1064 19.2949V12.3708Z" fill="#979797"/>
<path fill-rule="evenodd" clip-rule="evenodd" d="M27.9023 15.8329C27.9023 14.941 27.9671 14.2907 28.1076 13.9023C28.4963 12.7588 29.4252 12.1504 30.7214 12.1504C31.9636 12.1504 32.8602 12.7274 33.2815 13.7345C33.3137 13.7977 33.3029 13.8393 33.2272 13.8604L32.0501 14.3745C31.9853 14.4061 31.9313 14.3956 31.8988 14.322C31.6613 13.7872 31.2723 13.5142 30.7322 13.5142C30.1705 13.5142 29.8034 13.7766 29.6307 14.3012C29.555 14.5426 29.5117 15.0461 29.5117 15.8329C29.5117 16.6196 29.555 17.1232 29.6307 17.3645C29.8034 17.8891 30.1705 18.1515 30.7322 18.1515C31.2723 18.1515 31.6613 17.8786 31.8988 17.3437C31.9313 17.2702 31.9853 17.2596 32.0501 17.2913L33.2272 17.8053C33.3029 17.8264 33.3137 17.868 33.2815 17.9313C32.8602 18.9383 31.9636 19.5154 30.7214 19.5154C29.4252 19.5154 28.4963 18.907 28.1076 17.7634C27.9671 17.3751 27.9023 16.7248 27.9023 15.8329" fill="#979797"/>
<path fill-rule="evenodd" clip-rule="evenodd" d="M38.2675 15.8329C38.2675 15.0461 38.2244 14.532 38.1487 14.3012C37.9758 13.7766 37.587 13.5142 36.993 13.5142C36.399 13.5142 36.0099 13.7766 35.8372 14.3012C35.7616 14.532 35.7185 15.0461 35.7185 15.8329C35.7185 16.6196 35.7616 17.1337 35.8372 17.3645C36.0099 17.8891 36.399 18.1516 36.993 18.1516C37.587 18.1516 37.9758 17.8891 38.1487 17.3645C38.2244 17.1337 38.2675 16.6196 38.2675 15.8329M34.1094 15.8329C34.1094 14.9515 34.1742 14.3012 34.3146 13.8815C34.6928 12.7482 35.6864 12.1504 36.9935 12.1504C38.3005 12.1504 39.2941 12.7482 39.672 13.8815C39.8125 14.3012 39.8773 14.9515 39.8773 15.8329C39.8773 16.7142 39.8125 17.3645 39.672 17.7842C39.2941 18.9175 38.3005 19.5154 36.9935 19.5154C35.6864 19.5154 34.6928 18.9175 34.3146 17.7842C34.1742 17.3645 34.1094 16.7142 34.1094 15.8329" fill="#979797"/>
<path fill-rule="evenodd" clip-rule="evenodd" d="M25.0239 25.6382C25.0239 25.6103 25.0353 25.5828 25.0524 25.5606L26.4128 23.99C26.5665 23.8187 26.6406 23.6473 26.6406 23.4703C26.6406 23.2103 26.4755 23.0389 26.2193 23.0389C25.9517 23.0389 25.7979 23.1884 25.7638 23.4814C25.7638 23.52 25.7413 23.5311 25.7014 23.5257L25.0752 23.426C25.0353 23.4206 25.0239 23.3984 25.0296 23.3595C25.0524 23.0884 25.172 22.8562 25.3883 22.6684C25.6046 22.4803 25.889 22.3862 26.2477 22.3862C26.6064 22.3862 26.8968 22.486 27.1131 22.6906C27.3292 22.8952 27.4374 23.1495 27.4374 23.4589C27.4374 23.7744 27.3064 24.0784 27.0448 24.3717L26.0257 25.5387V25.5498H27.3804C27.4203 25.5498 27.4374 25.566 27.4374 25.6049V26.1522C27.4374 26.1911 27.4203 26.2076 27.3804 26.2076H25.0809C25.041 26.2076 25.0239 26.1911 25.0239 26.1522V25.6382Z" fill="#979797"/>
<path fill-rule="evenodd" clip-rule="evenodd" d="M28.0742 25.6382C28.0742 25.6103 28.0856 25.5828 28.1027 25.5606L29.4631 23.99C29.6168 23.8187 29.6909 23.6473 29.6909 23.4703C29.6909 23.2103 29.5257 23.0389 29.2695 23.0389C29.002 23.0389 28.8482 23.1884 28.8141 23.4814C28.8141 23.52 28.7916 23.5311 28.7517 23.5257L28.1255 23.426C28.0856 23.4206 28.0742 23.3984 28.0799 23.3595C28.1027 23.0884 28.2222 22.8562 28.4386 22.6684C28.6549 22.4803 28.9393 22.3862 29.298 22.3862C29.6567 22.3862 29.9471 22.486 30.1634 22.6906C30.3795 22.8952 30.4877 23.1495 30.4877 23.4589C30.4877 23.7744 30.3567 24.0784 30.0951 24.3717L29.076 25.5387V25.5498H30.4307C30.4706 25.5498 30.4877 25.566 30.4877 25.6049V26.1522C30.4877 26.1911 30.4706 26.2076 30.4307 26.2076H28.1312C28.0913 26.2076 28.0742 26.1911 28.0742 26.1522V25.6382Z" fill="#979797"/>
<path fill-rule="evenodd" clip-rule="evenodd" d="M32.3329 25.616C32.5379 25.616 32.6688 25.533 32.7258 25.3617C32.7542 25.273 32.7713 24.9303 32.7713 24.3273C32.7713 23.7246 32.7542 23.3816 32.7258 23.2933C32.6688 23.1216 32.5379 23.0389 32.3329 23.0389C32.128 23.0389 31.997 23.1216 31.9401 23.2933C31.9116 23.3816 31.8945 23.7246 31.8945 24.3273C31.8945 24.9303 31.9116 25.273 31.9401 25.3617C31.997 25.533 32.128 25.616 32.3329 25.616M31.082 24.3273C31.082 23.7135 31.1105 23.3208 31.1674 23.1552C31.3268 22.6684 31.7365 22.3862 32.3343 22.3862C32.9321 22.3862 33.3417 22.6684 33.5012 23.1552C33.5581 23.3208 33.5866 23.7135 33.5866 24.3273C33.5866 24.9414 33.5581 25.3338 33.5012 25.4998C33.3417 25.9865 32.9321 26.2684 32.3343 26.2684C31.7365 26.2684 31.3268 25.9865 31.1674 25.4998C31.1105 25.3338 31.082 24.9414 31.082 24.3273" fill="#979797"/>
<path fill-rule="evenodd" clip-rule="evenodd" d="M35.3842 25.616C35.5891 25.616 35.7201 25.533 35.777 25.3617C35.8055 25.273 35.8226 24.9303 35.8226 24.3273C35.8226 23.7246 35.8055 23.3816 35.777 23.2933C35.7201 23.1216 35.5891 23.0389 35.3842 23.0389C35.1792 23.0389 35.0483 23.1216 34.9913 23.2933C34.9629 23.3816 34.9458 23.7246 34.9458 24.3273C34.9458 24.9303 34.9629 25.273 34.9913 25.3617C35.0483 25.533 35.1792 25.616 35.3842 25.616M34.1333 24.3273C34.1333 23.7135 34.1618 23.3208 34.2187 23.1552C34.3781 22.6684 34.7878 22.3862 35.3856 22.3862C35.9834 22.3862 36.393 22.6684 36.5524 23.1552C36.6094 23.3208 36.6378 23.7135 36.6378 24.3273C36.6378 24.9414 36.6094 25.3338 36.5524 25.4998C36.393 25.9865 35.9834 26.2684 35.3856 26.2684C34.7878 26.2684 34.3781 25.9865 34.2187 25.4998C34.1618 25.3338 34.1333 24.9414 34.1333 24.3273" fill="#979797"/>
<path fill-rule="evenodd" clip-rule="evenodd" d="M38.435 25.616C38.6399 25.616 38.7709 25.533 38.8278 25.3617C38.8563 25.273 38.8734 24.9303 38.8734 24.3273C38.8734 23.7246 38.8563 23.3816 38.8278 23.2933C38.7709 23.1216 38.6399 23.0389 38.435 23.0389C38.23 23.0389 38.0991 23.1216 38.0421 23.2933C38.0137 23.3816 37.9966 23.7246 37.9966 24.3273C37.9966 24.9303 38.0137 25.273 38.0421 25.3617C38.0991 25.533 38.23 25.616 38.435 25.616M37.1841 24.3273C37.1841 23.7135 37.2125 23.3208 37.2695 23.1552C37.4289 22.6684 37.8385 22.3862 38.4363 22.3862C39.0341 22.3862 39.4438 22.6684 39.6032 23.1552C39.6601 23.3208 39.6886 23.7135 39.6886 24.3273C39.6886 24.9414 39.6601 25.3338 39.6032 25.4998C39.4438 25.9865 39.0341 26.2684 38.4363 26.2684C37.8385 26.2684 37.4289 25.9865 37.2695 25.4998C37.2125 25.3338 37.1841 24.9414 37.1841 24.3273" fill="#979797"/>
<mask id="mask2" mask-type="alpha" maskUnits="userSpaceOnUse" x="14" y="0" width="37" height="43">
<path fill-rule="evenodd" clip-rule="evenodd" d="M14.7344 42.2584H50.2201V0H14.7344V42.2584Z" fill="white"/>
</mask>
<g mask="url(#mask2)">
<path fill-rule="evenodd" clip-rule="evenodd" d="M25.21 21.2066H39.6629V20.666H25.21V21.2066Z" fill="#979797"/>
</g>
</svg>
