<svg width="64" height="70" viewBox="0 0 64 70" fill="none" xmlns="http://www.w3.org/2000/svg">
<path d="M18.4938 48V55H16.8738V52.13H13.6938V55H12.0738V48H13.6938V50.76H16.8738V48H18.4938ZM25.7679 53.5H22.5179L21.8979 55H20.2379L23.3579 48H24.9579L28.0879 55H26.3879L25.7679 53.5ZM25.2579 52.27L24.1479 49.59L23.0379 52.27H25.2579ZM33.0745 55.12C32.3612 55.12 31.7145 54.9667 31.1345 54.66C30.5612 54.3467 30.1079 53.9167 29.7745 53.37C29.4479 52.8167 29.2845 52.1933 29.2845 51.5C29.2845 50.8067 29.4479 50.1867 29.7745 49.64C30.1079 49.0867 30.5612 48.6567 31.1345 48.35C31.7145 48.0367 32.3645 47.88 33.0845 47.88C33.6912 47.88 34.2379 47.9867 34.7245 48.2C35.2179 48.4133 35.6312 48.72 35.9645 49.12L34.9245 50.08C34.4512 49.5333 33.8645 49.26 33.1645 49.26C32.7312 49.26 32.3445 49.3567 32.0045 49.55C31.6645 49.7367 31.3979 50 31.2045 50.34C31.0179 50.68 30.9245 51.0667 30.9245 51.5C30.9245 51.9333 31.0179 52.32 31.2045 52.66C31.3979 53 31.6645 53.2667 32.0045 53.46C32.3445 53.6467 32.7312 53.74 33.1645 53.74C33.8645 53.74 34.4512 53.4633 34.9245 52.91L35.9645 53.87C35.6312 54.2767 35.2179 54.5867 34.7245 54.8C34.2312 55.0133 33.6812 55.12 33.0745 55.12ZM41.27 55.12C40.5567 55.12 39.91 54.9667 39.33 54.66C38.7567 54.3467 38.3034 53.9167 37.97 53.37C37.6434 52.8167 37.48 52.1933 37.48 51.5C37.48 50.8067 37.6434 50.1867 37.97 49.64C38.3034 49.0867 38.7567 48.6567 39.33 48.35C39.91 48.0367 40.56 47.88 41.28 47.88C41.8867 47.88 42.4334 47.9867 42.92 48.2C43.4134 48.4133 43.8267 48.72 44.16 49.12L43.12 50.08C42.6467 49.5333 42.06 49.26 41.36 49.26C40.9267 49.26 40.54 49.3567 40.2 49.55C39.86 49.7367 39.5934 50 39.4 50.34C39.2134 50.68 39.12 51.0667 39.12 51.5C39.12 51.9333 39.2134 52.32 39.4 52.66C39.5934 53 39.86 53.2667 40.2 53.46C40.54 53.6467 40.9267 53.74 41.36 53.74C42.06 53.74 42.6467 53.4633 43.12 52.91L44.16 53.87C43.8267 54.2767 43.4134 54.5867 42.92 54.8C42.4267 55.0133 41.8767 55.12 41.27 55.12ZM49.292 48C49.912 48 50.4487 48.1033 50.902 48.31C51.362 48.5167 51.7153 48.81 51.962 49.19C52.2087 49.57 52.332 50.02 52.332 50.54C52.332 51.0533 52.2087 51.5033 51.962 51.89C51.7153 52.27 51.362 52.5633 50.902 52.77C50.4487 52.97 49.912 53.07 49.292 53.07H47.882V55H46.262V48H49.292ZM49.202 51.75C49.6887 51.75 50.0587 51.6467 50.312 51.44C50.5653 51.2267 50.692 50.9267 50.692 50.54C50.692 50.1467 50.5653 49.8467 50.312 49.64C50.0587 49.4267 49.6887 49.32 49.202 49.32H47.882V51.75H49.202ZM4.44781 67.12C3.73447 67.12 3.08781 66.9667 2.50781 66.66C1.93447 66.3467 1.48114 65.9167 1.14781 65.37C0.821138 64.8167 0.657805 64.1933 0.657805 63.5C0.657805 62.8067 0.821138 62.1867 1.14781 61.64C1.48114 61.0867 1.93447 60.6567 2.50781 60.35C3.08781 60.0367 3.73781 59.88 4.45781 59.88C5.06447 59.88 5.61114 59.9867 6.09781 60.2C6.59114 60.4133 7.00447 60.72 7.33781 61.12L6.29781 62.08C5.82447 61.5333 5.23781 61.26 4.53781 61.26C4.10447 61.26 3.71781 61.3567 3.37781 61.55C3.03781 61.7367 2.77114 62 2.57781 62.34C2.39114 62.68 2.29781 63.0667 2.29781 63.5C2.29781 63.9333 2.39114 64.32 2.57781 64.66C2.77114 65 3.03781 65.2667 3.37781 65.46C3.71781 65.6467 4.10447 65.74 4.53781 65.74C5.23781 65.74 5.82447 65.4633 6.29781 64.91L7.33781 65.87C7.00447 66.2767 6.59114 66.5867 6.09781 66.8C5.60447 67.0133 5.05447 67.12 4.44781 67.12ZM14.8598 65.7V67H9.43979V60H14.7298V61.3H11.0498V62.82H14.2998V64.08H11.0498V65.7H14.8598ZM21.6168 67L20.2668 65.05H20.1868H18.7768V67H17.1568V60H20.1868C20.8068 60 21.3434 60.1033 21.7968 60.31C22.2568 60.5167 22.6101 60.81 22.8568 61.19C23.1034 61.57 23.2268 62.02 23.2268 62.54C23.2268 63.06 23.1001 63.51 22.8468 63.89C22.6001 64.2633 22.2468 64.55 21.7868 64.75L23.3568 67H21.6168ZM21.5868 62.54C21.5868 62.1467 21.4601 61.8467 21.2068 61.64C20.9534 61.4267 20.5834 61.32 20.0968 61.32H18.7768V63.76H20.0968C20.5834 63.76 20.9534 63.6533 21.2068 63.44C21.4601 63.2267 21.5868 62.9267 21.5868 62.54ZM26.8706 61.32H24.6306V60H30.7306V61.32H28.4906V67H26.8706V61.32ZM32.6103 60H34.2303V67H32.6103V60ZM38.5195 61.3V63.15H41.7595V64.45H38.5195V67H36.8995V60H42.1895V61.3H38.5195ZM44.2942 60H45.9142V67H44.2942V60ZM54.0035 65.7V67H48.5835V60H53.8735V61.3H50.1935V62.82H53.4435V64.08H50.1935V65.7H54.0035ZM56.3005 60H59.4805C60.2405 60 60.9105 60.1467 61.4905 60.44C62.0771 60.7267 62.5305 61.1333 62.8505 61.66C63.1771 62.1867 63.3405 62.8 63.3405 63.5C63.3405 64.2 63.1771 64.8133 62.8505 65.34C62.5305 65.8667 62.0771 66.2767 61.4905 66.57C60.9105 66.8567 60.2405 67 59.4805 67H56.3005V60ZM59.4005 65.67C60.1005 65.67 60.6571 65.4767 61.0705 65.09C61.4905 64.6967 61.7005 64.1667 61.7005 63.5C61.7005 62.8333 61.4905 62.3067 61.0705 61.92C60.6571 61.5267 60.1005 61.33 59.4005 61.33H57.9205V65.67H59.4005Z" fill="#979797"/>
<path fill-rule="evenodd" clip-rule="evenodd" d="M17.5339 10.548H19.3867C19.224 8.75868 19.1071 7.34184 19.0492 6.61265C20.2103 5.93651 24.0227 4.11747 31.7632 3.85954C39.5099 4.11747 43.3224 5.9396 44.4773 6.61209C44.4193 7.34072 44.3025 8.75811 44.1401 10.548H45.9928C46.2104 8.12941 46.3401 6.42965 46.357 6.20848L46.3936 5.72124L46.0088 5.41839C45.8501 5.29349 42.0036 2.35682 31.7933 2.02253L31.7632 2.02197L31.7331 2.02253C21.5228 2.35682 17.6764 5.29349 17.5176 5.41839L17.1328 5.72124L17.1694 6.20848C17.1863 6.42965 17.3158 8.12941 17.5339 10.548" fill="#979797"/>
<path fill-rule="evenodd" clip-rule="evenodd" d="M41.2346 29.6895C40.1776 31.1871 36.5388 35.2445 31.7674 36.9502C26.9836 35.2398 23.3375 31.1658 22.2958 29.6895H20.2266C20.2367 29.7214 20.2468 29.7557 20.257 29.7874C20.619 30.9126 25.2601 36.7183 31.4749 38.7933L31.7674 38.8907L32.0596 38.7933C38.2747 36.7183 42.9159 30.9126 43.2778 29.7874C43.288 29.7557 43.2981 29.7214 43.3082 29.6895H41.2346Z" fill="#979797"/>
<path fill-rule="evenodd" clip-rule="evenodd" d="M15.4971 10.5477H16.6098C16.3953 8.16504 16.2678 6.49673 16.2512 6.27724L16.1777 5.30247L16.9476 4.69677C17.3698 4.36474 21.3714 1.44322 31.703 1.10445L31.7635 1.10248L31.824 1.10445C42.1556 1.44322 46.1572 4.36474 46.5794 4.69677L47.3493 5.30247L47.2755 6.27724C47.2592 6.49673 47.1317 8.16504 46.9172 10.5477H48.0299C48.219 8.42691 48.3398 6.86497 48.3778 6.35976L48.4957 4.80006L47.264 3.83146C46.8125 3.47669 42.5449 0.353086 31.8603 0.00280673L31.7635 0L31.6667 0.00280673C20.9821 0.353086 16.7145 3.47669 16.263 3.83146L15.0312 4.80006L15.1492 6.35976C15.1872 6.86497 15.3079 8.42691 15.4971 10.5477" fill="#979797"/>
<path fill-rule="evenodd" clip-rule="evenodd" d="M44.2687 29.6895C44.2307 29.8208 44.1924 29.9485 44.1542 30.0681C43.6467 31.6455 38.6526 37.5604 32.3513 39.6637L31.7663 39.8588L31.1817 39.6637C24.881 37.5604 19.8866 31.6455 19.3791 30.0681C19.3405 29.9485 19.3025 29.8208 19.2645 29.6895H18.1172C18.1862 29.9449 18.256 30.1854 18.3263 30.4043C18.9681 32.3979 24.144 38.4767 30.8307 40.7089L31.7663 41.0213L32.7023 40.7089C39.3895 38.4767 44.5651 32.3977 45.2066 30.4043C45.277 30.1854 45.3468 29.9449 45.4161 29.6895H44.2687Z" fill="#979797"/>
<mask id="mask0" mask-type="alpha" maskUnits="userSpaceOnUse" x="6" y="13" width="10" height="11">
<path fill-rule="evenodd" clip-rule="evenodd" d="M6.58203 13.2437H15.9577V23.0694H6.58203V13.2437Z" fill="white"/>
</mask>
<g mask="url(#mask0)">
<path fill-rule="evenodd" clip-rule="evenodd" d="M15.9577 13.2437V23.0694H13.1704V19.2371H9.36957V23.0694H6.58203V13.2437H9.36957V16.9348H13.1704V13.2437H15.9577Z" fill="#979797"/>
</g>
<path fill-rule="evenodd" clip-rule="evenodd" d="M23.7146 19.1108L22.4476 15.9667L21.1807 19.1108H23.7146ZM24.5321 21.1603H20.3653L19.5909 23.0694H16.7471L21.0971 13.2437H23.8422L28.2063 23.0694H25.3062L24.5321 21.1603Z" fill="#979797"/>
<path fill-rule="evenodd" clip-rule="evenodd" d="M28.3472 18.156C28.3472 15.1665 30.6415 13.0469 33.7669 13.0469C35.583 13.0469 37.047 13.7065 38.004 14.8993L36.2304 16.4997C35.6109 15.7556 34.8509 15.3487 33.9076 15.3487C32.2888 15.3487 31.1626 16.4716 31.1626 18.156C31.1626 19.8403 32.2888 20.9632 33.9076 20.9632C34.8509 20.9632 35.6109 20.5565 36.2304 19.8122L38.004 21.4126C37.047 22.6057 35.583 23.2656 33.7669 23.2656C30.6415 23.2656 28.3472 21.146 28.3472 18.156" fill="#979797"/>
<path fill-rule="evenodd" clip-rule="evenodd" d="M38.5239 18.156C38.5239 15.1665 40.8186 13.0469 43.9439 13.0469C45.7598 13.0469 47.2237 13.7065 48.1811 14.8993L46.4072 16.4997C45.7882 15.7556 45.0279 15.3487 44.0846 15.3487C42.4655 15.3487 41.3393 16.4716 41.3393 18.156C41.3393 19.8403 42.4655 20.9632 44.0846 20.9632C45.0279 20.9632 45.7882 20.5565 46.4072 19.8122L48.1811 21.4126C47.2237 22.6057 45.7598 23.2656 43.9439 23.2656C40.8186 23.2656 38.5239 21.146 38.5239 18.156" fill="#979797"/>
<mask id="mask1" mask-type="alpha" maskUnits="userSpaceOnUse" x="49" y="13" width="10" height="11">
<path fill-rule="evenodd" clip-rule="evenodd" d="M49.4219 13.2437H58.3046V23.0694H49.4219V13.2437Z" fill="white"/>
</mask>
<g mask="url(#mask1)">
<path fill-rule="evenodd" clip-rule="evenodd" d="M55.4911 16.8789C55.4911 15.9667 54.9137 15.4332 53.7597 15.4332H52.2109V18.3109H53.7597C54.9137 18.3109 55.4911 17.7773 55.4911 16.8789M58.3047 16.8789C58.3047 19.1108 56.6155 20.5004 53.9265 20.5004H52.2091V23.0694H49.4219V13.2437H53.9265C56.6155 13.2437 58.3047 14.633 58.3047 16.8789" fill="#979797"/>
</g>
<path fill-rule="evenodd" clip-rule="evenodd" d="M14.125 26.9483C14.125 25.8624 14.8563 25.085 15.8404 25.085C16.3867 25.085 16.8427 25.3115 17.1405 25.7235L16.6713 26.2175C16.4591 25.9393 16.1925 25.7956 15.8767 25.7956C15.2853 25.7956 14.8653 26.2688 14.8653 26.9483C14.8653 27.6273 15.2853 28.1008 15.8767 28.1008C16.1925 28.1008 16.4591 27.9568 16.6713 27.6736L17.1405 28.1679C16.8427 28.5847 16.3867 28.8112 15.8359 28.8112C14.8563 28.8112 14.125 28.0337 14.125 26.9483" fill="#979797"/>
<path fill-rule="evenodd" clip-rule="evenodd" d="M21.4347 28.08V28.7491H18.9878V25.147H21.3759V25.8161H19.7146V26.598H21.1817V27.2467H19.7146V28.08H21.4347Z" fill="#979797"/>
<path fill-rule="evenodd" clip-rule="evenodd" d="M24.7014 25.8265H24.1055V27.0822H24.7014C25.1484 27.0822 25.3741 26.8453 25.3741 26.4541C25.3741 26.0578 25.1484 25.8265 24.7014 25.8265V25.8265ZM25.3845 28.7491L24.7751 27.7457H24.7388H24.1024V28.7491H23.3711V25.147H24.7388C25.5833 25.147 26.1113 25.6463 26.1113 26.4541C26.1113 26.9944 25.8721 27.3907 25.4611 27.5916L26.1702 28.7491H25.3845Z" fill="#979797"/>
<path fill-rule="evenodd" clip-rule="evenodd" d="M28.6554 25.8265H27.644V25.147H30.3981V25.8265H29.387V28.7491H28.6554V25.8265Z" fill="#979797"/>
<mask id="mask2" mask-type="alpha" maskUnits="userSpaceOnUse" x="6" y="0" width="53" height="42">
<path fill-rule="evenodd" clip-rule="evenodd" d="M6.58203 41.0214H58.303V0H6.58203V41.0214Z" fill="white"/>
</mask>
<g mask="url(#mask2)">
<path fill-rule="evenodd" clip-rule="evenodd" d="M32.1445 28.7491H32.8758V25.147H32.1445V28.7491Z" fill="#979797"/>
<path fill-rule="evenodd" clip-rule="evenodd" d="M35.7113 25.8161V26.7684H37.1739V27.4367H35.7113V28.7491H34.98V25.147H37.3678V25.8161H35.7113Z" fill="#979797"/>
<path fill-rule="evenodd" clip-rule="evenodd" d="M39.2197 28.7491H39.951V25.147H39.2197V28.7491Z" fill="#979797"/>
<path fill-rule="evenodd" clip-rule="evenodd" d="M44.5016 28.08V28.7491H42.0547V25.147H44.4428V25.8161H42.7815V26.598H44.2486V27.2467H42.7815V28.08H44.5016Z" fill="#979797"/>
<path fill-rule="evenodd" clip-rule="evenodd" d="M47.8362 28.0644C48.4636 28.0644 48.8743 27.6375 48.8743 26.9479C48.8743 26.2582 48.4636 25.8311 47.8362 25.8311H47.168V28.0644H47.8362ZM46.4375 25.1465H47.8731C48.907 25.1465 49.6157 25.8569 49.6157 26.9478C49.6157 28.0388 48.907 28.7486 47.8731 28.7486H46.4375V25.1465Z" fill="#979797"/>
</g>
</svg>
