<svg width="31" height="31" viewBox="0 0 31 31" fill="none" xmlns="http://www.w3.org/2000/svg">
<path fill-rule="evenodd" clip-rule="evenodd" d="M0 30.7371H30.7384V0H0V30.7371Z" fill="#F23F28"/>
<path fill-rule="evenodd" clip-rule="evenodd" d="M15.3646 17.4767C14.2498 17.4767 13.2578 16.6087 13.2578 15.3687C13.2578 14.2527 14.1246 13.2607 15.3646 13.2607C16.4806 13.2607 17.4726 14.1287 17.4726 15.3687C17.4726 16.6087 16.4806 17.4767 15.3646 17.4767ZM15.3663 12.1445C13.5063 12.1445 12.0195 13.6325 12.0195 15.4925C12.0195 17.3525 13.5063 18.8405 15.3663 18.8405C17.2263 18.8405 18.7143 17.3525 18.7143 15.4925C18.7143 13.6325 17.2263 12.1445 15.3663 12.1445Z" fill="white"/>
<path fill-rule="evenodd" clip-rule="evenodd" d="M17.9732 20.3277V20.8237C16.2372 21.6917 14.2532 21.6917 12.6412 20.8237V20.3277C12.6412 19.0877 11.648 17.9717 10.2852 17.9717H9.78797C9.41721 17.1037 9.16797 16.2357 9.16797 15.2437C9.16797 14.2517 9.41721 13.3837 9.78797 12.5157H10.2852C11.5252 12.5157 12.6412 11.5237 12.6412 10.1597V9.6637C14.3772 8.7957 16.3612 8.7957 17.9732 9.6637V10.1597C17.9732 11.3997 18.9652 12.5157 20.328 12.5157H20.8252C21.1972 13.3837 21.4452 14.2517 21.4452 15.2437C21.4452 16.2357 21.1972 17.1037 20.8252 17.9717H20.328C19.088 18.0957 17.9732 19.0877 17.9732 20.3277ZM10.4077 21.4439C9.78773 21.4439 9.29297 20.9479 9.29297 20.3279C9.29297 19.7079 9.78773 19.2119 10.4077 19.2119C11.0277 19.2119 11.525 19.7079 11.525 20.3279C11.525 20.9479 11.0277 21.4439 10.4077 21.4439ZM20.3265 9.41578C20.9465 9.41578 21.4438 9.91178 21.4438 10.5318C21.4438 11.1518 20.9465 11.6478 20.3265 11.6478C19.7065 11.6478 19.2118 11.1518 19.2118 10.5318C19.2118 9.91178 19.7065 9.41578 20.3265 9.41578ZM21.9398 12.1438C22.4358 11.7718 22.6838 11.1518 22.6838 10.5318C22.6838 9.29178 21.6918 8.17578 20.3265 8.17578C19.7065 8.17578 19.0865 8.42378 18.7158 8.91978C16.7318 7.92778 14.2518 7.92778 12.1438 8.91978C11.7718 8.42378 11.1518 8.17578 10.5318 8.17578C9.29178 8.17578 8.17578 9.16778 8.17578 10.5318C8.17578 11.1518 8.42378 11.7718 8.91978 12.1438C8.42378 13.1358 8.17578 14.2518 8.17578 15.3678C8.17578 16.4838 8.42378 17.5998 8.91978 18.5918C8.42378 18.9638 8.17578 19.5838 8.17578 20.2038C8.17578 21.4438 9.16654 22.5598 10.5318 22.5598C11.1518 22.5598 11.7718 22.3118 12.1438 21.8158C13.1358 22.3118 14.2518 22.5598 15.3665 22.5598C16.4838 22.5598 17.5998 22.3118 18.5918 21.8158C18.9638 22.3118 19.5838 22.5598 20.2038 22.5598C21.4438 22.5598 22.5598 21.5678 22.5598 20.2038C22.5598 19.5838 22.3118 18.9638 21.8158 18.5918C22.3118 17.5998 22.5598 16.4838 22.5598 15.3678C22.6838 14.2518 22.4358 13.1358 21.9398 12.1438Z" fill="white"/>
<path fill-rule="evenodd" clip-rule="evenodd" d="M24.6687 14.1289C23.9247 14.1289 23.3047 14.7489 23.3047 15.4929C23.3047 16.2369 23.9247 16.8569 24.6687 16.8569C25.4139 16.8569 26.0339 16.2369 26.0339 15.4929C26.0339 14.7489 25.4139 14.1289 24.6687 14.1289Z" fill="white"/>
<path fill-rule="evenodd" clip-rule="evenodd" d="M6.06713 14.127C5.32313 14.127 4.70312 14.747 4.70312 15.491C4.70312 16.235 5.32313 16.855 6.06713 16.855C6.81237 16.855 7.43237 16.235 7.43237 15.491C7.43237 14.747 6.81237 14.127 6.06713 14.127Z" fill="white"/>
</svg>
