<svg width="39" height="28" viewBox="0 0 39 28" fill="none" xmlns="http://www.w3.org/2000/svg">
<path fill-rule="evenodd" clip-rule="evenodd" d="M0.945312 14.4051H3.95587V11.3945H0.945312V14.4051Z" fill="#F23F28"/>
<path fill-rule="evenodd" clip-rule="evenodd" d="M22.8764 0.211914L12.7695 15.2647H18.1455L16.8553 27.0919L26.9622 12.2542H21.5862L22.8764 0.211914Z" fill="#F23F28"/>
<path fill-rule="evenodd" clip-rule="evenodd" d="M29.3281 14.4051H32.3387V11.3945H29.3281V14.4051Z" fill="#F23F28"/>
<path fill-rule="evenodd" clip-rule="evenodd" d="M35.3516 14.4051H38.3621V11.3945H35.3516V14.4051Z" fill="#F23F28"/>
<path fill-rule="evenodd" clip-rule="evenodd" d="M6.96484 14.4051H10.1904V11.3945H6.96484V14.4051Z" fill="#F23F28"/>
<path fill-rule="evenodd" clip-rule="evenodd" d="M27.2148 6.7215L32.4296 3.71094L33.9348 6.31937L28.7201 9.32778L27.2148 6.7215Z" fill="#F23F28"/>
<path fill-rule="evenodd" clip-rule="evenodd" d="M5.61719 19.3914L10.8319 16.3809L12.3372 18.9893L7.12247 21.9977L5.61719 19.3914Z" fill="#F23F28"/>
<path fill-rule="evenodd" clip-rule="evenodd" d="M27.375 18.9735L28.8803 16.3672L34.095 19.3777L32.5897 21.984L27.375 18.9735Z" fill="#F23F28"/>
<path fill-rule="evenodd" clip-rule="evenodd" d="M5.69922 6.49105L7.2045 3.88477L12.4192 6.89318L10.9139 9.50161L5.69922 6.49105Z" fill="#F23F28"/>
</svg>
