<svg width="27" height="26" viewBox="0 0 27 26" fill="none" xmlns="http://www.w3.org/2000/svg">
<path fill-rule="evenodd" clip-rule="evenodd" d="M13.6526 17.92C9.99692 17.92 6.34339 15.9846 3.54572 12.759C6.34339 9.31838 9.78188 7.59806 13.6526 7.59806C17.3083 7.59806 20.964 9.53342 23.7595 12.759C20.7489 15.9846 17.3083 17.92 13.6526 17.92ZM13.6526 5.01758C8.92172 5.01758 4.40588 7.38302 1.18028 11.8989L0.535156 12.544L1.18028 13.1891C4.62092 17.7049 8.92172 20.0704 13.6526 20.0704C18.3835 20.0704 22.8993 17.7049 26.1249 13.1891L26.7722 12.544L26.1249 11.8989C22.8993 7.59806 18.3835 5.01758 13.6526 5.01758Z" fill="#F23F28"/>
<path fill-rule="evenodd" clip-rule="evenodd" d="M15.8024 9.74883C15.1572 9.31875 14.2971 8.88867 13.4369 8.88867C11.2865 8.88867 9.78125 10.609 9.78125 12.5444C9.78125 14.6948 11.5016 16.2 13.4369 16.2C15.5873 16.2 17.0948 14.4797 17.0948 12.5444C17.3077 11.4692 16.6625 10.609 15.8024 9.74883Z" fill="#F23F28"/>
<path fill-rule="evenodd" clip-rule="evenodd" d="M3.54513 2.65255H7.63089V0.287109H3.54513H1.17969V6.73831H3.54513V2.65255Z" fill="#F23F28"/>
<path fill-rule="evenodd" clip-rule="evenodd" d="M23.5467 6.73831H25.9121V2.65255V0.287109H19.4609V2.65255H23.5467V6.73831Z" fill="#F23F28"/>
<path fill-rule="evenodd" clip-rule="evenodd" d="M23.5467 22.651H19.4609V25.0164H23.5467H25.9121V18.7803H23.5467V22.651Z" fill="#F23F28"/>
<path fill-rule="evenodd" clip-rule="evenodd" d="M3.54513 18.7812H1.17969V22.652V25.0174H7.63089V22.652H3.54513V18.7812Z" fill="#F23F28"/>
</svg>
