<svg width="31" height="31" viewBox="0 0 31 31" fill="none" xmlns="http://www.w3.org/2000/svg">
<path fill-rule="evenodd" clip-rule="evenodd" d="M0 30.7371H30.7384V0H0V30.7371Z" fill="#F23F28"/>
<path fill-rule="evenodd" clip-rule="evenodd" d="M15.3671 18.4071C13.2591 18.4071 11.1523 17.2911 9.53906 15.4311C11.1523 13.4471 13.1351 12.4551 15.3671 12.4551C17.4751 12.4551 19.5831 13.5711 21.1951 15.4311C19.4591 17.2911 17.4751 18.4071 15.3671 18.4071ZM15.3687 10.9668C12.6407 10.9668 10.0367 12.3308 8.17669 14.9348L7.80469 15.3068L8.17669 15.6788C10.1607 18.2828 12.6407 19.6468 15.3687 19.6468C18.0967 19.6468 20.7007 18.2828 22.5607 15.6788L22.9339 15.3068L22.5607 14.9348C20.7007 12.4548 18.0967 10.9668 15.3687 10.9668Z" fill="white"/>
<path fill-rule="evenodd" clip-rule="evenodd" d="M16.6087 13.6933C16.2367 13.4453 15.7407 13.1973 15.2447 13.1973C14.0047 13.1973 13.1367 14.1893 13.1367 15.3053C13.1367 16.5453 14.1287 17.4133 15.2447 17.4133C16.4847 17.4133 17.354 16.4213 17.354 15.3053C17.4767 14.6853 17.1047 14.1893 16.6087 13.6933Z" fill="white"/>
<path fill-rule="evenodd" clip-rule="evenodd" d="M9.53978 9.60228H11.8958V8.23828H9.53978H8.17578V11.9583H9.53978V9.60228Z" fill="white"/>
<path fill-rule="evenodd" clip-rule="evenodd" d="M21.0747 11.9583H22.4387V9.60228V8.23828H18.7188V9.60228H21.0747V11.9583Z" fill="white"/>
<path fill-rule="evenodd" clip-rule="evenodd" d="M21.0747 21.1343H18.7188V22.4983H21.0747H22.4387V18.9023H21.0747V21.1343Z" fill="white"/>
<path fill-rule="evenodd" clip-rule="evenodd" d="M9.53978 18.9023H8.17578V21.1343V22.4983H11.8958V21.1343H9.53978V18.9023Z" fill="white"/>
</svg>
