<svg width="31" height="31" viewBox="0 0 31 31" fill="none" xmlns="http://www.w3.org/2000/svg">
<path fill-rule="evenodd" clip-rule="evenodd" d="M0 30.7371H30.7384V0H0V30.7371Z" fill="#F23F28"/>
<path fill-rule="evenodd" clip-rule="evenodd" d="M4.58203 15.8024H6.31803V14.0664H4.58203V15.8024Z" fill="white"/>
<path fill-rule="evenodd" clip-rule="evenodd" d="M17.2303 7.61816L11.4023 16.2982H14.5023L13.7583 23.1182L19.5863 14.5622H16.4863L17.2303 7.61816Z" fill="white"/>
<path fill-rule="evenodd" clip-rule="evenodd" d="M20.9492 15.8024H22.6852V14.0664H20.9492V15.8024Z" fill="white"/>
<path fill-rule="evenodd" clip-rule="evenodd" d="M24.4219 15.8024H26.1579V14.0664H24.4219V15.8024Z" fill="white"/>
<path fill-rule="evenodd" clip-rule="evenodd" d="M8.05078 15.8024H9.91078V14.0664H8.05078V15.8024Z" fill="white"/>
<path fill-rule="evenodd" clip-rule="evenodd" d="M19.7305 11.3727L22.7375 9.63672L23.6055 11.1408L20.5985 12.8756L19.7305 11.3727Z" fill="white"/>
<path fill-rule="evenodd" clip-rule="evenodd" d="M7.27734 18.6784L10.2843 16.9424L11.1523 18.4465L8.14534 20.1813L7.27734 18.6784Z" fill="white"/>
<path fill-rule="evenodd" clip-rule="evenodd" d="M19.8242 18.4375L20.6922 16.9346L23.6992 18.6706L22.8312 20.1735L19.8242 18.4375Z" fill="white"/>
<path fill-rule="evenodd" clip-rule="evenodd" d="M7.32031 11.2392L8.18831 9.73633L11.1953 11.4711L10.3273 12.9752L7.32031 11.2392Z" fill="white"/>
</svg>
