<svg width="31" height="31" viewBox="0 0 31 31" fill="none" xmlns="http://www.w3.org/2000/svg">
<path fill-rule="evenodd" clip-rule="evenodd" d="M0 30.7371H30.7371V0H0V30.7371Z" fill="#F23F28"/>
<path fill-rule="evenodd" clip-rule="evenodd" d="M15.3687 21.7542C10.0354 19.5222 9.66345 13.0742 9.66345 11.0902H10.6554C12.5154 11.0902 14.5007 9.85016 15.2434 9.23016C16.1127 9.85016 17.9727 11.0902 19.8327 11.0902H20.8234C21.0727 13.0742 20.7007 19.5222 15.3687 21.7542ZM22.1887 10.4702V9.85016H21.5687H19.9554C17.9727 9.85016 15.7407 7.99016 15.7407 7.99016L15.3687 7.61816L14.9954 7.99016C14.9954 7.99016 12.7634 9.85016 10.7807 9.85016H9.16869H8.54869V10.4702C8.54869 10.5942 7.80344 20.1422 15.1207 22.9942L15.3687 23.1182L15.6154 22.9942C22.9327 20.0182 22.1887 10.4702 22.1887 10.4702Z" fill="white"/>
<path fill-rule="evenodd" clip-rule="evenodd" d="M16.3609 12.5781H14.1289V14.1901H12.5156V16.4221H14.1289V18.0341H16.3609V16.4221H17.9729V14.1901H16.3609V12.5781Z" fill="white"/>
</svg>
