<svg width="37" height="25" viewBox="0 0 37 25" fill="none" xmlns="http://www.w3.org/2000/svg">
<path fill-rule="evenodd" clip-rule="evenodd" d="M18.3763 15.9922C16.4632 15.9922 14.7608 14.5026 14.7608 12.3746C14.7608 10.4594 16.2483 8.757 18.3763 8.757C20.2915 8.757 21.9939 10.2466 21.9939 12.3746C21.9939 14.5026 20.2915 15.9922 18.3763 15.9922ZM18.3763 6.8418C15.1843 6.8418 12.6328 9.3954 12.6328 12.5874C12.6328 15.7794 15.1843 18.333 18.3763 18.333C21.5683 18.333 24.1219 15.7794 24.1219 12.5874C24.1219 9.3954 21.5683 6.8418 18.3763 6.8418Z" fill="#F23F28"/>
<path fill-rule="evenodd" clip-rule="evenodd" d="M22.8453 20.8867V21.7379C19.8661 23.2275 16.4613 23.2275 13.6949 21.7379V20.8867C13.6949 18.7587 11.9904 16.8435 9.6517 16.8435H8.79838C8.1621 15.3539 7.73438 13.8644 7.73438 12.162C7.73438 10.4595 8.1621 8.96995 8.79838 7.48035H9.6517C11.7797 7.48035 13.6949 5.77795 13.6949 3.43715V2.58595C16.6741 1.09635 20.0789 1.09635 22.8453 2.58595V3.43715C22.8453 5.56515 24.5477 7.48035 26.8864 7.48035H27.7397C28.3781 8.96995 28.8037 10.4595 28.8037 12.162C28.8037 13.8644 28.3781 15.3539 27.7397 16.8435H26.8864C24.7584 17.0563 22.8453 18.7587 22.8453 20.8867ZM9.86229 22.8021C8.79829 22.8021 7.94922 21.9509 7.94922 20.8869C7.94922 19.8229 8.79829 18.9717 9.86229 18.9717C10.9263 18.9717 11.7796 19.8229 11.7796 20.8869C11.7796 21.9509 10.9263 22.8021 9.86229 22.8021ZM26.8857 2.16016C27.9497 2.16016 28.8031 3.01136 28.8031 4.07536C28.8031 5.13936 27.9497 5.99056 26.8857 5.99056C25.8217 5.99056 24.9727 5.13936 24.9727 4.07536C24.9727 3.01136 25.8217 2.16016 26.8857 2.16016ZM29.656 6.84183C30.5072 6.20343 30.9328 5.13943 30.9328 4.07543C30.9328 1.94743 29.2304 0.0322266 26.8874 0.0322266C25.8234 0.0322266 24.7594 0.457827 24.1232 1.30903C20.7184 -0.393373 16.4624 -0.393373 12.8448 1.30903C12.2064 0.457827 11.1424 0.0322266 10.0784 0.0322266C7.95036 0.0322266 6.03516 1.73463 6.03516 4.07543C6.03516 5.13943 6.46076 6.20343 7.31196 6.84183C6.46076 8.54423 6.03516 10.4594 6.03516 12.3746C6.03516 14.2898 6.46076 16.205 7.31196 17.9074C6.46076 18.5458 6.03516 19.6098 6.03516 20.6738C6.03516 22.8018 7.73543 24.717 10.0784 24.717C11.1424 24.717 12.2064 24.2914 12.8448 23.4402C14.5472 24.2914 16.4624 24.717 18.3754 24.717C20.2928 24.717 22.208 24.2914 23.9104 23.4402C24.5488 24.2914 25.6128 24.717 26.6768 24.717C28.8048 24.717 30.72 23.0146 30.72 20.6738C30.72 19.6098 30.2944 18.5458 29.4432 17.9074C30.2944 16.205 30.72 14.2898 30.72 12.3746C30.9328 10.4594 30.5072 8.54423 29.656 6.84183Z" fill="#F23F28"/>
<path fill-rule="evenodd" clip-rule="evenodd" d="M34.3369 10.2471C33.0601 10.2471 31.9961 11.3111 31.9961 12.5879C31.9961 13.8647 33.0601 14.9287 34.3369 14.9287C35.6158 14.9287 36.6798 13.8647 36.6798 12.5879C36.6798 11.3111 35.6158 10.2471 34.3369 10.2471Z" fill="#F23F28"/>
<path fill-rule="evenodd" clip-rule="evenodd" d="M2.41502 10.2471C1.13822 10.2471 0.0742188 11.3111 0.0742188 12.5879C0.0742188 13.8647 1.13822 14.9287 2.41502 14.9287C3.69395 14.9287 4.75795 13.8647 4.75795 12.5879C4.75795 11.3111 3.69395 10.2471 2.41502 10.2471Z" fill="#F23F28"/>
</svg>
