<svg width="568" height="62" viewBox="0 0 568 62" fill="none" xmlns="http://www.w3.org/2000/svg">
<mask id="mask0" mask-type="alpha" maskUnits="userSpaceOnUse" x="0" y="10" width="36" height="42">
<path fill-rule="evenodd" clip-rule="evenodd" d="M0 10H36V51.6H0V10Z" fill="white"/>
</mask>
<g mask="url(#mask0)">
<path fill-rule="evenodd" clip-rule="evenodd" d="M14.9609 29.3793C15.1405 28.9389 15.8518 27.5923 18.0359 27.5923C20.1301 27.5923 20.8701 28.827 21.0857 29.3216C20.8809 33.7693 20.299 43.95 20.0655 47.9898H18.4526H17.5545H16.0063C15.78 44.0474 15.2124 34.2386 14.9609 29.3793ZM30.6141 24.8703C29.8849 24.5273 29.0874 24.271 28.1678 24.2132C26.3753 24.1338 24.396 24.6862 22.9627 25.9064C21.964 24.9353 20.4984 24.1338 18.4832 24.0255V23.9822H18.0341H17.5851V24.0255C15.6166 24.1338 14.1653 24.8992 13.1667 25.845C11.7298 24.6501 9.70375 24.1085 7.89686 24.2132C6.94852 24.271 6.13308 24.5454 5.38949 24.9064L3.71551 13.6102H17.5528H18.4508H32.2845L30.6141 24.8703ZM6.04328 29.2711C6.17978 28.1122 7.40114 27.8631 8.11958 27.8162C9.53851 27.7223 11.1802 28.3974 11.3777 29.0834C11.5645 33.2531 12.1608 43.6937 12.4051 47.9898H8.81288L6.03968 29.2928L6.04328 29.2711ZM24.6438 29.4335C24.9061 28.3577 26.58 27.7115 27.9523 27.8198C28.6384 27.8595 29.7663 28.1122 29.9819 29.152L27.1871 47.9898H23.6631C23.9074 43.7046 24.4929 33.3253 24.6438 29.4335ZM33.6244 29.0761L35.9701 13.2636C36.0886 12.4441 35.8516 11.6137 35.3127 10.9856C34.7739 10.3574 33.9908 10 33.1682 10H18.4508H17.5528H2.83183C2.00561 10 1.2261 10.3574 0.687267 10.9856C0.148434 11.6137 -0.0886533 12.4441 0.0298902 13.2636L5.35357 49.174C5.55833 50.5567 6.76172 51.6 8.15191 51.6H17.5528H18.4508H27.8445C29.2562 51.6 30.4381 50.5783 30.6428 49.174L33.5921 29.3L33.6495 29.2928L33.6244 29.0761Z" fill="#F23F28"/>
</g>
<path d="M369.5 9C357.644 9 348 18.6445 348 30.5C348 42.3555 357.644 52 369.5 52C381.356 52 391 42.3555 391 30.5C391 18.6445 381.356 9 369.5 9ZM383.77 32.2408H386.911C386.568 35.6957 385.214 38.8572 383.153 41.4284L380.955 39.2307C380.238 38.5137 379.078 38.5137 378.361 39.2307C377.644 39.9477 377.644 41.1083 378.361 41.8253L380.575 44.0396C378.024 46.1306 374.876 47.5146 371.428 47.8914V44.77C371.428 43.7562 370.607 42.9358 369.593 42.9358C368.58 42.9358 367.759 43.7562 367.759 44.77V47.9114C364.304 47.5679 361.143 46.214 358.575 44.153L360.773 41.9553C361.49 41.2383 361.49 40.0778 360.773 39.3608C360.056 38.6438 358.895 38.6438 358.178 39.3608L355.964 41.5751C353.873 39.024 352.489 35.8758 352.112 32.4276H355.233C356.247 32.4276 357.068 31.6072 357.068 30.5934C357.068 29.5796 356.247 28.7592 355.233 28.7592H352.092C352.435 25.3042 353.789 22.1428 355.85 19.5716L358.051 21.7693C358.408 22.1261 358.878 22.3062 359.349 22.3062C359.819 22.3062 360.289 22.1261 360.646 21.7693C361.363 21.0523 361.363 19.8917 360.646 19.1747L358.432 16.9604C360.983 14.8694 364.131 13.4854 367.579 13.1086V16.23C367.579 17.2438 368.399 18.0642 369.413 18.0642C370.427 18.0642 371.247 17.2438 371.247 16.23V13.0886C374.702 13.4321 377.864 14.786 380.432 16.847L378.231 19.048C377.514 19.765 377.514 20.9255 378.231 21.6425C378.588 21.9994 379.058 22.1795 379.528 22.1795C379.998 22.1795 380.465 21.9994 380.825 21.6425L383.04 19.4282C385.131 21.9794 386.515 25.1275 386.891 28.5758H383.77C382.756 28.5758 381.936 29.3962 381.936 30.41C381.936 31.4238 382.756 32.2408 383.77 32.2408Z" fill="#F23F28"/>
<path d="M371.239 29.736V21.9357C371.239 20.9219 370.418 20.1016 369.404 20.1016C368.391 20.1016 367.57 20.9219 367.57 21.9357V31.2634L372.363 36.019C372.719 36.3725 373.186 36.5525 373.653 36.5525C374.123 36.5525 374.597 36.3725 374.954 36.009C375.667 35.2886 375.664 34.1281 374.944 33.4144L371.239 29.736Z" fill="#F23F28"/>
<path d="M561.996 12.3018H557.866V8H553.89V12.3018H537.238V8H533.259V12.3018H529.004C525.695 12.3018 523 15.0533 523 18.431V45.8673C523 49.2485 525.695 51.9966 529.004 51.9966H561.992C565.305 51.9966 567.997 49.2451 567.997 45.8673V18.431C568 15.0533 565.308 12.3018 561.996 12.3018ZM529.004 16.4085H533.259V18.6535H537.235V16.4085H553.886V18.6535H557.866V16.4085H561.996C563.089 16.4085 563.977 17.3154 563.977 18.431V22.7499H527.023V18.431C527.023 17.3154 527.911 16.4085 529.004 16.4085ZM561.996 47.8933H529.008C527.915 47.8933 527.026 46.9864 527.026 45.8707V26.8122H563.98V45.8707C563.977 46.9864 563.089 47.8933 561.996 47.8933Z" fill="#F23F28"/>
<path d="M535.218 31.1211H531.168V35.2552H535.218V31.1211Z" fill="#F23F28"/>
<path d="M543.425 31.1211H539.375V35.2552H543.425V31.1211Z" fill="#F23F28"/>
<path d="M551.628 31.1211H547.578V35.2552H551.628V31.1211Z" fill="#F23F28"/>
<path d="M559.835 31.1211H555.785V35.2552H559.835V31.1211Z" fill="#F23F28"/>
<path d="M535.218 39.3906H531.168V43.5247H535.218V39.3906Z" fill="#F23F28"/>
<path d="M543.425 39.3906H539.375V43.5247H543.425V39.3906Z" fill="#F23F28"/>
<path d="M551.628 39.3906H547.578V43.5247H551.628V39.3906Z" fill="#F23F28"/>
<path d="M559.835 39.3906H555.785V43.5247H559.835V39.3906Z" fill="#F23F28"/>
<mask id="mask1" mask-type="alpha" maskUnits="userSpaceOnUse" x="165" y="0" width="62" height="62">
<path fill-rule="evenodd" clip-rule="evenodd" d="M165 0H226.232V61.1683H165V0Z" fill="white"/>
</mask>
<g mask="url(#mask1)">
<path fill-rule="evenodd" clip-rule="evenodd" d="M195.634 46.8C194.557 46.8111 193.693 47.6931 193.704 48.7701C193.704 48.7773 193.704 48.7838 193.704 48.791V59.1903C193.689 60.2673 194.55 61.1533 195.627 61.1683C196.704 61.1832 197.589 60.3226 197.604 59.2455C197.605 59.2273 197.605 59.2091 197.604 59.1903V48.791C197.627 47.7139 196.771 46.8228 195.695 46.8C195.674 46.8 195.654 46.8 195.634 46.8ZM208.431 41.6201C207.36 41.7352 206.584 42.6965 206.7 43.7671C206.748 44.2162 206.95 44.6348 207.273 44.9514L211.173 48.8514C211.882 49.6626 213.113 49.7464 213.925 49.0379C214.736 48.3294 214.819 47.0977 214.111 46.2858C214.056 46.2234 213.998 46.1643 213.936 46.1097L210.036 42.2097C209.62 41.7761 209.028 41.559 208.431 41.6201ZM182.43 41.6202C181.988 41.6787 181.579 41.8867 181.271 42.2097L177.371 46.1097C176.565 46.8241 176.491 48.0565 177.206 48.8625C177.92 49.6685 179.152 49.7426 179.958 49.0282C180.021 48.973 180.079 48.9138 180.134 48.8514L184.034 44.9514C184.805 44.2 184.821 42.965 184.069 42.1941C183.643 41.7567 183.035 41.5441 182.43 41.6202ZM213.651 28.641C212.574 28.6968 211.747 29.6153 211.803 30.6924C211.859 31.7688 212.778 32.5969 213.855 32.541H224.255C225.331 32.5559 226.216 31.6953 226.232 30.6182C226.247 29.5412 225.386 28.6559 224.309 28.641C224.29 28.6403 224.273 28.6403 224.255 28.641H213.855C213.786 28.6371 213.719 28.6371 213.651 28.641ZM166.851 28.641C165.774 28.6968 164.947 29.6153 165.003 30.6924C165.059 31.7688 165.978 32.5969 167.054 32.541H177.454C178.531 32.5559 179.416 31.6953 179.432 30.6182C179.447 29.5412 178.586 28.6559 177.509 28.641C177.491 28.6403 177.473 28.6403 177.454 28.641H167.054C166.986 28.6371 166.919 28.6371 166.851 28.641ZM192.934 16.9404C192.166 17.0132 191.514 17.5306 191.268 18.2612L190.394 20.8814C190.025 21.8934 190.546 23.0127 191.558 23.3826C192.569 23.7518 193.689 23.2311 194.059 22.2197C194.07 22.1866 194.081 22.1541 194.092 22.1203L194.518 20.8404H200.125L195.899 28.3362C195.372 29.2755 195.706 30.4643 196.646 30.9915C196.939 31.1559 197.27 31.2417 197.606 31.2411H199.028L193.624 37.1717L194.274 35.0598C194.589 34.0296 194.008 32.9395 192.978 32.6256C192.792 32.569 192.6 32.5404 192.406 32.5411H190.578L191.878 28.6814C192.247 27.6693 191.726 26.55 190.715 26.1802C189.704 25.811 188.584 26.3316 188.214 27.343C188.202 27.3762 188.191 27.4087 188.181 27.4425L186.007 33.8612C185.66 34.8804 186.205 35.9887 187.224 36.3364C187.427 36.406 187.641 36.4411 187.856 36.4404H189.765L187.368 44.3217C187.062 45.3545 187.65 46.44 188.682 46.7468C189.4 46.9594 190.175 46.7436 190.679 46.1911L204.898 30.5911C205.616 29.7877 205.547 28.5553 204.744 27.837C204.389 27.5198 203.931 27.3437 203.456 27.3411H200.937L205.162 19.8453C205.689 18.906 205.356 17.7172 204.416 17.19C204.122 17.0256 203.792 16.9398 203.456 16.9404H193.117C193.056 16.9378 192.995 16.9378 192.934 16.9404ZM212.331 11.7201C211.888 11.7787 211.48 11.9867 211.173 12.3091L207.273 16.2091C206.467 16.9241 206.393 18.1565 207.107 18.9625C207.822 19.7684 209.054 19.8426 209.86 19.1282C209.922 19.073 209.981 19.0138 210.036 18.9514L213.936 15.0514C214.706 14.3 214.722 13.065 213.97 12.2941C213.543 11.8567 212.937 11.6441 212.331 11.7201ZM178.531 11.7201C177.46 11.8352 176.685 12.7965 176.8 13.8671C176.848 14.3162 177.05 14.7348 177.373 15.0514L181.273 18.9514C181.981 19.7626 183.214 19.8464 184.025 19.1379C184.836 18.4294 184.919 17.1977 184.211 16.3858C184.156 16.3235 184.098 16.2643 184.035 16.209L180.135 12.309C179.72 11.8761 179.128 11.659 178.531 11.7201ZM195.634 0C194.557 0.01105 193.693 0.8931 193.704 1.97015C193.704 1.9773 193.704 1.9838 193.704 1.9903V12.3903C193.689 13.4674 194.55 14.3533 195.627 14.3682C196.704 14.3832 197.589 13.5226 197.604 12.4455C197.605 12.4274 197.605 12.4092 197.604 12.3903V1.9903C197.627 0.9139 196.771 0.02275 195.695 0C195.674 0 195.654 0 195.634 0Z" fill="#F23F28"/>
</g>
<path d="M148.627 30.409L52 30.5" stroke="#F23F28" stroke-width="3" stroke-linecap="round" stroke-linejoin="round"/>
<path d="M335.627 30.409L239 30.5" stroke="#F23F28" stroke-width="3" stroke-linecap="round" stroke-linejoin="round"/>
<path d="M510.6 30.409L407 30.5" stroke="#F23F28" stroke-width="3" stroke-linecap="round" stroke-linejoin="round"/>
</svg>
