<svg width="726" height="62" viewBox="0 0 726 62" fill="none" xmlns="http://www.w3.org/2000/svg">
<mask id="mask0" mask-type="alpha" maskUnits="userSpaceOnUse" x="0" y="10" width="36" height="42">
<path fill-rule="evenodd" clip-rule="evenodd" d="M0 10H36V51.6H0V10Z" fill="white"/>
</mask>
<g mask="url(#mask0)">
<path fill-rule="evenodd" clip-rule="evenodd" d="M14.9609 29.3793C15.1405 28.9389 15.8518 27.5923 18.0359 27.5923C20.1301 27.5923 20.8701 28.827 21.0857 29.3216C20.8809 33.7693 20.299 43.95 20.0655 47.9898H18.4526H17.5545H16.0063C15.78 44.0474 15.2124 34.2386 14.9609 29.3793ZM30.6141 24.8703C29.8849 24.5273 29.0874 24.271 28.1678 24.2132C26.3753 24.1338 24.396 24.6862 22.9627 25.9064C21.964 24.9353 20.4984 24.1338 18.4832 24.0255V23.9822H18.0341H17.5851V24.0255C15.6166 24.1338 14.1653 24.8992 13.1667 25.845C11.7298 24.6501 9.70375 24.1085 7.89686 24.2132C6.94852 24.271 6.13308 24.5454 5.38949 24.9064L3.71551 13.6102H17.5528H18.4508H32.2845L30.6141 24.8703ZM6.04328 29.2711C6.17978 28.1122 7.40114 27.8631 8.11958 27.8162C9.53851 27.7223 11.1802 28.3974 11.3777 29.0834C11.5645 33.2531 12.1608 43.6937 12.4051 47.9898H8.81288L6.03968 29.2928L6.04328 29.2711ZM24.6438 29.4335C24.9061 28.3577 26.58 27.7115 27.9523 27.8198C28.6384 27.8595 29.7663 28.1122 29.9819 29.152L27.1871 47.9898H23.6631C23.9074 43.7046 24.4929 33.3253 24.6438 29.4335ZM33.6244 29.0761L35.9701 13.2636C36.0886 12.4441 35.8516 11.6137 35.3127 10.9856C34.7739 10.3574 33.9908 10 33.1682 10H18.4508H17.5528H2.83183C2.00561 10 1.2261 10.3574 0.687267 10.9856C0.148434 11.6137 -0.0886533 12.4441 0.0298902 13.2636L5.35357 49.174C5.55833 50.5567 6.76172 51.6 8.15191 51.6H17.5528H18.4508H27.8445C29.2562 51.6 30.4381 50.5783 30.6428 49.174L33.5921 29.3L33.6495 29.2928L33.6244 29.0761Z" fill="#F23F28"/>
</g>
<path d="M470.5 9C458.644 9 449 18.6445 449 30.5C449 42.3555 458.644 52 470.5 52C482.356 52 492 42.3555 492 30.5C492 18.6445 482.356 9 470.5 9ZM484.77 32.2408H487.911C487.568 35.6957 486.214 38.8572 484.153 41.4284L481.955 39.2307C481.238 38.5137 480.078 38.5137 479.361 39.2307C478.644 39.9477 478.644 41.1083 479.361 41.8253L481.575 44.0396C479.024 46.1306 475.876 47.5146 472.428 47.8914V44.77C472.428 43.7562 471.607 42.9358 470.593 42.9358C469.58 42.9358 468.759 43.7562 468.759 44.77V47.9114C465.304 47.5679 462.143 46.214 459.575 44.153L461.773 41.9553C462.49 41.2383 462.49 40.0778 461.773 39.3608C461.056 38.6438 459.895 38.6438 459.178 39.3608L456.964 41.5751C454.873 39.024 453.489 35.8758 453.112 32.4276H456.233C457.247 32.4276 458.068 31.6072 458.068 30.5934C458.068 29.5796 457.247 28.7592 456.233 28.7592H453.092C453.435 25.3042 454.789 22.1428 456.85 19.5716L459.051 21.7693C459.408 22.1261 459.878 22.3062 460.349 22.3062C460.819 22.3062 461.289 22.1261 461.646 21.7693C462.363 21.0523 462.363 19.8917 461.646 19.1747L459.432 16.9604C461.983 14.8694 465.131 13.4854 468.579 13.1086V16.23C468.579 17.2438 469.399 18.0642 470.413 18.0642C471.427 18.0642 472.247 17.2438 472.247 16.23V13.0886C475.702 13.4321 478.864 14.786 481.432 16.847L479.231 19.048C478.514 19.765 478.514 20.9255 479.231 21.6425C479.588 21.9994 480.058 22.1795 480.528 22.1795C480.998 22.1795 481.465 21.9994 481.825 21.6425L484.04 19.4282C486.131 21.9794 487.515 25.1275 487.891 28.5758H484.77C483.756 28.5758 482.936 29.3962 482.936 30.41C482.936 31.4238 483.756 32.2408 484.77 32.2408Z" fill="#F23F28"/>
<path d="M472.239 29.7365V21.9362C472.239 20.9224 471.418 20.1021 470.404 20.1021C469.391 20.1021 468.57 20.9224 468.57 21.9362V31.2639L473.363 36.0195C473.719 36.373 474.186 36.553 474.653 36.553C475.123 36.553 475.597 36.373 475.954 36.0094C476.667 35.2891 476.664 34.1286 475.944 33.4149L472.239 29.7365Z" fill="#F23F28"/>
<path d="M719.996 12.3018H715.866V8H711.89V12.3018H695.238V8H691.259V12.3018H687.004C683.695 12.3018 681 15.0533 681 18.431V45.8673C681 49.2485 683.695 51.9966 687.004 51.9966H719.992C723.305 51.9966 725.997 49.2451 725.997 45.8673V18.431C726 15.0533 723.308 12.3018 719.996 12.3018ZM687.004 16.4085H691.259V18.6535H695.235V16.4085H711.886V18.6535H715.866V16.4085H719.996C721.089 16.4085 721.977 17.3154 721.977 18.431V22.7499H685.023V18.431C685.023 17.3154 685.911 16.4085 687.004 16.4085ZM719.996 47.8933H687.008C685.915 47.8933 685.026 46.9864 685.026 45.8707V26.8122H721.98V45.8707C721.977 46.9864 721.089 47.8933 719.996 47.8933Z" fill="#F23F28"/>
<path d="M693.218 31.1206H689.168V35.2547H693.218V31.1206Z" fill="#F23F28"/>
<path d="M701.425 31.1206H697.375V35.2547H701.425V31.1206Z" fill="#F23F28"/>
<path d="M709.628 31.1206H705.578V35.2547H709.628V31.1206Z" fill="#F23F28"/>
<path d="M717.835 31.1206H713.785V35.2547H717.835V31.1206Z" fill="#F23F28"/>
<path d="M693.218 39.3926H689.168V43.5267H693.218V39.3926Z" fill="#F23F28"/>
<path d="M701.425 39.3926H697.375V43.5267H701.425V39.3926Z" fill="#F23F28"/>
<path d="M709.628 39.3926H705.578V43.5267H709.628V39.3926Z" fill="#F23F28"/>
<path d="M717.835 39.3926H713.785V43.5267H717.835V39.3926Z" fill="#F23F28"/>
<mask id="mask1" mask-type="alpha" maskUnits="userSpaceOnUse" x="234" y="0" width="62" height="62">
<path fill-rule="evenodd" clip-rule="evenodd" d="M234 0.000488281H295.232V61.1687H234V0.000488281Z" fill="white"/>
</mask>
<g mask="url(#mask1)">
<path fill-rule="evenodd" clip-rule="evenodd" d="M264.634 46.8005C263.557 46.8115 262.693 47.6936 262.704 48.7706C262.704 48.7778 262.704 48.7843 262.704 48.7914V59.1908C262.689 60.2678 263.55 61.1538 264.627 61.1687C265.704 61.1837 266.589 60.3231 266.604 59.246C266.605 59.2278 266.605 59.2096 266.604 59.1908V48.7914C266.627 47.7144 265.771 46.8232 264.695 46.8005C264.674 46.8005 264.654 46.8005 264.634 46.8005ZM277.431 41.6206C276.36 41.7357 275.584 42.697 275.7 43.7676C275.748 44.2167 275.95 44.6353 276.273 44.9519L280.173 48.8519C280.882 49.6631 282.113 49.7469 282.925 49.0384C283.736 48.3299 283.819 47.0982 283.111 46.2863C283.056 46.2239 282.998 46.1648 282.936 46.1102L279.036 42.2102C278.62 41.7766 278.028 41.5595 277.431 41.6206ZM251.43 41.6206C250.988 41.6791 250.579 41.8871 250.271 42.2102L246.371 46.1102C245.565 46.8245 245.491 48.0569 246.206 48.8629C246.92 49.6689 248.152 49.743 248.958 49.0287C249.021 48.9734 249.079 48.9143 249.134 48.8519L253.034 44.9519C253.805 44.2005 253.821 42.9655 253.069 42.1946C252.643 41.7571 252.035 41.5446 251.43 41.6206ZM282.651 28.6414C281.574 28.6973 280.747 29.6158 280.803 30.6928C280.859 31.7692 281.778 32.5973 282.855 32.5414H293.255C294.331 32.5564 295.216 31.6958 295.232 30.6187C295.247 29.5417 294.386 28.6564 293.309 28.6414C293.29 28.6408 293.273 28.6408 293.255 28.6414H282.855C282.786 28.6375 282.719 28.6375 282.651 28.6414ZM235.851 28.6414C234.774 28.6973 233.947 29.6158 234.003 30.6928C234.059 31.7692 234.978 32.5973 236.054 32.5414H246.454C247.531 32.5564 248.416 31.6958 248.432 30.6187C248.447 29.5417 247.586 28.6564 246.509 28.6414C246.491 28.6408 246.473 28.6408 246.454 28.6414H236.054C235.986 28.6375 235.919 28.6375 235.851 28.6414ZM261.934 16.9409C261.166 17.0137 260.514 17.5311 260.268 18.2617L259.394 20.8819C259.025 21.8939 259.546 23.0132 260.558 23.3831C261.569 23.7523 262.689 23.2316 263.059 22.2202C263.07 22.1871 263.081 22.1546 263.092 22.1208L263.518 20.8409H269.125L264.899 28.3367C264.372 29.276 264.706 30.4648 265.646 30.992C265.939 31.1564 266.27 31.2422 266.606 31.2416H268.028L262.624 37.1722L263.274 35.0603C263.589 34.0301 263.008 32.94 261.978 32.6261C261.792 32.5695 261.6 32.5409 261.406 32.5416H259.578L260.878 28.6819C261.247 27.6698 260.726 26.5505 259.715 26.1807C258.704 25.8115 257.584 26.3321 257.214 27.3435C257.202 27.3767 257.191 27.4092 257.181 27.443L255.007 33.8617C254.66 34.8809 255.205 35.9892 256.224 36.3369C256.427 36.4065 256.641 36.4416 256.856 36.4409H258.765L256.368 44.3222C256.062 45.355 256.65 46.4405 257.682 46.7473C258.4 46.9599 259.175 46.7441 259.679 46.1916L273.898 30.5916C274.616 29.7882 274.547 28.5558 273.744 27.8375C273.389 27.5203 272.931 27.3442 272.456 27.3416H269.937L274.162 19.8458C274.689 18.9065 274.356 17.7177 273.416 17.1905C273.122 17.0261 272.792 16.9403 272.456 16.9409H262.117C262.056 16.9383 261.995 16.9383 261.934 16.9409ZM281.331 11.7206C280.888 11.7791 280.48 11.9871 280.173 12.3095L276.273 16.2095C275.467 16.9245 275.393 18.1569 276.107 18.9629C276.822 19.7689 278.054 19.843 278.86 19.1287C278.922 19.0734 278.981 19.0143 279.036 18.9519L282.936 15.0519C283.706 14.3005 283.722 13.0655 282.97 12.2946C282.543 11.8571 281.937 11.6446 281.331 11.7206ZM247.531 11.7206C246.46 11.8357 245.685 12.797 245.8 13.8676C245.848 14.3167 246.05 14.7353 246.373 15.0519L250.273 18.9519C250.981 19.7631 252.214 19.8469 253.025 19.1384C253.836 18.4299 253.919 17.1982 253.211 16.3863C253.156 16.3239 253.098 16.2648 253.035 16.2095L249.135 12.3095C248.72 11.8766 248.128 11.6595 247.531 11.7206ZM264.634 0.000488281C263.557 0.0115383 262.693 0.893588 262.704 1.97064C262.704 1.97779 262.704 1.98429 262.704 1.99079V12.3908C262.689 13.4678 263.55 14.3538 264.627 14.3687C265.704 14.3837 266.589 13.5231 266.604 12.446C266.605 12.4278 266.605 12.4096 266.604 12.3908V1.99079C266.627 0.914388 265.771 0.0232383 264.695 0.000488281C264.674 0.000488281 264.654 0.000488281 264.634 0.000488281Z" fill="#F23F28"/>
</g>
<path d="M220.35 30.409L52 30.5" stroke="#F23F28" stroke-width="3" stroke-linecap="round" stroke-linejoin="round"/>
<path d="M440.825 30.409L307 30.5" stroke="#F23F28" stroke-width="3" stroke-linecap="round" stroke-linejoin="round"/>
<path d="M670.587 30.409L501 30.5" stroke="#F23F28" stroke-width="3" stroke-linecap="round" stroke-linejoin="round"/>
</svg>
