<svg width="62" height="368" viewBox="0 0 62 368" fill="none" xmlns="http://www.w3.org/2000/svg">
<mask id="mask0" mask-type="alpha" maskUnits="userSpaceOnUse" x="0" y="101" width="62" height="61">
<path fill-rule="evenodd" clip-rule="evenodd" d="M0 101H61.0435V161.98H0V101Z" fill="white"/>
</mask>
<g mask="url(#mask0)">
<path fill-rule="evenodd" clip-rule="evenodd" d="M43.2961 142.492C42.2282 142.607 41.4552 143.565 41.5699 144.632C41.6178 145.08 41.82 145.497 42.1421 145.813L46.0301 149.701C46.7364 150.51 47.9637 150.593 48.773 149.887C49.5817 149.181 49.6647 147.953 48.9584 147.143C48.9039 147.081 48.8456 147.022 48.7841 146.968L44.8961 143.08C44.4813 142.648 43.891 142.431 43.2961 142.492ZM17.3775 142.492C16.9368 142.55 16.5293 142.758 16.2228 143.08L12.3348 146.968C11.5312 147.68 11.4574 148.909 12.1695 149.712C12.8817 150.516 14.1103 150.589 14.9138 149.877C14.976 149.822 15.0343 149.763 15.0888 149.701L18.9768 145.813C19.7459 145.064 19.7615 143.833 19.0117 143.064C18.5867 142.628 17.9814 142.416 17.3775 142.492ZM48.5016 129.553C47.4278 129.609 46.6029 130.524 46.6593 131.598C46.7144 132.671 47.6307 133.497 48.7044 133.441H59.0724C60.1455 133.456 61.0281 132.598 61.0436 131.524C61.0585 130.45 60.2006 129.568 59.1268 129.553C59.108 129.552 59.0905 129.552 59.0724 129.553H48.7044C48.6364 129.549 48.569 129.549 48.5016 129.553ZM1.84558 129.553C0.771841 129.609 -0.0530627 130.524 0.00266529 131.598C0.0583933 132.671 0.974665 133.497 2.04775 133.441H12.4158C13.4895 133.456 14.3721 132.598 14.3876 131.524C14.4025 130.45 13.5446 129.568 12.4708 129.553C12.4527 129.552 12.4345 129.552 12.4158 129.553H2.04775C1.98036 129.549 1.91297 129.549 1.84558 129.553ZM27.8466 117.888C27.0813 117.961 26.4307 118.477 26.1858 119.205L25.3148 121.817C24.9468 122.826 25.4658 123.942 26.4748 124.31C27.483 124.679 28.5996 124.16 28.9676 123.151C28.9793 123.118 28.9903 123.086 29.0007 123.052L29.4258 121.776H35.0154L30.8028 129.249C30.2772 130.185 30.6103 131.37 31.5467 131.896C31.8389 132.06 32.1687 132.145 32.5038 132.145H33.9216L28.5348 138.057L29.1828 135.952C29.4964 134.925 28.9171 133.838 27.89 133.525C27.7053 133.469 27.5135 133.44 27.3198 133.441H25.4976L26.7936 129.593C27.1616 128.584 26.6426 127.468 25.6343 127.099C24.626 126.731 23.5095 127.25 23.1414 128.259C23.1291 128.292 23.1181 128.324 23.1078 128.358L20.9408 134.757C20.5948 135.773 21.1378 136.878 22.1539 137.224C22.3567 137.294 22.5699 137.329 22.7838 137.328H24.6876L22.2978 145.185C21.9925 146.215 22.579 147.297 23.608 147.603C24.3234 147.815 25.0965 147.6 25.5987 147.049L39.7737 131.497C40.4897 130.696 40.421 129.467 39.6201 128.751C39.2663 128.435 38.8101 128.259 38.3364 128.257H35.8254L40.0374 120.784C40.5623 119.848 40.2299 118.663 39.2928 118.137C39.0006 117.973 38.6708 117.888 38.3364 117.888H28.0287C27.9678 117.886 27.9075 117.886 27.8466 117.888ZM47.1855 112.684C46.7442 112.742 46.3373 112.95 46.0314 113.271L42.1434 117.159C41.3399 117.872 41.2654 119.101 41.9775 119.904C42.6903 120.708 43.9183 120.781 44.7218 120.069C44.784 120.014 44.8423 119.955 44.8974 119.893L48.7854 116.005C49.5533 115.256 49.5695 114.025 48.8191 113.256C48.394 112.82 47.7894 112.608 47.1855 112.684ZM13.4913 112.684C12.4234 112.799 11.651 113.757 11.7651 114.824C11.813 115.272 12.0152 115.689 12.3366 116.005L16.2246 119.893C16.9309 120.702 18.1595 120.785 18.9682 120.079C19.7769 119.373 19.8599 118.145 19.1536 117.335C19.0991 117.273 19.0408 117.214 18.9786 117.159L15.0906 113.271C14.6765 112.839 14.0862 112.623 13.4913 112.684Z" fill="#F23F28"/>
</g>
<mask id="mask1" mask-type="alpha" maskUnits="userSpaceOnUse" x="12" y="0" width="36" height="42">
<path fill-rule="evenodd" clip-rule="evenodd" d="M12 0H48V41.6H12V0Z" fill="white"/>
</mask>
<g mask="url(#mask1)">
<path fill-rule="evenodd" clip-rule="evenodd" d="M26.9609 19.3793C27.1405 18.9389 27.8518 17.5923 30.0359 17.5923C32.1301 17.5923 32.8701 18.827 33.0857 19.3216C32.8809 23.7693 32.299 33.95 32.0655 37.9898H30.4526H29.5545H28.0063C27.78 34.0474 27.2124 24.2386 26.9609 19.3793ZM42.6141 14.8703C41.8849 14.5273 41.0874 14.271 40.1678 14.2132C38.3753 14.1338 36.396 14.6862 34.9627 15.9064C33.964 14.9353 32.4984 14.1338 30.4832 14.0255V13.9822H30.0341H29.5851V14.0255C27.6166 14.1338 26.1653 14.8992 25.1667 15.845C23.7298 14.6501 21.7038 14.1085 19.8969 14.2132C18.9485 14.271 18.1331 14.5454 17.3895 14.9064L15.7155 3.61017H29.5528H30.4508H44.2845L42.6141 14.8703ZM18.0433 19.2711C18.1798 18.1122 19.4011 17.8631 20.1196 17.8162C21.5385 17.7223 23.1802 18.3974 23.3777 19.0834C23.5645 23.2531 24.1608 33.6937 24.4051 37.9898H20.8129L18.0397 19.2928L18.0433 19.2711ZM36.6438 19.4335C36.9061 18.3577 38.58 17.7115 39.9523 17.8198C40.6384 17.8595 41.7663 18.1122 41.9819 19.152L39.1871 37.9898H35.6631C35.9074 33.7046 36.4929 23.3253 36.6438 19.4335ZM45.6244 19.0761L47.9701 3.26359C48.0886 2.44409 47.8516 1.61375 47.3127 0.985577C46.7739 0.357407 45.9908 0 45.1682 0H30.4508H29.5528H14.8318C14.0056 0 13.2261 0.357407 12.6873 0.985577C12.1484 1.61375 11.9113 2.44409 12.0299 3.26359L17.3536 39.174C17.5583 40.5567 18.7617 41.6 20.1519 41.6H29.5528H30.4508H39.8445C41.2562 41.6 42.4381 40.5783 42.6428 39.174L45.5921 19.3L45.6495 19.2928L45.6244 19.0761Z" fill="#F23F28"/>
</g>
<path d="M30.5 316C30.5 316 30.5 294.402 30.5 286.36C30.5 278.318 30.5 274 30.5 274" stroke="#F23F28" stroke-width="4" stroke-linecap="round"/>
<path d="M30.5 206C30.5 206 30.5 181.078 30.5 171.798C30.5 162.518 30.5 157 30.5 157" stroke="#F23F28" stroke-width="4" stroke-linecap="round"/>
<path fill-rule="evenodd" clip-rule="evenodd" d="M30.5 105C30.5 105 30.5 75.2093 30.5 66.4546C30.5 57.7 30.5 53 30.5 53V105Z" stroke="#F23F28" stroke-width="4" stroke-linecap="round" stroke-linejoin="round"/>
<path d="M30.5 219C18.6445 219 9 228.644 9 240.5C9 252.356 18.6445 262 30.5 262C42.3555 262 52 252.356 52 240.5C52 228.644 42.3555 219 30.5 219ZM44.77 242.241H47.9114C47.5679 245.696 46.214 248.857 44.153 251.428L41.9553 249.231C41.2383 248.514 40.0778 248.514 39.3608 249.231C38.6438 249.948 38.6438 251.108 39.3608 251.825L41.5751 254.04C39.024 256.131 35.8758 257.515 32.4276 257.891V254.77C32.4276 253.756 31.6072 252.936 30.5934 252.936C29.5796 252.936 28.7592 253.756 28.7592 254.77V257.911C25.3042 257.568 22.1428 256.214 19.5749 254.153L21.7726 251.955C22.4896 251.238 22.4896 250.078 21.7726 249.361C21.0556 248.644 19.8951 248.644 19.1781 249.361L16.9637 251.575C14.8727 249.024 13.4888 245.876 13.1119 242.428H16.2334C17.2472 242.428 18.0676 241.607 18.0676 240.593C18.0676 239.58 17.2472 238.759 16.2334 238.759H13.0919C13.4354 235.304 14.7894 232.143 16.8503 229.572L19.0513 231.769C19.4082 232.126 19.8784 232.306 20.3486 232.306C20.8188 232.306 21.289 232.126 21.6459 231.769C22.3629 231.052 22.3629 229.892 21.6459 229.175L19.4315 226.96C21.9827 224.869 25.1308 223.485 28.5791 223.109V226.23C28.5791 227.244 29.3995 228.064 30.4133 228.064C31.4271 228.064 32.2475 227.244 32.2475 226.23V223.089C35.7024 223.432 38.8639 224.786 41.4318 226.847L39.2307 229.048C38.5137 229.765 38.5137 230.926 39.2307 231.643C39.5876 231.999 40.0578 232.179 40.528 232.179C40.9982 232.179 41.4651 231.999 41.8253 231.643L44.0396 229.428C46.1306 231.979 47.5146 235.128 47.8914 238.576H44.77C43.7562 238.576 42.9358 239.396 42.9358 240.41C42.9358 241.424 43.7562 242.241 44.77 242.241Z" fill="#F23F28"/>
<path d="M32.2387 239.737V231.936C32.2387 230.922 31.4183 230.102 30.4045 230.102C29.3907 230.102 28.5703 230.922 28.5703 231.936V241.264L33.3625 246.019C33.7194 246.373 34.1863 246.553 34.6531 246.553C35.1234 246.553 35.5969 246.373 35.9537 246.009C36.6674 245.289 36.6641 244.129 35.9437 243.415L32.2387 239.737Z" fill="#F23F28"/>
<path d="M46.9958 328.302H42.8655V324H38.8895V328.302H22.2379V324H18.2585V328.302H14.0042C10.6954 328.302 8 331.053 8 334.431V361.867C8 365.248 10.6954 367.997 14.0042 367.997H46.9924C50.3046 367.997 52.9967 365.245 52.9967 361.867V334.431C53 331.053 50.308 328.302 46.9958 328.302ZM14.0042 332.408H18.2585V334.653H22.2345V332.408H38.8862V334.653H42.8655V332.408H46.9958C48.0887 332.408 48.9771 333.315 48.9771 334.431V338.75H12.0229V334.431C12.0229 333.315 12.9113 332.408 14.0042 332.408ZM46.9958 363.893H14.0076C12.9147 363.893 12.0263 362.986 12.0263 361.871V342.812H48.9804V361.871C48.9771 362.986 48.0887 363.893 46.9958 363.893Z" fill="#F23F28"/>
<path d="M20.2177 347.121H16.168V351.255H20.2177V347.121Z" fill="#F23F28"/>
<path d="M28.4248 347.121H24.375V351.255H28.4248V347.121Z" fill="#F23F28"/>
<path d="M36.6279 347.121H32.5781V351.255H36.6279V347.121Z" fill="#F23F28"/>
<path d="M44.8349 347.121H40.7852V351.255H44.8349V347.121Z" fill="#F23F28"/>
<path d="M20.2177 355.393H16.168V359.527H20.2177V355.393Z" fill="#F23F28"/>
<path d="M28.4248 355.393H24.375V359.527H28.4248V355.393Z" fill="#F23F28"/>
<path d="M36.6279 355.393H32.5781V359.527H36.6279V355.393Z" fill="#F23F28"/>
<path d="M44.8349 355.393H40.7852V359.527H44.8349V355.393Z" fill="#F23F28"/>
</svg>
