<svg xmlns="http://www.w3.org/2000/svg" width="50" height="50" fill="none" viewBox="0 0 50 50">
    <path fill="#F23F28" d="M0 0h50v50H0z"/>
    <mask id="a" width="24" height="27" x="13" y="12" maskUnits="userSpaceOnUse">
        <path fill="#fff" fill-rule="evenodd" d="M13.02 12.477H36.53V38.8H13.02V12.477z" clip-rule="evenodd"/>
    </mask>
    <g mask="url(#a)">
        <path fill="#fff" fill-rule="evenodd" d="M24.776 36.514c-9.02-3.89-9.664-14.82-9.643-18.18.504.007 1.131.01 1.758.002 3.236-.046 6.504-2.15 7.885-3.15 1.378 1.003 4.646 3.104 7.88 3.15.63.009 1.258.005 1.762-.002.028 3.357-.6 14.283-9.642 18.18zm11.719-19.349l-.083-1.003-1.004.034c-.01 0-1.353.044-2.721.023-3.408-.049-7.197-3.152-7.235-3.183l-.675-.56-.676.56c-.038.031-3.829 3.134-7.239 3.183-1.353.017-2.708-.026-2.719-.024l-1.004-.033-.082 1.003c-.015.163-1.214 16.486 11.328 21.477l.392.157.391-.157C37.71 33.651 36.51 17.328 36.495 17.165z" clip-rule="evenodd"/>
    </g>
    <path fill="#fff" fill-rule="evenodd" d="M26.441 20.951h-3.693v2.734h-2.732v3.694h2.732v2.732h3.693v-2.732h2.734v-3.694h-2.734v-2.734z" clip-rule="evenodd"/>
</svg>
