<svg width="264" height="134" viewBox="0 0 264 134" fill="none" xmlns="http://www.w3.org/2000/svg">
<path d="M41.654 47.53C40.1873 47.53 38.8673 47.2233 37.694 46.61C36.534 45.9833 35.6207 45.1167 34.954 44.01C34.2873 42.9033 33.954 41.65 33.954 40.25C33.954 38.85 34.2873 37.5967 34.954 36.49C35.6207 35.3833 36.534 34.5233 37.694 33.91C38.8673 33.2833 40.1873 32.97 41.654 32.97C42.934 32.97 44.0873 33.1967 45.114 33.65C46.1407 34.1033 46.994 34.7567 47.674 35.61L45.154 37.89C44.2473 36.7967 43.1473 36.25 41.854 36.25C41.094 36.25 40.414 36.4167 39.814 36.75C39.2273 37.0833 38.7673 37.5567 38.434 38.17C38.114 38.77 37.954 39.4633 37.954 40.25C37.954 41.0367 38.114 41.7367 38.434 42.35C38.7673 42.95 39.2273 43.4167 39.814 43.75C40.414 44.0833 41.094 44.25 41.854 44.25C43.1473 44.25 44.2473 43.7033 45.154 42.61L47.674 44.89C46.994 45.7433 46.1407 46.3967 45.114 46.85C44.0873 47.3033 42.934 47.53 41.654 47.53ZM58.8885 44.53H52.9685L51.8685 47.25H47.8285L54.0085 33.25H57.9085L64.1085 47.25H59.9885L58.8885 44.53ZM57.7285 41.61L55.9285 37.13L54.1285 41.61H57.7285ZM78.3329 47.25L78.3129 39.83L74.7129 45.87H72.9529L69.3529 39.99V47.25H65.7129V33.25H68.9729L73.8929 41.33L78.6929 33.25H81.9529L81.9929 47.25H78.3329ZM91.8507 47.53C90.3707 47.53 89.0374 47.2167 87.8507 46.59C86.6774 45.9633 85.7507 45.0967 85.0707 43.99C84.404 42.8833 84.0707 41.6367 84.0707 40.25C84.0707 38.8633 84.404 37.6167 85.0707 36.51C85.7507 35.4033 86.6774 34.5367 87.8507 33.91C89.0374 33.2833 90.3707 32.97 91.8507 32.97C93.3307 32.97 94.6574 33.2833 95.8307 33.91C97.0174 34.5367 97.944 35.4033 98.6107 36.51C99.2907 37.6167 99.6307 38.8633 99.6307 40.25C99.6307 41.6367 99.2907 42.8833 98.6107 43.99C97.944 45.0967 97.0174 45.9633 95.8307 46.59C94.6574 47.2167 93.3307 47.53 91.8507 47.53ZM91.8507 44.25C92.5574 44.25 93.1974 44.0833 93.7707 43.75C94.344 43.4167 94.7974 42.95 95.1307 42.35C95.464 41.7367 95.6307 41.0367 95.6307 40.25C95.6307 39.4633 95.464 38.77 95.1307 38.17C94.7974 37.5567 94.344 37.0833 93.7707 36.75C93.1974 36.4167 92.5574 36.25 91.8507 36.25C91.144 36.25 90.504 36.4167 89.9307 36.75C89.3574 37.0833 88.904 37.5567 88.5707 38.17C88.2374 38.77 88.0707 39.4633 88.0707 40.25C88.0707 41.0367 88.2374 41.7367 88.5707 42.35C88.904 42.95 89.3574 43.4167 89.9307 43.75C90.504 44.0833 91.144 44.25 91.8507 44.25ZM108.628 47.53C107.148 47.53 105.815 47.2167 104.628 46.59C103.455 45.9633 102.528 45.0967 101.848 43.99C101.181 42.8833 100.848 41.6367 100.848 40.25C100.848 38.8633 101.181 37.6167 101.848 36.51C102.528 35.4033 103.455 34.5367 104.628 33.91C105.815 33.2833 107.148 32.97 108.628 32.97C110.108 32.97 111.435 33.2833 112.608 33.91C113.795 34.5367 114.721 35.4033 115.388 36.51C116.068 37.6167 116.408 38.8633 116.408 40.25C116.408 41.6367 116.068 42.8833 115.388 43.99C114.721 45.0967 113.795 45.9633 112.608 46.59C111.435 47.2167 110.108 47.53 108.628 47.53ZM108.628 44.25C109.335 44.25 109.975 44.0833 110.548 43.75C111.121 43.4167 111.575 42.95 111.908 42.35C112.241 41.7367 112.408 41.0367 112.408 40.25C112.408 39.4633 112.241 38.77 111.908 38.17C111.575 37.5567 111.121 37.0833 110.548 36.75C109.975 36.4167 109.335 36.25 108.628 36.25C107.921 36.25 107.281 36.4167 106.708 36.75C106.135 37.0833 105.681 37.5567 105.348 38.17C105.015 38.77 104.848 39.4633 104.848 40.25C104.848 41.0367 105.015 41.7367 105.348 42.35C105.681 42.95 106.135 43.4167 106.708 43.75C107.281 44.0833 107.921 44.25 108.628 44.25ZM130.372 33.25V47.25H126.472V42.49C125.392 42.85 124.399 43.03 123.492 43.03C121.532 43.03 120.032 42.5633 118.992 41.63C117.966 40.6833 117.452 39.3233 117.452 37.55V33.25H121.352V37.11C121.352 38.91 122.232 39.81 123.992 39.81C124.952 39.81 125.779 39.65 126.472 39.33V33.25H130.372ZM133.369 33.25H137.269V41.47L143.049 33.25H146.769V47.25H142.869V39.05L137.109 47.25H133.369V33.25ZM168.755 33.25V47.25H149.775V33.25H153.675V44.11H157.335V33.25H161.235V44.11H164.855V33.25H168.755ZM170.575 44.11V50.07H166.935V47.25H164.775V44.11H170.575ZM183.711 44.19V47.25H172.471V33.25H183.451V36.31H176.391V38.67H182.611V41.63H176.391V44.19H183.711ZM199.287 33.25V47.25H195.327V41.79H189.927V47.25H185.967V33.25H189.927V38.51H195.327V33.25H199.287ZM202.295 33.25H206.195V41.47L211.975 33.25H215.695V47.25H211.795V39.05L206.035 47.25H202.295V33.25ZM229.941 44.19V47.25H218.701V33.25H229.681V36.31H222.621V38.67H228.841V41.63H222.621V44.19H229.941ZM56.3193 66.11V72.07H52.6993V69.25H43.7393V72.07H40.0993V66.11H40.5993C41.426 66.0967 42.006 65.53 42.3393 64.41C42.686 63.29 42.8993 61.6767 42.9793 59.57L43.1393 55.25H54.4193V66.11H56.3193ZM46.4393 59.91C46.386 61.4033 46.266 62.67 46.0793 63.71C45.8926 64.75 45.606 65.55 45.2193 66.11H50.5193V58.39H46.4993L46.4393 59.91ZM69.4529 66.19V69.25H58.2129V55.25H69.1929V58.31H62.1329V60.67H68.3529V63.63H62.1329V66.19H69.4529ZM82.989 58.39H78.709V69.25H74.809V58.39H70.509V55.25H82.989V58.39ZM91.4991 69.53C90.0191 69.53 88.6858 69.2167 87.4991 68.59C86.3258 67.9633 85.3991 67.0967 84.7191 65.99C84.0525 64.8833 83.7191 63.6367 83.7191 62.25C83.7191 60.8633 84.0525 59.6167 84.7191 58.51C85.3991 57.4033 86.3258 56.5367 87.4991 55.91C88.6858 55.2833 90.0191 54.97 91.4991 54.97C92.9791 54.97 94.3058 55.2833 95.4791 55.91C96.6658 56.5367 97.5925 57.4033 98.2591 58.51C98.9391 59.6167 99.2791 60.8633 99.2791 62.25C99.2791 63.6367 98.9391 64.8833 98.2591 65.99C97.5925 67.0967 96.6658 67.9633 95.4791 68.59C94.3058 69.2167 92.9791 69.53 91.4991 69.53ZM91.4991 66.25C92.2058 66.25 92.8458 66.0833 93.4191 65.75C93.9925 65.4167 94.4458 64.95 94.7791 64.35C95.1125 63.7367 95.2791 63.0367 95.2791 62.25C95.2791 61.4633 95.1125 60.77 94.7791 60.17C94.4458 59.5567 93.9925 59.0833 93.4191 58.75C92.8458 58.4167 92.2058 58.25 91.4991 58.25C90.7925 58.25 90.1525 58.4167 89.5791 58.75C89.0058 59.0833 88.5525 59.5567 88.2191 60.17C87.8858 60.77 87.7191 61.4633 87.7191 62.25C87.7191 63.0367 87.8858 63.7367 88.2191 64.35C88.5525 64.95 89.0058 65.4167 89.5791 65.75C90.1525 66.0833 90.7925 66.25 91.4991 66.25ZM107.056 63.89H105.256V69.25H101.316V55.25H105.256V60.69H107.156L110.496 55.25H114.656L110.276 62.01L114.696 69.25H110.236L107.056 63.89ZM122.709 69.53C121.242 69.53 119.922 69.2233 118.749 68.61C117.589 67.9833 116.675 67.1167 116.009 66.01C115.342 64.9033 115.009 63.65 115.009 62.25C115.009 60.85 115.342 59.5967 116.009 58.49C116.675 57.3833 117.589 56.5233 118.749 55.91C119.922 55.2833 121.242 54.97 122.709 54.97C123.989 54.97 125.142 55.1967 126.169 55.65C127.195 56.1033 128.049 56.7567 128.729 57.61L126.209 59.89C125.302 58.7967 124.202 58.25 122.909 58.25C122.149 58.25 121.469 58.4167 120.869 58.75C120.282 59.0833 119.822 59.5567 119.489 60.17C119.169 60.77 119.009 61.4633 119.009 62.25C119.009 63.0367 119.169 63.7367 119.489 64.35C119.822 64.95 120.282 65.4167 120.869 65.75C121.469 66.0833 122.149 66.25 122.909 66.25C124.202 66.25 125.302 65.7033 126.209 64.61L128.729 66.89C128.049 67.7433 127.195 68.3967 126.169 68.85C125.142 69.3033 123.989 69.53 122.709 69.53ZM130.518 55.25H134.418V63.47L140.198 55.25H143.918V69.25H140.018V61.05L134.258 69.25H130.518V55.25ZM152.584 63.89H150.784V69.25H146.844V55.25H150.784V60.69H152.684L156.024 55.25H160.184L155.804 62.01L160.224 69.25H155.764L152.584 63.89ZM170.822 66.53H164.902L163.802 69.25H159.762L165.942 55.25H169.842L176.042 69.25H171.922L170.822 66.53ZM169.662 63.61L167.862 59.13L166.062 63.61H169.662ZM192.746 66.11V72.11H189.126V69.25H177.646V55.25H181.546V66.11H186.926V55.25H190.826V66.11H192.746ZM194.619 55.25H198.519V63.47L204.299 55.25H208.019V69.25H204.119V61.05L198.359 69.25H194.619V55.25ZM222.745 55.25V69.25H218.845V65.73H216.685L214.385 69.25H210.225L213.065 65.15C212.132 64.7367 211.419 64.1433 210.925 63.37C210.432 62.5833 210.185 61.65 210.185 60.57C210.185 59.4767 210.439 58.53 210.945 57.73C211.452 56.93 212.179 56.3167 213.125 55.89C214.072 55.4633 215.179 55.25 216.445 55.25H222.745ZM216.525 58.37C214.965 58.37 214.185 59.0833 214.185 60.51C214.185 61.2167 214.379 61.7567 214.765 62.13C215.165 62.49 215.739 62.67 216.485 62.67H218.845V58.37H216.525ZM57.2804 91.53C55.8004 91.53 54.4671 91.2167 53.2804 90.59C52.1071 89.9633 51.1804 89.0967 50.5004 87.99C49.8337 86.8833 49.5004 85.6367 49.5004 84.25C49.5004 82.8633 49.8337 81.6167 50.5004 80.51C51.1804 79.4033 52.1071 78.5367 53.2804 77.91C54.4671 77.2833 55.8004 76.97 57.2804 76.97C58.7604 76.97 60.0871 77.2833 61.2604 77.91C62.4471 78.5367 63.3737 79.4033 64.0404 80.51C64.7204 81.6167 65.0604 82.8633 65.0604 84.25C65.0604 85.6367 64.7204 86.8833 64.0404 87.99C63.3737 89.0967 62.4471 89.9633 61.2604 90.59C60.0871 91.2167 58.7604 91.53 57.2804 91.53ZM57.2804 88.25C57.9871 88.25 58.6271 88.0833 59.2004 87.75C59.7737 87.4167 60.2271 86.95 60.5604 86.35C60.8937 85.7367 61.0604 85.0367 61.0604 84.25C61.0604 83.4633 60.8937 82.77 60.5604 82.17C60.2271 81.5567 59.7737 81.0833 59.2004 80.75C58.6271 80.4167 57.9871 80.25 57.2804 80.25C56.5737 80.25 55.9337 80.4167 55.3604 80.75C54.7871 81.0833 54.3337 81.5567 54.0004 82.17C53.6671 82.77 53.5004 83.4633 53.5004 84.25C53.5004 85.0367 53.6671 85.7367 54.0004 86.35C54.3337 86.95 54.7871 87.4167 55.3604 87.75C55.9337 88.0833 56.5737 88.25 57.2804 88.25ZM79.7977 91.25L79.7777 83.83L76.1777 89.87H74.4177L70.8177 83.99V91.25H67.1777V77.25H70.4377L75.3577 85.33L80.1577 77.25H83.4177L83.4577 91.25H79.7977ZM93.3155 91.53C91.8355 91.53 90.5022 91.2167 89.3155 90.59C88.1422 89.9633 87.2155 89.0967 86.5355 87.99C85.8689 86.8833 85.5355 85.6367 85.5355 84.25C85.5355 82.8633 85.8689 81.6167 86.5355 80.51C87.2155 79.4033 88.1422 78.5367 89.3155 77.91C90.5022 77.2833 91.8355 76.97 93.3155 76.97C94.7955 76.97 96.1222 77.2833 97.2955 77.91C98.4822 78.5367 99.4089 79.4033 100.076 80.51C100.756 81.6167 101.096 82.8633 101.096 84.25C101.096 85.6367 100.756 86.8833 100.076 87.99C99.4089 89.0967 98.4822 89.9633 97.2955 90.59C96.1222 91.2167 94.7955 91.53 93.3155 91.53ZM93.3155 88.25C94.0222 88.25 94.6622 88.0833 95.2355 87.75C95.8089 87.4167 96.2622 86.95 96.5955 86.35C96.9289 85.7367 97.0955 85.0367 97.0955 84.25C97.0955 83.4633 96.9289 82.77 96.5955 82.17C96.2622 81.5567 95.8089 81.0833 95.2355 80.75C94.6622 80.4167 94.0222 80.25 93.3155 80.25C92.6089 80.25 91.9689 80.4167 91.3955 80.75C90.8222 81.0833 90.3689 81.5567 90.0355 82.17C89.7022 82.77 89.5355 83.4633 89.5355 84.25C89.5355 85.0367 89.7022 85.7367 90.0355 86.35C90.3689 86.95 90.8222 87.4167 91.3955 87.75C91.9689 88.0833 92.6089 88.25 93.3155 88.25ZM115.882 77.25V91.25H111.982V80.39H107.962L107.882 82.67C107.816 84.67 107.649 86.2967 107.382 87.55C107.129 88.8033 106.689 89.7767 106.062 90.47C105.436 91.15 104.549 91.49 103.402 91.49C102.869 91.49 102.269 91.41 101.602 91.25L101.822 88.01C101.996 88.05 102.176 88.07 102.362 88.07C102.882 88.07 103.282 87.8633 103.562 87.45C103.842 87.0367 104.042 86.4633 104.162 85.73C104.282 84.9833 104.362 84.0167 104.402 82.83L104.602 77.25H115.882ZM125.757 91.53C124.277 91.53 122.944 91.2167 121.757 90.59C120.584 89.9633 119.657 89.0967 118.977 87.99C118.31 86.8833 117.977 85.6367 117.977 84.25C117.977 82.8633 118.31 81.6167 118.977 80.51C119.657 79.4033 120.584 78.5367 121.757 77.91C122.944 77.2833 124.277 76.97 125.757 76.97C127.237 76.97 128.564 77.2833 129.737 77.91C130.924 78.5367 131.85 79.4033 132.517 80.51C133.197 81.6167 133.537 82.8633 133.537 84.25C133.537 85.6367 133.197 86.8833 132.517 87.99C131.85 89.0967 130.924 89.9633 129.737 90.59C128.564 91.2167 127.237 91.53 125.757 91.53ZM125.757 88.25C126.464 88.25 127.104 88.0833 127.677 87.75C128.25 87.4167 128.704 86.95 129.037 86.35C129.37 85.7367 129.537 85.0367 129.537 84.25C129.537 83.4633 129.37 82.77 129.037 82.17C128.704 81.5567 128.25 81.0833 127.677 80.75C127.104 80.4167 126.464 80.25 125.757 80.25C125.05 80.25 124.41 80.4167 123.837 80.75C123.264 81.0833 122.81 81.5567 122.477 82.17C122.144 82.77 121.977 83.4633 121.977 84.25C121.977 85.0367 122.144 85.7367 122.477 86.35C122.81 86.95 123.264 87.4167 123.837 87.75C124.41 88.0833 125.05 88.25 125.757 88.25ZM148.346 85.89H146.686V91.25H142.806V85.89H141.146L138.406 91.25H133.826L137.806 83.91L134.066 77.25H138.226L141.026 82.69H142.806V77.25H146.686V82.69H148.386L151.246 77.25H155.386L151.646 83.91L155.626 91.25H151.066L148.346 85.89ZM168.144 88.19V91.25H156.904V77.25H167.884V80.31H160.824V82.67H167.044V85.63H160.824V88.19H168.144ZM183.72 77.25V91.25H179.76V85.79H174.36V91.25H170.4V77.25H174.36V82.51H179.76V77.25H183.72ZM186.729 77.25H190.629V85.47L196.409 77.25H200.129V91.25H196.229V83.05L190.469 91.25H186.729V77.25ZM214.375 88.19V91.25H203.135V77.25H214.115V80.31H207.055V82.67H213.275V85.63H207.055V88.19H214.375Z" fill="#0095D5"/>
<path fill-rule="evenodd" clip-rule="evenodd" d="M8.39922 58.4C9.89039 58.4 11.0992 57.1912 11.0992 55.7C11.0992 54.2088 9.89039 53 8.39922 53C6.90805 53 5.69922 54.2088 5.69922 55.7C5.69922 57.1912 6.90805 58.4 8.39922 58.4Z" fill="#0095D5"/>
<path fill-rule="evenodd" clip-rule="evenodd" d="M32.7 89.9C34.1912 89.9 35.4 88.6912 35.4 87.2C35.4 85.7088 34.1912 84.5 32.7 84.5C31.2088 84.5 30 85.7088 30 87.2C30 88.6912 31.2088 89.9 32.7 89.9Z" fill="#0095D5"/>
<path fill-rule="evenodd" clip-rule="evenodd" d="M7.85 95.7C11.0809 95.7 13.7 93.0809 13.7 89.85C13.7 86.6191 11.0809 84 7.85 84C4.61913 84 2 86.6191 2 89.85C2 93.0809 4.61913 95.7 7.85 95.7Z" fill="#0095D5"/>
<path fill-rule="evenodd" clip-rule="evenodd" d="M257.55 78.1C259.787 78.1 261.6 76.2868 261.6 74.05C261.6 71.8132 259.787 70 257.55 70C255.313 70 253.5 71.8132 253.5 74.05C253.5 76.2868 255.313 78.1 257.55 78.1Z" fill="#0095D5"/>
<path fill-rule="evenodd" clip-rule="evenodd" d="M233.7 100.603C235.191 100.603 236.4 99.3943 236.4 97.9031C236.4 96.412 235.191 95.2031 233.7 95.2031C232.209 95.2031 231 96.412 231 97.9031C231 99.3943 232.209 100.603 233.7 100.603Z" fill="#0095D5"/>
<path fill-rule="evenodd" clip-rule="evenodd" d="M100.652 17.1C102.888 17.1 104.702 15.2868 104.702 13.05C104.702 10.8132 102.888 9 100.652 9C98.4148 9 96.6016 10.8132 96.6016 13.05C96.6016 15.2868 98.4148 17.1 100.652 17.1Z" fill="#0095D5"/>
<path fill-rule="evenodd" clip-rule="evenodd" d="M61.05 8.1C63.2868 8.1 65.1 6.28675 65.1 4.05C65.1 1.81325 63.2868 0 61.05 0C58.8132 0 57 1.81325 57 4.05C57 6.28675 58.8132 8.1 61.05 8.1Z" fill="#0095D5"/>
<path fill-rule="evenodd" clip-rule="evenodd" d="M169.501 26.0992C170.992 26.0992 172.201 24.8904 172.201 23.3992C172.201 21.908 170.992 20.6992 169.501 20.6992C168.01 20.6992 166.801 21.908 166.801 23.3992C166.801 24.8904 168.01 26.0992 169.501 26.0992Z" fill="#0095D5"/>
<path fill-rule="evenodd" clip-rule="evenodd" d="M115.7 133.798C117.191 133.798 118.4 132.59 118.4 131.098C118.4 129.607 117.191 128.398 115.7 128.398C114.209 128.398 113 129.607 113 131.098C113 132.59 114.209 133.798 115.7 133.798Z" fill="#0095D5"/>
<path fill-rule="evenodd" clip-rule="evenodd" d="M129.2 119.4C130.691 119.4 131.9 118.191 131.9 116.7C131.9 115.209 130.691 114 129.2 114C127.709 114 126.5 115.209 126.5 116.7C126.5 118.191 127.709 119.4 129.2 119.4Z" fill="#0095D5"/>
<path fill-rule="evenodd" clip-rule="evenodd" d="M44.3992 18.9C45.8904 18.9 47.0992 17.6912 47.0992 16.2C47.0992 14.7088 45.8904 13.5 44.3992 13.5C42.908 13.5 41.6992 14.7088 41.6992 16.2C41.6992 17.6912 42.908 18.9 44.3992 18.9Z" fill="#0095D5"/>
<path fill-rule="evenodd" clip-rule="evenodd" d="M191.85 115.7C195.081 115.7 197.7 113.081 197.7 109.85C197.7 106.619 195.081 104 191.85 104C188.619 104 186 106.619 186 109.85C186 113.081 188.619 115.7 191.85 115.7Z" fill="#0095D5"/>
<path fill-rule="evenodd" clip-rule="evenodd" d="M204.151 15.3016C207.382 15.3016 210.001 12.6824 210.001 9.45156C210.001 6.2207 207.382 3.60156 204.151 3.60156C200.92 3.60156 198.301 6.2207 198.301 9.45156C198.301 12.6824 200.92 15.3016 204.151 15.3016Z" fill="#0095D5"/>
<path fill-rule="evenodd" clip-rule="evenodd" d="M65.05 116.1C67.2868 116.1 69.1 114.287 69.1 112.05C69.1 109.813 67.2868 108 65.05 108C62.8132 108 61 109.813 61 112.05C61 114.287 62.8132 116.1 65.05 116.1Z" fill="#0095D5"/>
</svg>
