<svg xmlns="http://www.w3.org/2000/svg" width="50" height="50" fill="none" viewBox="0 0 50 50">
    <path fill="#F23F28" d="M0 0h50v50H0z"/>
    <path fill="#fff" fill-rule="evenodd" d="M25.146 27.853a3.409 3.409 0 0 1-3.405-3.405 3.41 3.41 0 0 1 3.405-3.406 3.411 3.411 0 0 1 3.407 3.406 3.41 3.41 0 0 1-3.407 3.405zM25.145 19a5.446 5.446 0 0 0-5.446 5.448A5.447 5.447 0 1 0 25.145 19z" clip-rule="evenodd"/>
    <mask id="a" width="25" height="25" x="13" y="12" maskUnits="userSpaceOnUse">
        <path fill="#fff" fill-rule="evenodd" d="M13.082 12.431h24.132v24.083H13.082V12.431z" clip-rule="evenodd"/>
    </mask>
    <g mask="url(#a)">
        <path fill="#fff" fill-rule="evenodd" d="M29.476 32.59c0 .283.037.559.096.826-2.761 1.345-6.1 1.345-8.854.006.059-.27.098-.545.098-.833a3.811 3.811 0 0 0-3.811-3.81c-.288 0-.565.036-.833.096a9.992 9.992 0 0 1-1.05-4.428c0-1.54.373-3.053 1.048-4.427.27.061.547.098.835.098a3.811 3.811 0 0 0 3.81-3.813c0-.29-.04-.569-.101-.842 2.76-1.337 6.1-1.33 8.858.016-.059.267-.096.543-.096.826a3.811 3.811 0 0 0 3.811 3.813c.286 0 .563-.037.829-.098a9.981 9.981 0 0 1 1.055 4.427 10 10 0 0 1-1.053 4.428 3.822 3.822 0 0 0-.831-.096 3.811 3.811 0 0 0-3.81 3.81zm-12.47 1.769a1.772 1.772 0 0 1-1.771-1.77c0-.976.794-1.77 1.771-1.77.974 0 1.77.794 1.77 1.77s-.796 1.77-1.77 1.77zM33.29 14.536a1.77 1.77 0 1 1-.001 3.54 1.77 1.77 0 0 1 .001-3.54zm2.625 4.523a3.788 3.788 0 0 0 1.186-2.754 3.811 3.811 0 0 0-3.81-3.81c-1.087 0-2.063.459-2.754 1.187-3.354-1.667-7.436-1.667-10.788-.012a3.785 3.785 0 0 0-2.74-1.175 3.811 3.811 0 0 0-3.814 3.81c0 1.084.457 2.058 1.184 2.752a12.07 12.07 0 0 0-1.296 5.39c0 1.884.461 3.721 1.3 5.389a3.793 3.793 0 0 0-1.188 2.753 3.812 3.812 0 0 0 3.813 3.811 3.785 3.785 0 0 0 2.747-1.182 12.013 12.013 0 0 0 5.393 1.296c1.882 0 3.721-.463 5.39-1.298A3.79 3.79 0 0 0 33.29 36.4a3.811 3.811 0 0 0 3.81-3.81 3.787 3.787 0 0 0-1.185-2.752c.837-1.672 1.3-3.507 1.3-5.39 0-1.883-.463-3.722-1.3-5.39z" clip-rule="evenodd"/>
    </g>
    <path fill="#fff" fill-rule="evenodd" d="M40.471 22.386a2.193 2.193 0 1 0-.001 4.387 2.193 2.193 0 0 0 .002-4.387zM9.823 22.386a2.193 2.193 0 1 0 0 4.388 2.193 2.193 0 1 0 0-4.388z" clip-rule="evenodd"/>
</svg>
