<svg xmlns="http://www.w3.org/2000/svg" width="333" height="145" fill="none" viewBox="0 0 333 145">
    <path fill="#0095D5" d="M65.618 50.558c-1.613 0-3.065-.337-4.356-1.012a7.747 7.747 0 0 1-3.014-2.86c-.733-1.217-1.1-2.596-1.1-4.136s.367-2.918 1.1-4.136a7.59 7.59 0 0 1 3.014-2.838c1.29-.69 2.743-1.034 4.356-1.034 1.408 0 2.677.25 3.806.748a7.322 7.322 0 0 1 2.816 2.156l-2.772 2.508c-.997-1.203-2.207-1.804-3.63-1.804-.836 0-1.584.184-2.244.55a3.892 3.892 0 0 0-1.518 1.562c-.352.66-.528 1.423-.528 2.288 0 .866.176 1.636.528 2.31a3.93 3.93 0 0 0 1.518 1.54c.66.367 1.408.55 2.244.55 1.423 0 2.633-.601 3.63-1.804l2.772 2.508a7.322 7.322 0 0 1-2.816 2.156c-1.13.499-2.398.748-3.806.748zm18.958-3.3h-6.512l-1.21 2.992H72.41l6.798-15.4h4.29l6.82 15.4h-4.532l-1.21-2.992zM83.3 44.046l-1.98-4.928-1.98 4.928h3.96zm22.665 6.204l-.022-8.162-3.96 6.644h-1.936l-3.96-6.468v7.986h-4.004v-15.4h3.586l5.412 8.888 5.28-8.888h3.586l.044 15.4h-4.026zm14.87.308c-1.628 0-3.095-.344-4.4-1.034a7.865 7.865 0 0 1-3.058-2.86c-.734-1.217-1.1-2.589-1.1-4.114s.366-2.896 1.1-4.114a7.865 7.865 0 0 1 3.058-2.86c1.305-.69 2.772-1.034 4.4-1.034 1.628 0 3.087.345 4.378 1.034 1.305.69 2.324 1.643 3.058 2.86.748 1.218 1.122 2.589 1.122 4.114 0 1.526-.374 2.897-1.122 4.114-.734 1.218-1.753 2.17-3.058 2.86-1.291.69-2.75 1.034-4.378 1.034zm0-3.608c.777 0 1.481-.183 2.112-.55a3.983 3.983 0 0 0 1.496-1.54c.366-.675.55-1.444.55-2.31 0-.865-.184-1.628-.55-2.288a3.944 3.944 0 0 0-1.496-1.562 4.126 4.126 0 0 0-2.112-.55 4.12 4.12 0 0 0-2.112.55 3.93 3.93 0 0 0-1.496 1.562c-.367.66-.55 1.423-.55 2.288 0 .866.183 1.636.55 2.31a3.97 3.97 0 0 0 1.496 1.54 4.12 4.12 0 0 0 2.112.55zm18.455 3.608c-1.628 0-3.095-.344-4.4-1.034a7.865 7.865 0 0 1-3.058-2.86c-.733-1.217-1.1-2.589-1.1-4.114s.367-2.896 1.1-4.114a7.865 7.865 0 0 1 3.058-2.86c1.305-.69 2.772-1.034 4.4-1.034 1.628 0 3.087.345 4.378 1.034 1.305.69 2.325 1.643 3.058 2.86.748 1.218 1.122 2.589 1.122 4.114 0 1.526-.374 2.897-1.122 4.114-.733 1.218-1.753 2.17-3.058 2.86-1.291.69-2.75 1.034-4.378 1.034zm0-3.608c.777 0 1.481-.183 2.112-.55a3.976 3.976 0 0 0 1.496-1.54c.367-.675.55-1.444.55-2.31 0-.865-.183-1.628-.55-2.288a3.937 3.937 0 0 0-1.496-1.562 4.126 4.126 0 0 0-2.112-.55c-.777 0-1.481.184-2.112.55a3.937 3.937 0 0 0-1.496 1.562c-.367.66-.55 1.423-.55 2.288 0 .866.183 1.636.55 2.31.367.66.865 1.173 1.496 1.54s1.335.55 2.112.55zm23.919-12.1v15.4h-4.29v-5.236c-1.188.396-2.281.594-3.278.594-2.156 0-3.806-.513-4.95-1.54-1.13-1.041-1.694-2.537-1.694-4.488v-4.73h4.29v4.246c0 1.98.968 2.97 2.904 2.97 1.056 0 1.965-.176 2.728-.528V34.85h4.29zm3.296 0h4.29v9.042l6.358-9.042h4.092v15.4h-4.29v-9.02l-6.336 9.02h-4.114v-15.4zm38.925 0v15.4h-20.878v-15.4h4.29v11.946h4.026V34.85h4.29v11.946h3.982V34.85h4.29zm2.002 11.946v6.556h-4.004V50.25h-2.376v-3.454h6.38zm14.449.088v3.366h-12.364v-15.4h12.078v3.366h-7.766v2.596h6.842v3.256h-6.842v2.816h8.052zm17.134-12.034v15.4h-4.356v-6.006h-5.94v6.006h-4.356v-15.4h4.356v5.786h5.94V34.85h4.356zm3.309 0h4.29v9.042l6.358-9.042h4.092v15.4h-4.29v-9.02l-6.336 9.02h-4.114v-15.4zm30.411 12.034v3.366h-12.364v-15.4h12.078v3.366h-7.766v2.596h6.842v3.256h-6.842v2.816h8.052zM81.75 72.796v6.556h-3.982V76.25h-9.856v3.102h-4.004v-6.556h.55c.91-.014 1.547-.638 1.914-1.87.381-1.232.616-3.006.704-5.324l.176-4.752H79.66v11.946h2.09zm-10.868-6.82c-.059 1.643-.19 3.036-.396 4.18-.205 1.144-.52 2.024-.946 2.64h5.83v-8.492h-4.422l-.066 1.672zm25.315 6.908v3.366H83.833v-15.4h12.078v3.366h-7.766v2.596h6.842v3.256h-6.842v2.816h8.052zm14.89-8.58h-4.708V76.25h-4.29V64.304h-4.73V60.85h13.728v3.454zm9.361 12.254c-1.628 0-3.095-.344-4.4-1.034a7.866 7.866 0 0 1-3.058-2.86c-.733-1.217-1.1-2.588-1.1-4.114 0-1.525.367-2.896 1.1-4.114a7.866 7.866 0 0 1 3.058-2.86c1.305-.689 2.772-1.034 4.4-1.034 1.628 0 3.087.345 4.378 1.034 1.305.69 2.325 1.643 3.058 2.86.748 1.218 1.122 2.589 1.122 4.114 0 1.526-.374 2.897-1.122 4.114-.733 1.218-1.753 2.171-3.058 2.86-1.291.69-2.75 1.034-4.378 1.034zm0-3.608c.777 0 1.481-.183 2.112-.55a3.975 3.975 0 0 0 1.496-1.54c.367-.674.55-1.444.55-2.31 0-.865-.183-1.628-.55-2.288a3.937 3.937 0 0 0-1.496-1.562 4.126 4.126 0 0 0-2.112-.55c-.777 0-1.481.184-2.112.55a3.937 3.937 0 0 0-1.496 1.562c-.367.66-.55 1.423-.55 2.288 0 .866.183 1.636.55 2.31.367.66.865 1.174 1.496 1.54.631.367 1.335.55 2.112.55zm17.113-2.596h-1.98v5.896h-4.334v-15.4h4.334v5.984h2.09l3.674-5.984h4.576l-4.818 7.436 4.862 7.964h-4.906l-3.498-5.896zm17.218 6.204c-1.614 0-3.066-.337-4.356-1.012a7.746 7.746 0 0 1-3.014-2.86c-.734-1.217-1.1-2.596-1.1-4.136s.366-2.918 1.1-4.136a7.59 7.59 0 0 1 3.014-2.838c1.29-.689 2.742-1.034 4.356-1.034 1.408 0 2.676.25 3.806.748a7.325 7.325 0 0 1 2.816 2.156l-2.772 2.508c-.998-1.202-2.208-1.804-3.63-1.804-.836 0-1.584.184-2.244.55a3.884 3.884 0 0 0-1.518 1.562c-.352.66-.528 1.423-.528 2.288 0 .866.176 1.636.528 2.31a3.92 3.92 0 0 0 1.518 1.54c.66.367 1.408.55 2.244.55 1.422 0 2.632-.601 3.63-1.804l2.772 2.508a7.325 7.325 0 0 1-2.816 2.156c-1.13.499-2.398.748-3.806.748zm8.59-15.708h4.29v9.042l6.358-9.042h4.092v15.4h-4.29v-9.02l-6.336 9.02h-4.114v-15.4zm24.273 9.504h-1.98v5.896h-4.335v-15.4h4.335v5.984h2.09l3.674-5.984h4.576l-4.818 7.436 4.862 7.964h-4.906l-3.498-5.896zm20.062 2.904h-6.512l-1.21 2.992h-4.444l6.798-15.4h4.29l6.82 15.4h-4.532l-1.21-2.992zm-1.276-3.212l-1.98-4.928-1.98 4.928h3.96zm25.393 2.75v6.6h-3.982V76.25h-12.628v-15.4h4.29v11.946h5.918V60.85h4.29v11.946h2.112zm2.06-11.946h4.29v9.042l6.358-9.042h4.092v15.4h-4.29v-9.02l-6.336 9.02h-4.114v-15.4zm30.939 0v15.4h-4.29v-3.872h-2.376l-2.53 3.872h-4.576l3.124-4.51c-1.027-.454-1.812-1.107-2.354-1.958-.543-.865-.814-1.892-.814-3.08 0-1.202.278-2.244.836-3.124.557-.88 1.356-1.554 2.398-2.024 1.041-.469 2.258-.704 3.652-.704h6.93zm-6.842 3.432c-1.716 0-2.574.785-2.574 2.354 0 .778.212 1.372.638 1.782.44.396 1.07.594 1.892.594h2.596v-4.73h-2.552zm-175.17 38.276c-1.629 0-3.095-.344-4.4-1.034a7.865 7.865 0 0 1-3.059-2.86c-.733-1.217-1.1-2.588-1.1-4.114 0-1.525.367-2.896 1.1-4.114a7.869 7.869 0 0 1 3.058-2.86c1.306-.689 2.772-1.034 4.4-1.034 1.628 0 3.088.345 4.378 1.034 1.306.69 2.325 1.643 3.058 2.86.748 1.218 1.122 2.59 1.122 4.114 0 1.526-.374 2.897-1.122 4.115-.733 1.217-1.752 2.17-3.058 2.859-1.29.69-2.75 1.034-4.378 1.034zm0-3.608c.777 0 1.48-.183 2.111-.55.63-.366 1.13-.88 1.496-1.54.367-.674.55-1.444.55-2.31 0-.865-.183-1.628-.55-2.288A3.939 3.939 0 0 0 84.92 90.7a4.125 4.125 0 0 0-2.112-.55c-.777 0-1.481.184-2.112.55-.63.367-1.13.888-1.496 1.562-.366.66-.55 1.423-.55 2.288 0 .866.184 1.636.55 2.31.367.66.866 1.174 1.496 1.54.63.367 1.335.55 2.112.55zm24.768 3.3l-.022-8.162-3.96 6.644h-1.936l-3.96-6.468v7.986h-4.004v-15.4h3.586l5.412 8.888 5.28-8.888h3.586l.044 15.4h-4.026zm14.87.308c-1.628 0-3.095-.344-4.4-1.034a7.862 7.862 0 0 1-3.058-2.86c-.733-1.217-1.1-2.588-1.1-4.114 0-1.525.367-2.896 1.1-4.114a7.866 7.866 0 0 1 3.058-2.86c1.305-.689 2.772-1.034 4.4-1.034 1.628 0 3.087.345 4.378 1.034 1.305.69 2.325 1.643 3.058 2.86.748 1.218 1.122 2.59 1.122 4.114 0 1.526-.374 2.897-1.122 4.115-.733 1.217-1.753 2.17-3.058 2.859-1.291.69-2.75 1.034-4.378 1.034zm0-3.608c.777 0 1.481-.183 2.112-.55a3.976 3.976 0 0 0 1.496-1.54c.367-.674.55-1.444.55-2.31 0-.865-.183-1.628-.55-2.288a3.938 3.938 0 0 0-1.496-1.562 4.127 4.127 0 0 0-2.112-.55c-.777 0-1.481.184-2.112.55a3.938 3.938 0 0 0-1.496 1.562c-.367.66-.55 1.423-.55 2.288 0 .866.183 1.636.55 2.31.367.66.865 1.174 1.496 1.54.631.367 1.335.55 2.112.55zm24.824-12.1v15.4h-4.29V90.304h-4.422l-.088 2.508c-.074 2.2-.257 3.99-.55 5.368-.279 1.38-.763 2.45-1.452 3.212-.69.748-1.665 1.122-2.926 1.122-.587 0-1.247-.088-1.98-.264l.242-3.564c.19.044.388.066.594.066.572 0 1.012-.227 1.32-.681.308-.455.528-1.086.66-1.893.132-.82.22-1.884.264-3.19l.22-6.138h12.408zm10.862 15.708c-1.628 0-3.095-.344-4.4-1.034a7.862 7.862 0 0 1-3.058-2.86c-.734-1.217-1.1-2.588-1.1-4.114 0-1.525.366-2.896 1.1-4.114a7.866 7.866 0 0 1 3.058-2.86c1.305-.689 2.772-1.034 4.4-1.034 1.628 0 3.087.345 4.378 1.034 1.305.69 2.325 1.643 3.058 2.86.748 1.218 1.122 2.59 1.122 4.114 0 1.526-.374 2.897-1.122 4.115-.733 1.217-1.753 2.17-3.058 2.859-1.291.69-2.75 1.034-4.378 1.034zm0-3.608c.777 0 1.481-.183 2.112-.55a3.976 3.976 0 0 0 1.496-1.54c.367-.674.55-1.444.55-2.31 0-.865-.183-1.628-.55-2.288a3.938 3.938 0 0 0-1.496-1.562 4.127 4.127 0 0 0-2.112-.55c-.778 0-1.482.184-2.112.55a3.931 3.931 0 0 0-1.496 1.562c-.367.66-.55 1.423-.55 2.288 0 .866.183 1.636.55 2.31a3.97 3.97 0 0 0 1.496 1.54c.63.367 1.334.55 2.112.55zm24.848-2.596h-1.826v5.896h-4.268v-5.895h-1.826l-3.014 5.895h-5.038l4.378-8.074-4.114-7.326h4.576l3.08 5.984h1.958V86.85h4.268v5.984h1.87l3.146-5.984h4.554l-4.114 7.326 4.378 8.074h-5.016l-2.992-5.895zm21.778 2.53v3.366h-12.364v-15.4h12.078v3.366h-7.766v2.596h6.842v3.256h-6.842v2.817h8.052zm17.134-12.034v15.4h-4.356v-6.006h-5.94v6.006h-4.356v-15.4h4.356v5.786h5.94V86.85h4.356zm3.309 0h4.29v9.042l6.358-9.042h4.092v15.4h-4.29v-9.02l-6.336 9.02h-4.114v-15.4zm30.411 12.035v3.365h-12.364v-15.4h12.078v3.366h-7.766v2.596h6.842v3.256h-6.842v2.817h8.052z"/>
    <path fill="#0095D5" fill-rule="evenodd" d="M133.652 17.1a4.05 4.05 0 1 0 0-8.1 4.05 4.05 0 0 0 0 8.1zM94.05 8.1a4.05 4.05 0 1 0 0-8.1 4.05 4.05 0 0 0 0 8.1zM328.95 75.6a4.05 4.05 0 1 0 0-8.1 4.05 4.05 0 0 0 0 8.1zM14.4 63.9a2.7 2.7 0 1 0 0-5.4 2.7 2.7 0 0 0 0 5.4zM202.502 26.1a2.7 2.7 0 1 0 0-5.4 2.7 2.7 0 0 0 0 5.4zM145.802 144.901a2.7 2.7 0 1 0 0-5.4 2.7 2.7 0 0 0 0 5.4zM159.302 130.501a2.7 2.7 0 1 0 0-5.4 2.7 2.7 0 0 0 0 5.4zM77.4 18.9a2.7 2.7 0 1 0 0-5.4 2.7 2.7 0 0 0 0 5.4zM305.1 98.1a2.7 2.7 0 1 0 0-5.4 2.7 2.7 0 0 0 0 5.4zM38.7 95.4a2.7 2.7 0 1 0 0-5.4 2.7 2.7 0 0 0 0 5.4zM211.05 121.5a5.85 5.85 0 1 0 0-11.7 5.85 5.85 0 0 0 0 11.7zM237.152 15.3a5.85 5.85 0 1 0 0-11.7 5.85 5.85 0 0 0 0 11.7zM5.85 100.801a5.85 5.85 0 1 0 0-11.7 5.85 5.85 0 0 0 0 11.7zM89.55 124.201a4.05 4.05 0 1 0 0-8.1 4.05 4.05 0 0 0 0 8.1z" clip-rule="evenodd"/>
</svg>
