<svg xmlns="http://www.w3.org/2000/svg" width="50" height="50" fill="none" viewBox="0 0 50 50">
    <path fill="#F23F28" d="M0 0h50v50H0z"/>
    <path fill="#fff" fill-rule="evenodd" d="M7.813 25.562h2.778v-2.78H7.813v2.78zM18.648 26.394h5.002L22.54 37.51l9.447-13.894h-5.002l1.114-11.114-9.45 13.892zM34.21 25.56h2.78V22.78h-2.78v2.779zM39.77 25.562h2.78v-2.78h-2.78v2.78zM13.371 25.56h3.057V22.78h-3.057v2.779zM32.328 18.52l4.814-2.779 1.39 2.406-4.814 2.779-1.39-2.406zM12.102 30.196l4.811-2.778 1.392 2.406-4.813 2.778-1.39-2.406zM32.328 29.814l1.388-2.408 4.814 2.78-1.39 2.406-4.812-2.778zM12.105 18.156l1.39-2.405 4.814 2.778-1.39 2.406-4.814-2.779z" clip-rule="evenodd"/>
</svg>
