<svg xmlns="http://www.w3.org/2000/svg" width="253" height="134" fill="none" viewBox="0 0 253 134">
    <path fill="#F23F28" d="M35.455 40.198c.91.293 1.599.748 2.068 1.364.484.616.726 1.379.726 2.288 0 1.364-.535 2.442-1.606 3.234-1.056.777-2.56 1.166-4.51 1.166h-7.898v-15.4h7.48c1.848 0 3.278.352 4.29 1.056 1.027.69 1.54 1.672 1.54 2.948 0 .748-.183 1.408-.55 1.98-.352.572-.865 1.027-1.54 1.364zm-6.93-1.188h2.772c1.232 0 1.848-.506 1.848-1.518s-.616-1.518-1.848-1.518h-2.772v3.036zm3.432 6.116c1.261 0 1.892-.535 1.892-1.606 0-1.041-.63-1.562-1.892-1.562h-3.432v3.168h3.432zm16.503-7.37c1.892 0 3.351.425 4.378 1.276 1.027.836 1.54 2.083 1.54 3.74 0 1.775-.572 3.131-1.716 4.07-1.144.939-2.735 1.408-4.774 1.408h-7.282v-15.4h4.29v4.906h3.564zm-.858 7.37c.733 0 1.313-.198 1.738-.594.44-.396.66-.953.66-1.672 0-1.335-.8-2.002-2.398-2.002h-2.706v4.268h2.706zm8.47-12.276h4.29v15.4h-4.29v-15.4zm22.26 0v15.4h-4.356v-6.006h-5.94v6.006H63.68v-15.4h4.356v5.786h5.94V32.85h4.356zM89.21 48.558c-1.628 0-3.094-.345-4.4-1.034a7.868 7.868 0 0 1-3.058-2.86c-.733-1.217-1.1-2.589-1.1-4.114s.367-2.897 1.1-4.114a7.868 7.868 0 0 1 3.058-2.86c1.306-.69 2.772-1.034 4.4-1.034 1.628 0 3.087.345 4.378 1.034 1.305.69 2.325 1.643 3.058 2.86.748 1.217 1.122 2.589 1.122 4.114s-.374 2.897-1.122 4.114c-.733 1.217-1.752 2.17-3.058 2.86-1.29.69-2.75 1.034-4.378 1.034zm0-3.608c.778 0 1.481-.183 2.112-.55.63-.367 1.13-.88 1.496-1.54.367-.675.55-1.445.55-2.31s-.183-1.628-.55-2.288a3.937 3.937 0 0 0-1.496-1.562 4.125 4.125 0 0 0-2.112-.55c-.777 0-1.481.183-2.112.55-.63.367-1.13.887-1.496 1.562-.367.66-.55 1.423-.55 2.288 0 .865.183 1.635.55 2.31.367.66.865 1.173 1.496 1.54.63.367 1.335.55 2.112.55zm18.389 3.608c-1.613 0-3.065-.337-4.356-1.012a7.753 7.753 0 0 1-3.014-2.86c-.733-1.217-1.1-2.596-1.1-4.136s.367-2.919 1.1-4.136a7.596 7.596 0 0 1 3.014-2.838c1.291-.69 2.743-1.034 4.356-1.034 1.408 0 2.677.25 3.806.748a7.318 7.318 0 0 1 2.816 2.156l-2.772 2.508c-.997-1.203-2.207-1.804-3.63-1.804-.836 0-1.584.183-2.244.55a3.897 3.897 0 0 0-1.518 1.562c-.352.66-.528 1.423-.528 2.288 0 .865.176 1.635.528 2.31.367.66.873 1.173 1.518 1.54.66.367 1.408.55 2.244.55 1.423 0 2.633-.601 3.63-1.804l2.772 2.508a7.318 7.318 0 0 1-2.816 2.156c-1.129.499-2.398.748-3.806.748zm22.591-15.708v15.4h-4.29V36.304h-4.422l-.088 2.508c-.073 2.2-.257 3.99-.55 5.368-.279 1.379-.763 2.45-1.452 3.212-.689.748-1.665 1.122-2.926 1.122-.587 0-1.247-.088-1.98-.264l.242-3.564c.191.044.389.066.594.066.572 0 1.012-.227 1.32-.682.308-.455.528-1.085.66-1.892.132-.821.22-1.885.264-3.19l.22-6.138h12.408zm3.294 0h4.29v9.042l6.358-9.042h4.092v15.4h-4.29v-9.02l-6.336 9.02h-4.114v-15.4zm29.267 7.348c.909.293 1.599.748 2.068 1.364.484.616.726 1.379.726 2.288 0 1.364-.535 2.442-1.606 3.234-1.056.777-2.559 1.166-4.51 1.166h-7.898v-15.4h7.48c1.848 0 3.278.352 4.29 1.056 1.027.69 1.54 1.672 1.54 2.948 0 .748-.183 1.408-.55 1.98-.352.572-.865 1.027-1.54 1.364zm-6.93-1.188h2.772c1.232 0 1.848-.506 1.848-1.518s-.616-1.518-1.848-1.518h-2.772v3.036zm3.432 6.116c1.261 0 1.892-.535 1.892-1.606 0-1.041-.631-1.562-1.892-1.562h-3.432v3.168h3.432zm16.217 3.432c-1.628 0-3.095-.345-4.4-1.034a7.866 7.866 0 0 1-3.058-2.86c-.733-1.217-1.1-2.589-1.1-4.114s.367-2.897 1.1-4.114a7.866 7.866 0 0 1 3.058-2.86c1.305-.69 2.772-1.034 4.4-1.034 1.628 0 3.087.345 4.378 1.034 1.305.69 2.325 1.643 3.058 2.86.748 1.217 1.122 2.589 1.122 4.114s-.374 2.897-1.122 4.114c-.733 1.217-1.753 2.17-3.058 2.86-1.291.69-2.75 1.034-4.378 1.034zm0-3.608c.777 0 1.481-.183 2.112-.55a3.976 3.976 0 0 0 1.496-1.54c.367-.675.55-1.445.55-2.31s-.183-1.628-.55-2.288a3.937 3.937 0 0 0-1.496-1.562 4.126 4.126 0 0 0-2.112-.55c-.777 0-1.481.183-2.112.55a3.937 3.937 0 0 0-1.496 1.562c-.367.66-.55 1.423-.55 2.288 0 .865.183 1.635.55 2.31.367.66.865 1.173 1.496 1.54s1.335.55 2.112.55zm18.389 3.608c-1.613 0-3.065-.337-4.356-1.012a7.746 7.746 0 0 1-3.014-2.86c-.733-1.217-1.1-2.596-1.1-4.136s.367-2.919 1.1-4.136a7.59 7.59 0 0 1 3.014-2.838c1.291-.69 2.743-1.034 4.356-1.034 1.408 0 2.677.25 3.806.748a7.325 7.325 0 0 1 2.816 2.156l-2.772 2.508c-.997-1.203-2.207-1.804-3.63-1.804-.836 0-1.584.183-2.244.55a3.897 3.897 0 0 0-1.518 1.562c-.352.66-.528 1.423-.528 2.288 0 .865.176 1.635.528 2.31.367.66.873 1.173 1.518 1.54.66.367 1.408.55 2.244.55 1.423 0 2.633-.601 3.63-1.804l2.772 2.508a7.325 7.325 0 0 1-2.816 2.156c-1.129.499-2.398.748-3.806.748zm20.869-12.254h-4.708V48.25h-4.29V36.304h-4.73V32.85h13.728v3.454zm9.862 1.452c1.892 0 3.351.425 4.378 1.276 1.027.836 1.54 2.083 1.54 3.74 0 1.775-.572 3.131-1.716 4.07-1.144.939-2.735 1.408-4.774 1.408h-7.282v-15.4h4.29v4.906h3.564zm-.858 7.37c.733 0 1.313-.198 1.738-.594.44-.396.66-.953.66-1.672 0-1.335-.799-2.002-2.398-2.002h-2.706v4.268h2.706zM61.553 58.85h12.87v3.366h-8.58v2.486h3.982c1.863 0 3.293.396 4.29 1.188.998.792 1.496 1.929 1.496 3.41 0 1.555-.557 2.772-1.672 3.652-1.114.865-2.676 1.298-4.686 1.298h-7.7v-15.4zm7.414 12.276c.734 0 1.291-.147 1.672-.44.382-.293.572-.711.572-1.254 0-1.085-.748-1.628-2.244-1.628h-3.124v3.322h3.124zm16.461 3.432c-1.628 0-3.095-.345-4.4-1.034a7.868 7.868 0 0 1-3.058-2.86c-.733-1.217-1.1-2.589-1.1-4.114s.367-2.897 1.1-4.114a7.868 7.868 0 0 1 3.058-2.86c1.305-.69 2.772-1.034 4.4-1.034 1.628 0 3.087.345 4.378 1.034 1.305.69 2.325 1.643 3.058 2.86.748 1.217 1.122 2.589 1.122 4.114s-.374 2.897-1.122 4.114c-.733 1.217-1.753 2.17-3.058 2.86-1.29.69-2.75 1.034-4.378 1.034zm0-3.608c.777 0 1.481-.183 2.112-.55.63-.367 1.13-.88 1.496-1.54.367-.675.55-1.445.55-2.31s-.183-1.628-.55-2.288A3.938 3.938 0 0 0 87.54 62.7a4.125 4.125 0 0 0-2.112-.55c-.777 0-1.481.183-2.112.55-.63.367-1.13.887-1.496 1.562-.367.66-.55 1.423-.55 2.288 0 .865.183 1.635.55 2.31.367.66.865 1.173 1.496 1.54.63.367 1.335.55 2.112.55zm27.001-.154v6.556h-3.982V74.25h-9.856v3.102h-4.004v-6.556h.55c.91-.015 1.548-.638 1.914-1.87.382-1.232.616-3.007.704-5.324l.176-4.752h12.408v11.946h2.09zm-10.868-6.82c-.058 1.643-.19 3.036-.396 4.18-.205 1.144-.52 2.024-.946 2.64h5.83v-8.492h-4.422l-.066 1.672zm19.991-5.126c1.394 0 2.604.235 3.63.704 1.027.455 1.819 1.115 2.376 1.98.558.85.836 1.855.836 3.014 0 1.159-.278 2.163-.836 3.014-.557.85-1.349 1.51-2.376 1.98-1.026.455-2.236.682-3.63.682h-2.684v4.026h-4.356v-15.4h7.04zm-.264 7.942c.895 0 1.57-.19 2.024-.572.455-.396.682-.953.682-1.672s-.227-1.276-.682-1.672c-.454-.396-1.129-.594-2.024-.594h-2.42v4.51h2.42zm16.863 7.766c-1.628 0-3.095-.345-4.4-1.034a7.866 7.866 0 0 1-3.058-2.86c-.734-1.217-1.1-2.589-1.1-4.114s.366-2.897 1.1-4.114a7.866 7.866 0 0 1 3.058-2.86c1.305-.69 2.772-1.034 4.4-1.034 1.628 0 3.087.345 4.378 1.034 1.305.69 2.324 1.643 3.058 2.86.748 1.217 1.122 2.589 1.122 4.114s-.374 2.897-1.122 4.114c-.734 1.217-1.753 2.17-3.058 2.86-1.291.69-2.75 1.034-4.378 1.034zm0-3.608c.777 0 1.481-.183 2.112-.55a3.983 3.983 0 0 0 1.496-1.54c.366-.675.55-1.445.55-2.31s-.184-1.628-.55-2.288a3.944 3.944 0 0 0-1.496-1.562 4.126 4.126 0 0 0-2.112-.55 4.12 4.12 0 0 0-2.112.55 3.93 3.93 0 0 0-1.496 1.562c-.367.66-.55 1.423-.55 2.288 0 .865.183 1.635.55 2.31a3.97 3.97 0 0 0 1.496 1.54 4.12 4.12 0 0 0 2.112.55zm18.389 3.608c-1.614 0-3.066-.337-4.356-1.012a7.746 7.746 0 0 1-3.014-2.86c-.734-1.217-1.1-2.596-1.1-4.136s.366-2.919 1.1-4.136a7.59 7.59 0 0 1 3.014-2.838c1.29-.69 2.742-1.034 4.356-1.034 1.408 0 2.676.25 3.806.748a7.325 7.325 0 0 1 2.816 2.156l-2.772 2.508c-.998-1.203-2.208-1.804-3.63-1.804-.836 0-1.584.183-2.244.55a3.884 3.884 0 0 0-1.518 1.562c-.352.66-.528 1.423-.528 2.288 0 .865.176 1.635.528 2.31.366.66.872 1.173 1.518 1.54.66.367 1.408.55 2.244.55 1.422 0 2.632-.601 3.63-1.804l2.772 2.508a7.325 7.325 0 0 1-2.816 2.156c-1.13.499-2.398.748-3.806.748zm20.869-12.254h-4.708V74.25h-4.29V62.304h-4.73V58.85h13.728v3.454zm9.862 1.452c1.892 0 3.351.425 4.378 1.276 1.026.836 1.54 2.083 1.54 3.74 0 1.775-.572 3.131-1.716 4.07-1.144.939-2.736 1.408-4.774 1.408h-7.282v-15.4h4.29v4.906h3.564zm-.858 7.37c.733 0 1.312-.198 1.738-.594.44-.396.66-.953.66-1.672 0-1.335-.8-2.002-2.398-2.002h-2.706v4.268h2.706zm-85.389 29.432c-1.613 0-3.065-.337-4.356-1.012a7.748 7.748 0 0 1-3.014-2.86c-.733-1.217-1.1-2.596-1.1-4.136s.367-2.919 1.1-4.136a7.591 7.591 0 0 1 3.014-2.838c1.29-.69 2.743-1.034 4.356-1.034 1.408 0 2.677.25 3.806.748a7.325 7.325 0 0 1 2.816 2.156l-2.772 2.508c-.997-1.203-2.207-1.804-3.63-1.804-.836 0-1.584.183-2.244.55a3.892 3.892 0 0 0-1.518 1.562c-.352.66-.528 1.423-.528 2.288 0 .865.176 1.635.528 2.31A3.93 3.93 0 0 0 99 96.4c.66.367 1.408.55 2.244.55 1.423 0 2.633-.601 3.63-1.804l2.772 2.508a7.325 7.325 0 0 1-2.816 2.156c-1.129.499-2.398.748-3.806.748zm8.59-15.708h4.29v9.042l6.358-9.042h4.092v15.4h-4.29v-9.02l-6.336 9.02h-4.114v-15.4zm32.37 0v15.4h-4.29V88.304h-4.422l-.088 2.508c-.074 2.2-.257 3.99-.55 5.368-.279 1.379-.763 2.45-1.452 3.212-.69.748-1.665 1.122-2.926 1.122-.587 0-1.247-.088-1.98-.264l.242-3.564c.19.044.388.066.594.066.572 0 1.012-.227 1.32-.682.308-.455.528-1.085.66-1.892.132-.821.22-1.885.264-3.19l.22-6.138h12.408zm13.92 12.408h-6.512l-1.21 2.992h-4.444l6.798-15.4h4.29l6.82 15.4h-4.532l-1.21-2.992zm-1.276-3.212l-1.98-4.928-1.98 4.928h3.96z"/>
    <path fill="#F23F28" fill-rule="evenodd" d="M23.403 79.243l3.724 2.91-7.231 7.55 15.037-4.751-3.724-2.91 7.232-7.546-15.038 4.747zM121.801 125.115l4.519-1.382 2.036 10.254 4.734-15.043-4.519 1.382-2.034-10.252-4.736 15.041zM227.396 69.454l.165 4.722-10.432-.686 13.305 8.465-.165-4.722 10.429.688-13.302-8.467zM175 12.999h4.725l-1.05 10.401 8.925-13h-4.725L183.927 0 175 12.999zM58.345 15.94l4.008-2.504 4.62 9.377.68-15.755-4.007 2.504L59.027.186l-.682 15.754z" clip-rule="evenodd"/>
</svg>
