<svg xmlns="http://www.w3.org/2000/svg" width="285" height="118" fill="none" viewBox="0 0 285 118">
    <path fill="url(#a)" d="M79.176 38.145H72.64l-1.214 3.002h-4.46l6.822-15.453h4.305l6.844 15.454H80.39l-1.214-3.003zm-1.28-3.223l-1.988-4.945-1.987 4.945h3.974zm25.587 2.76v6.578h-3.996v-3.112h-9.89v3.112h-4.018v-6.579h.552c.912-.014 1.552-.64 1.92-1.876.383-1.236.619-3.017.707-5.343l.177-4.768h12.451V37.68h2.097zm-10.906-6.845c-.059 1.649-.191 3.047-.397 4.195-.206 1.148-.523 2.031-.95 2.65h5.851V29.16h-4.438l-.066 1.677zm23.832 7.308h-6.535l-1.214 3.002h-4.459l6.821-15.453h4.305l6.844 15.454h-4.548l-1.214-3.003zm-1.28-3.223l-1.987-4.945-1.987 4.945h3.974zm23.318-9.228v15.454h-4.327V29.16h-5.873v11.988h-4.305V25.693h14.505zm15.755 3.466h-4.724v11.988h-4.306V29.16h-4.746v-3.466h13.776v3.466zm11.902 8.985h-6.535l-1.214 3.002h-4.459l6.821-15.453h4.305l6.844 15.454h-4.548l-1.214-3.003zm-1.28-3.223l-1.987-4.945-1.987 4.945h3.974zm25.481 2.76v6.622h-3.996v-3.157h-12.672V25.695h4.305V37.68h5.939V25.694h4.305V37.68h2.119zm2.067-11.989h4.305v9.074l6.381-9.074h4.106v15.454h-4.305v-9.051l-6.358 9.052h-4.129V25.693zm31.048 0v15.454h-4.305v-3.885h-2.385l-2.539 3.886h-4.592l3.135-4.526c-1.03-.457-1.817-1.111-2.362-1.965-.544-.868-.817-1.899-.817-3.091 0-1.207.28-2.252.839-3.135.56-.883 1.362-1.56 2.407-2.031 1.045-.471 2.266-.706 3.664-.706h6.955zm-6.866 3.445c-1.722 0-2.583.787-2.583 2.362 0 .78.213 1.376.64 1.788.441.397 1.074.596 1.899.596h2.605v-4.746h-2.561zM65.974 61.322h-1.986v5.916h-4.35V51.785h4.35v6.005h2.097l3.687-6.005h4.592l-4.835 7.462 4.88 7.992h-4.924l-3.51-5.917zm16.901-9.537c1.398 0 2.613.235 3.643.706 1.03.456 1.825 1.119 2.384 1.987.56.854.84 1.862.84 3.024 0 1.163-.28 2.171-.84 3.025-.56.854-1.354 1.516-2.384 1.987-1.03.456-2.245.684-3.643.684h-2.693v4.04H75.81V51.785h7.064zm-.265 7.97c.898 0 1.575-.192 2.031-.575.457-.397.685-.956.685-1.678 0-.72-.228-1.28-.685-1.677-.456-.398-1.133-.596-2.03-.596h-2.43v4.525h2.43zm21.519 4.106v3.378H91.722V51.785h12.12v3.377h-7.793v2.605h6.866v3.268h-6.866v2.826h8.08zm16.995-12.076v15.454h-4.327V55.25h-5.873v11.988h-4.305V51.785h14.505zm9.551 9.537h-1.987v5.916h-4.349V51.785h4.349v6.005h2.098l3.686-6.005h4.592l-4.834 7.462 4.879 7.992h-4.924l-3.51-5.917zm9.836-9.537h4.305v9.073l6.38-9.073h4.106v15.454h-4.305v-9.052l-6.358 9.052h-4.128V51.785zm18.11 0h4.305v9.073l6.38-9.073h4.107v15.454h-4.305v-9.052l-6.359 9.052h-4.128V51.785zm7.374-.928c-1.56 0-2.708-.301-3.444-.905-.722-.603-1.082-1.501-1.082-2.693h2.936c.015.515.147.898.397 1.148.251.25.648.375 1.193.375.544 0 .949-.125 1.214-.375s.405-.633.419-1.148h2.937c0 1.192-.368 2.09-1.104 2.693-.736.604-1.892.905-3.466.905zm24.689 16.69c-1.619 0-3.076-.338-4.371-1.015a7.773 7.773 0 0 1-3.025-2.87c-.736-1.222-1.104-2.605-1.104-4.15 0-1.546.368-2.93 1.104-4.151a7.616 7.616 0 0 1 3.025-2.848c1.295-.692 2.752-1.038 4.371-1.038 1.413 0 2.686.25 3.819.751a7.339 7.339 0 0 1 2.826 2.164l-2.782 2.516c-1-1.206-2.215-1.81-3.642-1.81-.839 0-1.59.184-2.252.552a3.904 3.904 0 0 0-1.523 1.567c-.354.663-.53 1.428-.53 2.296 0 .869.176 1.642.53 2.319a3.94 3.94 0 0 0 1.523 1.545c.662.368 1.413.552 2.252.552 1.427 0 2.642-.603 3.642-1.81l2.782 2.516a7.34 7.34 0 0 1-2.826 2.164c-1.133.5-2.406.75-3.819.75zm15.891 0c-1.634 0-3.106-.345-4.415-1.037a7.886 7.886 0 0 1-3.069-2.87c-.736-1.222-1.104-2.598-1.104-4.129 0-1.53.368-2.906 1.104-4.128a7.887 7.887 0 0 1 3.069-2.87c1.309-.692 2.781-1.038 4.415-1.038s3.098.346 4.393 1.038c1.31.692 2.333 1.648 3.069 2.87.751 1.222 1.126 2.598 1.126 4.128 0 1.531-.375 2.907-1.126 4.129-.736 1.222-1.759 2.178-3.069 2.87-1.295.692-2.759 1.038-4.393 1.038zm0-3.62c.78 0 1.486-.184 2.119-.552a3.99 3.99 0 0 0 1.502-1.545c.368-.677.552-1.45.552-2.319 0-.868-.184-1.633-.552-2.296a3.953 3.953 0 0 0-1.502-1.567 4.139 4.139 0 0 0-2.119-.552c-.78 0-1.487.184-2.119.552a3.953 3.953 0 0 0-1.502 1.567c-.368.663-.552 1.428-.552 2.296 0 .869.184 1.642.552 2.319a3.99 3.99 0 0 0 1.502 1.545 4.135 4.135 0 0 0 2.119.552zm25.628-12.142v15.454h-4.371V61.21h-5.961v6.028H217.5V51.785h4.371v5.806h5.961v-5.806h4.371zm-128.909 26.09V93.33h-4.327V81.343h-5.873v11.987H88.79V77.876h14.505zm10.898 15.764c-1.634 0-3.105-.346-4.415-1.038a7.9 7.9 0 0 1-3.069-2.87c-.736-1.222-1.104-2.598-1.104-4.128 0-1.531.368-2.907 1.104-4.129a7.901 7.901 0 0 1 3.069-2.87c1.31-.692 2.781-1.037 4.415-1.037s3.098.345 4.393 1.037c1.31.692 2.333 1.649 3.069 2.87.751 1.222 1.126 2.598 1.126 4.129 0 1.53-.375 2.906-1.126 4.128-.736 1.222-1.759 2.178-3.069 2.87-1.295.692-2.759 1.038-4.393 1.038zm0-3.621c.78 0 1.487-.184 2.12-.552a3.995 3.995 0 0 0 1.501-1.545c.368-.677.552-1.45.552-2.318 0-.869-.184-1.634-.552-2.296a3.957 3.957 0 0 0-1.501-1.568 4.141 4.141 0 0 0-2.12-.552c-.78 0-1.486.184-2.119.552a3.943 3.943 0 0 0-1.501 1.567c-.368.663-.552 1.428-.552 2.297 0 .868.184 1.64.552 2.318a3.981 3.981 0 0 0 1.501 1.545 4.138 4.138 0 0 0 2.119.552zm20.053-4.725c.854.324 1.524.81 2.01 1.458a3.62 3.62 0 0 1 .728 2.23c0 .956-.324 1.788-.971 2.494-.648.707-1.524 1.251-2.628 1.634-1.103.368-2.318.552-3.642.552-1.045 0-2.112-.125-3.201-.376a13.64 13.64 0 0 1-3.091-1.126l1.302-3.046c.692.353 1.428.625 2.208.817.795.176 1.56.265 2.296.265.971 0 1.766-.155 2.384-.464.619-.324.928-.773.928-1.347 0-.456-.192-.794-.574-1.015-.383-.221-.898-.331-1.546-.331h-3.952v-3.202h3.599c.589 0 1.045-.117 1.369-.353.324-.235.485-.552.485-.95 0-.5-.25-.882-.75-1.147-.501-.28-1.148-.42-1.943-.42-.648 0-1.332.096-2.053.287a9.065 9.065 0 0 0-2.053.773l-1.281-3.311c1.649-.795 3.459-1.193 5.431-1.193 1.266 0 2.436.184 3.51.552 1.09.353 1.951.869 2.583 1.546.648.677.972 1.479.972 2.406 0 .721-.191 1.369-.574 1.943-.368.56-.883 1-1.546 1.325zm5.102-7.417h4.305v9.073l6.38-9.073h4.106v15.453h-4.305v-9.051l-6.358 9.051h-4.128V77.876zm30.561 3.466h-4.724v11.987h-4.305V81.343h-4.747v-3.466h13.776v3.466zm2.015-3.466h4.305v9.073l6.38-9.073h4.107v15.453h-4.305v-9.051l-6.358 9.051h-4.129V77.876zm29.37 7.373c.912.295 1.604.75 2.075 1.37.485.617.728 1.383.728 2.295 0 1.369-.537 2.45-1.611 3.245-1.06.78-2.569 1.17-4.526 1.17h-7.926V77.876h7.506c1.855 0 3.29.353 4.305 1.06 1.031.691 1.546 1.677 1.546 2.958 0 .75-.184 1.412-.552 1.986-.353.575-.868 1.03-1.545 1.37zm-6.955-1.192h2.782c1.236 0 1.854-.508 1.854-1.523 0-1.016-.618-1.524-1.854-1.524h-2.782v3.047zm3.444 6.138c1.266 0 1.899-.538 1.899-1.612 0-1.045-.633-1.567-1.899-1.567h-3.444v3.179h3.444z"/>
    <path fill="#034278" d="M42.082 4.381h-4.488V.001h-4.089v4.38h-4.514v3.877h4.514v4.381h4.09V8.258h4.487V4.381zM256.008 4.381h-4.488V.001h-4.089v4.38h-4.514v3.877h4.514v4.381h4.089V8.258h4.488V4.381zM285 25.385h-4.488v-4.38h-4.089v4.38h-4.514v3.877h4.514v4.381h4.089v-4.381H285v-3.877zM238.015 109.401h-4.487v-4.381h-4.089v4.381h-4.514v3.877h4.514v4.381h4.089v-4.381h4.487v-3.877zM73.073 108.4h-4.488v-4.381h-4.089v4.381h-4.514v3.877h4.514v4.381h4.09v-4.381h4.487V108.4zM13.09 71.394H8.603v-4.38h-4.09v4.38H0v3.877h4.513v4.381h4.09v-4.38h4.487v-3.878z"/>
    <defs>
        <linearGradient id="a" x1="-37.061" x2="-33.176" y1="35.919" y2="140.269" gradientUnits="userSpaceOnUse">
            <stop stop-color="#01285D"/>
            <stop offset="1" stop-color="#48B2CD"/>
        </linearGradient>
    </defs>
</svg>
